<svg xmlns="http://www.w3.org/2000/svg" xmlns:xlink="http://www.w3.org/1999/xlink" viewBox="0 0 304.06 283.01"><defs><style>.cls-1,.cls-2,.cls-3{opacity:0.28;}.cls-1{fill:url(#未命名的渐变_15);}.cls-2{fill:url(#未命名的渐变_15-2);}.cls-3{fill:url(#未命名的渐变_30);}</style><linearGradient id="未命名的渐变_15" x1="224.99" y1="240.52" x2="237.2" y2="261.66" gradientUnits="userSpaceOnUse"><stop offset="0" stop-color="#0088fb"/><stop offset="1" stop-color="#0088fb" stop-opacity="0.4"/></linearGradient><linearGradient id="未命名的渐变_15-2" x1="320.59" y1="138.51" x2="196.8" y2="14.72" xlink:href="#未命名的渐变_15"/><linearGradient id="未命名的渐变_30" x1="13.45" y1="204.53" x2="13.45" y2="93.32" gradientUnits="userSpaceOnUse"><stop offset="0" stop-color="#0088fb"/><stop offset="1" stop-color="#0088fb"/></linearGradient></defs><g id="图层_2" data-name="图层 2"><g id="图层_1-2" data-name="图层 1"><path class="cls-1" d="M267.54,216a141,141,0,0,1-81.89,56.15L188,283a152.12,152.12,0,0,0,88.35-60.2Z"/><path class="cls-2" d="M211.52,0l-4,10.42a141.07,141.07,0,0,1,84.62,144.63l11.1.82a149.49,149.49,0,0,0,.83-15.92A152,152,0,0,0,211.52,0Z"/><path class="cls-3" d="M11.14,135.26a141.57,141.57,0,0,1,5.33-38.58L5.87,93.32a152.44,152.44,0,0,0,10.8,111.21l10.22-4.48A140.18,140.18,0,0,1,11.14,135.26Z"/></g></g></svg>