<?xml version="1.0" encoding="UTF-8"?>
<svg width="136px" height="135px" viewBox="0 0 136 135" version="1.1" xmlns="http://www.w3.org/2000/svg" xmlns:xlink="http://www.w3.org/1999/xlink">
    <title>pic年等效利用小时</title>
    <defs>
        <filter id="filter-1">
            <feColorMatrix in="SourceGraphic" type="matrix" values="0 0 0 0 0.000000 0 0 0 0 0.501961 0 0 0 0 1.000000 0 0 0 1.000000 0"></feColorMatrix>
        </filter>
        <filter id="filter-2">
            <feColorMatrix in="SourceGraphic" type="matrix" values="0 0 0 0 1.000000 0 0 0 0 1.000000 0 0 0 0 1.000000 0 0 0 1.000000 0"></feColorMatrix>
        </filter>
        <filter id="filter-3">
            <feColorMatrix in="SourceGraphic" type="matrix" values="0 0 0 0 1.000000 0 0 0 0 1.000000 0 0 0 0 1.000000 0 0 0 0.500000 0"></feColorMatrix>
        </filter>
        <linearGradient x1="50%" y1="0%" x2="50%" y2="100%" id="linearGradient-4">
            <stop stop-color="#67C7E4" offset="0%"></stop>
            <stop stop-color="#1A48C3" offset="100%"></stop>
        </linearGradient>
    </defs>
    <g id="页面-1" stroke="none" stroke-width="1" fill="none" fill-rule="evenodd">
        <g id="版本-电力蓝" transform="translate(-3531.000000, -118.000000)">
            <g id="pic年等效利用小时" transform="translate(3531.444444, 118.000000)">
                <g id="编组-53">
                    <g id="bg设备健康度">
                        <path d="M92.8729526,117.012633 L98.2976758,127.70356 C82.3382996,135.803073 63.1927657,137.527026 45.048182,130.922937 C42.5013934,129.995982 40.044962,128.930665 37.6842869,127.738563 L43.1121368,117.042117 C50.5763644,120.829192 59.0206972,122.963532 67.9635316,122.963532 C76.9295475,122.963532 85.394474,120.818113 92.8729526,117.012633 Z M8.20875142,37.6442167 L18.9047641,43.0731149 C15.1053179,50.5469286 12.9635316,59.0051096 12.9635316,67.9635316 C12.9635316,76.7864622 15.041021,85.1241691 18.7335095,92.514162 L8.04271321,97.9387994 C0.0986508371,82.051767 -1.55053418,63.056963 5.00412604,45.048182 C5.93632721,42.4869804 7.00846106,40.0171615 8.20875142,37.6442167 Z M130.922937,90.8788812 C130.042607,93.2975682 129.037484,95.6347592 127.917485,97.8858294 L117.221528,92.4580954 C120.896533,85.0820085 122.963532,76.7641567 122.963532,67.9635316 C122.963532,59.027092 120.832244,50.5884414 117.050239,43.1281509 L127.741081,37.7034309 C135.808384,53.6479602 137.516816,72.7623495 130.922937,90.8788812 Z M90.8788812,5.00412604 C93.3118188,5.8896429 95.6622972,6.90142782 97.9256096,8.02938676 L92.4980917,18.7254831 C85.1120825,15.0380106 76.7800673,12.9635316 67.9635316,12.9635316 C59.1704312,12.9635316 50.8592788,15.0269969 43.4878898,18.6961123 L38.0621454,8.00582646 C53.9341654,0.0935591425 72.898008,-1.54037659 90.8788812,5.00412604 Z" id="形状结合" fill="#0080FF" opacity="0.100000001"></path>
                        <g filter="url(#filter-1)" id="编组-23" opacity="0.200000003">
                            <g transform="translate(21.000000, 20.000000)">
                                <circle id="椭圆形" fill="#FFFFFF" cx="4" cy="4" r="4"></circle>
                                <circle id="椭圆形备份-7" fill="#FFFFFF" cx="90" cy="4" r="4"></circle>
                                <circle id="椭圆形备份-2" fill="#FFFFFF" cx="4" cy="90" r="4"></circle>
                                <circle id="椭圆形备份-9" fill="#FFFFFF" cx="90" cy="90" r="4"></circle>
                            </g>
                        </g>
                        <path d="M68,21 C93.4050985,21 114,41.5949015 114,67 C114,92.4050985 93.4050985,113 68,113 C42.5949015,113 22,92.4050985 22,67 C22,41.5949015 42.5949015,21 68,21 Z M68,37 C51.4314575,37 38,50.4314575 38,67 C38,83.5685425 51.4314575,97 68,97 C84.5685425,97 98,83.5685425 98,67 C98,50.4314575 84.5685425,37 68,37 Z" id="形状结合" fill-opacity="0.2" fill="#86B3FF"></path>
                        <g filter="url(#filter-2)" id="编组-21备份" opacity="0.5">
                            <g transform="translate(58.000000, 55.000000)"></g>
                        </g>
                    </g>
                    <g filter="url(#filter-3)" id="仪表">
                        <g transform="translate(52.000000, 51.000000)">
                            <path d="M30.7428571,9.918 C29.9357143,7.98225 28.7821429,6.245875 27.3142857,4.756 C25.8464286,3.266125 24.1357143,2.09525 22.2285714,1.276 C20.2535714,0.42775 18.1607143,0 16,0 C13.8392857,0 11.7464286,0.42775 9.77142857,1.276 C7.86428571,2.09525 6.15357143,3.266125 4.68571429,4.756 C3.21785714,6.245875 2.06428571,7.98225 1.25714286,9.918 C0.421428571,11.922625 0,14.046875 0,16.24 C0,21.050375 2.08214286,25.581625 5.71071429,28.677375 L5.77142857,28.728125 C5.97857143,28.902125 6.23928571,29 6.50714286,29 L25.4964286,29 C25.7642857,29 26.025,28.902125 26.2321429,28.728125 L26.2928571,28.677375 C29.9178571,25.581625 32,21.050375 32,16.24 C32,14.046875 31.575,11.922625 30.7428571,9.918 Z M24.9071429,26.245 L7.09285714,26.245 C4.30357143,23.689375 2.71428571,20.068 2.71428571,16.24 C2.71428571,12.63675 4.09642857,9.251 6.60714286,6.70625 C9.11785714,4.157875 12.4535714,2.755 16,2.755 C19.55,2.755 22.8857143,4.157875 25.3928571,6.70625 C27.9035714,9.254625 29.2857143,12.640375 29.2857143,16.24 C29.2857143,20.068 27.6964286,23.689375 24.9071429,26.245 Z" id="形状" fill="#000000" fill-rule="nonzero"></path>
                            <path d="M19.0535714,12.0513229 C18.9428571,11.9406439 18.7607143,11.9406439 18.65,12.0513229 L15.6321429,15.068218 C14.9642857,14.8897035 14.225,15.0610775 13.7,15.5859101 C12.9178571,16.3678036 12.9178571,17.6316863 13.7,18.4135799 C14.4821429,19.1954734 15.7464286,19.1954734 16.5285714,18.4135799 C17.0535714,17.8887472 17.225,17.1496972 17.0464286,16.4820529 L20.0642857,13.4651578 C20.175,13.3544788 20.175,13.172394 20.0642857,13.061715 L19.0535714,12.0513229 L19.0535714,12.0513229 Z M14.2857143,8.42747848 L15.8571429,8.42747848 C16.0142857,8.42747848 16.1428571,8.29894804 16.1428571,8.14185528 L16.1428571,5.28562321 C16.1428571,5.12853044 16.0142857,5 15.8571429,5 L14.2857143,5 C14.1285714,5 14,5.12853044 14,5.28562321 L14,8.14185528 C14,8.29894804 14.1285714,8.42747848 14.2857143,8.42747848 Z M23.5714286,16.2107109 L23.5714286,17.7816385 C23.5714286,17.9387313 23.7,18.0672617 23.8571429,18.0672617 L26.7142857,18.0672617 C26.8714286,18.0672617 27,17.9387313 27,17.7816385 L27,16.2107109 C27,16.0536181 26.8714286,15.9250877 26.7142857,15.9250877 L23.8571429,15.9250877 C23.7,15.9250877 23.5714286,16.0536181 23.5714286,16.2107109 Z M24.025,9.17009882 L22.9142857,8.0597386 C22.8035714,7.94905961 22.6214286,7.94905961 22.5107143,8.0597386 L20.4892857,10.0805228 C20.3785714,10.1912018 20.3785714,10.3732866 20.4892857,10.4839656 L21.6,11.5943258 C21.7107143,11.7050048 21.8928571,11.7050048 22.0035714,11.5943258 L24.025,9.5735416 C24.1357143,9.46286261 24.1357143,9.28077781 24.025,9.17009882 Z M7.64642857,8.0597386 C7.53571429,7.94905961 7.35357143,7.94905961 7.24285714,8.0597386 L6.13214286,9.17009882 C6.02142857,9.28077781 6.02142857,9.46286261 6.13214286,9.5735416 L8.15357143,11.5943258 C8.26428571,11.7050048 8.44642857,11.7050048 8.55714286,11.5943258 L9.66785714,10.4839656 C9.77857143,10.3732866 9.77857143,10.1912018 9.66785714,10.0805228 L7.64642857,8.0597386 Z M6.14285714,15.9250877 L3.28571429,15.9250877 C3.12857143,15.9250877 3,16.0536181 3,16.2107109 L3,17.7816385 C3,17.9387313 3.12857143,18.0672617 3.28571429,18.0672617 L6.14285714,18.0672617 C6.3,18.0672617 6.42857143,17.9387313 6.42857143,17.7816385 L6.42857143,16.2107109 C6.42857143,16.0536181 6.3,15.9250877 6.14285714,15.9250877 Z" id="形状" fill="#000000" fill-rule="nonzero"></path>
                        </g>
                    </g>
                </g>
                <path d="M68,25 C91.1959595,25 110,43.8040405 110,67 C110,90.1959595 91.1959595,109 68,109 C44.8040405,109 26,90.1959595 26,67 C26,43.8040405 44.8040405,25 68,25 Z M68,33 C49.2223185,33 34,48.2223185 34,67 C34,85.7776815 49.2223185,101 68,101 C86.7776815,101 102,85.7776815 102,67 C102,48.2223185 86.7776815,33 68,33 Z" id="形状结合" fill="url(#linearGradient-4)"></path>
            </g>
        </g>
    </g>
</svg>