<svg xmlns:xlink="http://www.w3.org/1999/xlink" version="1.1" class="highcharts-root" style="font-family: Helvetica, Arial, sans-serif; font-size: 1rem;" xmlns="http://www.w3.org/2000/svg" width="400" height="240" viewBox="0 0 400 240" role="img" aria-label=""><desc>Created with Highcharts 11.3.0</desc><defs><filter id="highcharts-drop-shadow-4"><feDropShadow dx="1" dy="1" flood-color="#000000" flood-opacity="0.75" stdDeviation="2.5"></feDropShadow></filter><clipPath id="highcharts-8pci59m-116-"><rect x="0" y="0" width="337" height="169" fill="none"></rect></clipPath></defs><rect fill="transparent" class="highcharts-background" filter="none" x="0" y="0" width="400" height="240" rx="0" ry="0"></rect><rect fill="none" class="highcharts-plot-background" x="53" y="10" width="337" height="169" filter="none"></rect><g class="highcharts-pane-group" data-z-index="0"></g><g class="highcharts-grid highcharts-xaxis-grid" data-z-index="1"><path fill="none" stroke="#e6e6e6" stroke-width="0" stroke-dasharray="none" data-z-index="1" class="highcharts-grid-line" d="M 83.5 10 L 83.5 179" opacity="1"></path><path fill="none" stroke="#e6e6e6" stroke-width="0" stroke-dasharray="none" data-z-index="1" class="highcharts-grid-line" d="M 113.5 10 L 113.5 179" opacity="1"></path><path fill="none" stroke="#e6e6e6" stroke-width="0" stroke-dasharray="none" data-z-index="1" class="highcharts-grid-line" d="M 144.5 10 L 144.5 179" opacity="1"></path><path fill="none" stroke="#e6e6e6" stroke-width="0" stroke-dasharray="none" data-z-index="1" class="highcharts-grid-line" d="M 175.5 10 L 175.5 179" opacity="1"></path><path fill="none" stroke="#e6e6e6" stroke-width="0" stroke-dasharray="none" data-z-index="1" class="highcharts-grid-line" d="M 205.5 10 L 205.5 179" opacity="1"></path><path fill="none" stroke="#e6e6e6" stroke-width="0" stroke-dasharray="none" data-z-index="1" class="highcharts-grid-line" d="M 236.5 10 L 236.5 179" opacity="1"></path><path fill="none" stroke="#e6e6e6" stroke-width="0" stroke-dasharray="none" data-z-index="1" class="highcharts-grid-line" d="M 266.5 10 L 266.5 179" opacity="1"></path><path fill="none" stroke="#e6e6e6" stroke-width="0" stroke-dasharray="none" data-z-index="1" class="highcharts-grid-line" d="M 297.5 10 L 297.5 179" opacity="1"></path><path fill="none" stroke="#e6e6e6" stroke-width="0" stroke-dasharray="none" data-z-index="1" class="highcharts-grid-line" d="M 328.5 10 L 328.5 179" opacity="1"></path><path fill="none" stroke="#e6e6e6" stroke-width="0" stroke-dasharray="none" data-z-index="1" class="highcharts-grid-line" d="M 358.5 10 L 358.5 179" opacity="1"></path><path fill="none" stroke="#e6e6e6" stroke-width="0" stroke-dasharray="none" data-z-index="1" class="highcharts-grid-line" d="M 389.5 10 L 389.5 179" opacity="1"></path><path fill="none" stroke="#e6e6e6" stroke-width="0" stroke-dasharray="none" data-z-index="1" class="highcharts-grid-line" d="M 52.5 10 L 52.5 179" opacity="1"></path></g><g class="highcharts-grid highcharts-yaxis-grid" data-z-index="1"><path fill="none" stroke-width="1" stroke-dasharray="none" data-z-index="1" class="highcharts-grid-line" d="M 53 179.5 L 390 179.5" opacity="1"></path><path fill="none" stroke-width="1" stroke-dasharray="none" data-z-index="1" class="highcharts-grid-line" d="M 53 95.5 L 390 95.5" opacity="1"></path><path fill="none" stroke-width="1" stroke-dasharray="none" data-z-index="1" class="highcharts-grid-line" d="M 53 9.5 L 390 9.5" opacity="1"></path></g><rect fill="none" class="highcharts-plot-border" data-z-index="1" stroke="#cccccc" stroke-width="0" x="53" y="10" width="337" height="169"></rect><g class="highcharts-axis highcharts-xaxis" data-z-index="2"><path fill="none" class="highcharts-axis-line" stroke="#333333" stroke-width="1" data-z-index="7" d="M 53 179.5 L 390 179.5"></path></g><g class="highcharts-axis highcharts-yaxis" data-z-index="2"><path fill="none" class="highcharts-axis-line" stroke="#333333" stroke-width="0" data-z-index="7" d="M 53 10 L 53 179"></path></g><g class="highcharts-series-group" data-z-index="3" filter="none"><g class="highcharts-series highcharts-series-0 highcharts-area-series highcharts-color-0" data-z-index="0.1" opacity="1" transform="translate(53,10) scale(1 1)" clip-path="url(#highcharts-8pci59m-116-)"><path fill="#2caffe" d="M 15.318181818182 131.87577 L 45.954545454546 127.88568000000001 L 76.590909090909 113.935575 L 107.22727272727 99.856185 L 137.86363636363 74.239165 L 168.5 48.686364999999995 L 199.13636363636 24.054615000000013 L 229.77272727273 29.427969999999988 L 260.40909090909 37.892335 L 291.04545454545 32.57137 L 321.68181818182 38.35454999999999 L 321.68181818182 169 L 291.04545454545 169 L 260.40909090909 169 L 229.77272727273 169 L 199.13636363636 169 L 168.5 169 L 137.86363636363 169 L 107.22727272727 169 L 76.590909090909 169 L 45.954545454546 169 L 15.318181818182 169 Z" class="highcharts-area" data-z-index="0" fill-opacity="0.75" style="pointer-events: none;"></path><path fill="none" d="M 15.318181818182 131.87577 L 45.954545454546 127.88568000000001 L 76.590909090909 113.935575 L 107.22727272727 99.856185 L 137.86363636363 74.239165 L 168.5 48.686364999999995 L 199.13636363636 24.054615000000013 L 229.77272727273 29.427969999999988 L 260.40909090909 37.892335 L 291.04545454545 32.57137 L 321.68181818182 38.35454999999999" class="highcharts-graph" data-z-index="1" stroke="#2caffe" stroke-width="2" stroke-linejoin="round" stroke-linecap="round" filter="none"></path></g><g class="highcharts-markers highcharts-series-0 highcharts-area-series highcharts-color-0" data-z-index="0.1" opacity="1" transform="translate(53,10) scale(1 1)" clip-path="none"></g><g class="highcharts-series highcharts-series-1 highcharts-area-series highcharts-color-1" data-z-index="0.1" opacity="1" transform="translate(53,10) scale(1 1)" clip-path="url(#highcharts-8pci59m-116-)"><path fill="#544fc5" d="M 15.318181818182 147.94598 L 45.954545454546 136.939855 L 76.590909090909 143.86801 L 107.22727272727 143.775905 L 137.86363636363 141.54595 L 168.5 143.41171 L 199.13636363636 136.787755 L 229.77272727273 137.832175 L 260.40909090909 140.50153 L 291.04545454545 140.064665 L 321.68181818182 142.76275 L 321.68181818182 169 L 291.04545454545 169 L 260.40909090909 169 L 229.77272727273 169 L 199.13636363636 169 L 168.5 169 L 137.86363636363 169 L 107.22727272727 169 L 76.590909090909 169 L 45.954545454546 169 L 15.318181818182 169 Z" class="highcharts-area" data-z-index="0" fill-opacity="0.75" style="pointer-events: none;"></path><path fill="none" d="M 15.318181818182 147.94598 L 45.954545454546 136.939855 L 76.590909090909 143.86801 L 107.22727272727 143.775905 L 137.86363636363 141.54595 L 168.5 143.41171 L 199.13636363636 136.787755 L 229.77272727273 137.832175 L 260.40909090909 140.50153 L 291.04545454545 140.064665 L 321.68181818182 142.76275" class="highcharts-graph" data-z-index="1" stroke="#544fc5" stroke-width="2" stroke-linejoin="round" stroke-linecap="round" filter="none"></path></g><g class="highcharts-markers highcharts-series-1 highcharts-area-series highcharts-color-1" data-z-index="0.1" opacity="1" transform="translate(53,10) scale(1 1)" clip-path="none"></g></g><text x="200" text-anchor="middle" class="highcharts-title" data-z-index="4" style="font-size: 1.2em; color: rgb(51, 51, 51); font-weight: bold; fill: rgb(51, 51, 51);" y="25"></text><text x="200" text-anchor="middle" class="highcharts-subtitle" data-z-index="4" style="color: rgb(102, 102, 102); font-size: 0.8em; fill: rgb(102, 102, 102);" y="24"></text><text x="10" text-anchor="start" class="highcharts-caption" data-z-index="4" style="color: rgb(102, 102, 102); font-size: 0.8em; fill: rgb(102, 102, 102);" y="237"></text><g class="highcharts-axis-labels highcharts-xaxis-labels" data-z-index="7"><text x="71.14660894292837" text-anchor="end" transform="translate(0,0) rotate(-45 71.14660894292837 202)" style="color: rgb(204, 204, 204); cursor: default; font-size: 0.8em; fill: rgb(204, 204, 204);" y="202" opacity="1">2024</text><text x="101.78297257929437" text-anchor="end" transform="translate(0,0) rotate(-45 101.78297257929437 202)" style="color: rgb(204, 204, 204); cursor: default; font-size: 0.8em; fill: rgb(204, 204, 204);" y="202" opacity="1">2023</text><text x="132.41933621565437" text-anchor="end" transform="translate(0,0) rotate(-45 132.41933621565437 202)" style="color: rgb(204, 204, 204); cursor: default; font-size: 0.8em; fill: rgb(204, 204, 204);" y="202" opacity="1">2022</text><text x="163.05569985201438" text-anchor="end" transform="translate(0,0) rotate(-45 163.05569985201438 202)" style="color: rgb(204, 204, 204); cursor: default; font-size: 0.8em; fill: rgb(204, 204, 204);" y="202" opacity="1">2021</text><text x="193.69206348838438" text-anchor="end" transform="translate(0,0) rotate(-45 193.69206348838438 202)" style="color: rgb(204, 204, 204); cursor: default; font-size: 0.8em; fill: rgb(204, 204, 204);" y="202" opacity="1">2020</text><text x="224.32842712474437" text-anchor="end" transform="translate(0,0) rotate(-45 224.32842712474437 202)" style="color: rgb(204, 204, 204); cursor: default; font-size: 0.8em; fill: rgb(204, 204, 204);" y="202" opacity="1">2019</text><text x="254.96479076110438" text-anchor="end" transform="translate(0,0) rotate(-45 254.96479076110438 202)" style="color: rgb(204, 204, 204); cursor: default; font-size: 0.8em; fill: rgb(204, 204, 204);" y="202" opacity="1">2018</text><text x="285.6011543974744" text-anchor="end" transform="translate(0,0) rotate(-45 285.6011543974744 202)" style="color: rgb(204, 204, 204); cursor: default; font-size: 0.8em; fill: rgb(204, 204, 204);" y="202" opacity="1">2017</text><text x="316.2375180338344" text-anchor="end" transform="translate(0,0) rotate(-45 316.2375180338344 202)" style="color: rgb(204, 204, 204); cursor: default; font-size: 0.8em; fill: rgb(204, 204, 204);" y="202" opacity="1">2016</text><text x="346.8738816701944" text-anchor="end" transform="translate(0,0) rotate(-45 346.8738816701944 202)" style="color: rgb(204, 204, 204); cursor: default; font-size: 0.8em; fill: rgb(204, 204, 204);" y="202" opacity="1">2015</text><text x="377.5102453065644" text-anchor="end" transform="translate(0,0) rotate(-45 377.5102453065644 202)" style="color: rgb(204, 204, 204); cursor: default; font-size: 0.8em; fill: rgb(204, 204, 204);" y="202" opacity="1">2014</text></g><g class="highcharts-axis-labels highcharts-yaxis-labels" data-z-index="7"><text x="38" text-anchor="end" transform="translate(0,0)" style="color: rgb(204, 204, 204); cursor: default; font-size: 0.8em; fill: rgb(204, 204, 204);" y="184" opacity="1">0</text><text x="38" text-anchor="end" transform="translate(0,0)" style="color: rgb(204, 204, 204); cursor: default; font-size: 0.8em; fill: rgb(204, 204, 204);" y="99" opacity="1">100k</text><text x="38" text-anchor="end" transform="translate(0,0)" style="color: rgb(204, 204, 204); cursor: default; font-size: 0.8em; fill: rgb(204, 204, 204);" y="15" opacity="1">200k</text></g></svg>