<svg xmlns:xlink="http://www.w3.org/1999/xlink" version="1.1" class="highcharts-root" style="font-family: Helvetica, Arial, sans-serif; font-size: 1rem;" xmlns="http://www.w3.org/2000/svg" width="389" height="83" viewBox="0 0 389 83" role="img" aria-label=""><desc>Created with Highcharts 11.3.0</desc><defs><filter id="highcharts-drop-shadow-4"><feDropShadow dx="1" dy="1" flood-color="#000000" flood-opacity="0.75" stdDeviation="2.5"></feDropShadow></filter><clipPath id="highcharts-98tggkz-83-"><rect x="0" y="0" width="28" height="347" fill="none"></rect></clipPath><filter id="highcharts-drop-shadow-4-offsetx--1-offsety--1"><feDropShadow dx="-1" dy="-1" flood-color="#000000" flood-opacity="0.75" stdDeviation="2.5"></feDropShadow></filter></defs><rect fill="transparent" class="highcharts-background" filter="none" x="0" y="0" width="389" height="83" rx="0" ry="0"></rect><rect fill="none" class="highcharts-plot-background" x="32" y="10" width="347" height="28" filter="none"></rect><g class="highcharts-pane-group" data-z-index="0"></g><g class="highcharts-plot-bands-0" data-z-index="0"><path fill="#9BBEE6" class="highcharts-plot-band " d="M 31.5 10 L 31.5 38 L 248.5 38 L 248.5 10 Z"></path><path fill="#E6ECF4" class="highcharts-plot-band " d="M 248.5 10 L 248.5 38 L 378.5 38 L 378.5 10 Z"></path></g><g class="highcharts-grid highcharts-yaxis-grid" data-z-index="1"><path fill="none" stroke-width="0" stroke-dasharray="none" data-z-index="1" class="highcharts-grid-line" d="M 31.5 10 L 31.5 38" opacity="1"></path><path fill="none" stroke-width="0" stroke-dasharray="none" data-z-index="1" class="highcharts-grid-line" d="M 378.5 10 L 378.5 38" opacity="1"></path></g><g class="highcharts-grid highcharts-xaxis-grid" data-z-index="1"><path fill="none" stroke="#e6e6e6" stroke-width="0" stroke-dasharray="none" data-z-index="1" class="highcharts-grid-line" d="M 32 24.5 L 379 24.5" opacity="1"></path></g><rect fill="none" class="highcharts-plot-border" data-z-index="1" stroke="#cccccc" stroke-width="0" x="32" y="10" width="347" height="28"></rect><g class="highcharts-axis highcharts-yaxis" data-z-index="2"><path fill="none" class="highcharts-axis-line" stroke="#333333" stroke-width="0" data-z-index="7" d="M 32 38 L 379 38"></path></g><g class="highcharts-axis highcharts-xaxis" data-z-index="2"><path fill="none" class="highcharts-tick" stroke="#333333" stroke-width="1" d="M 32 24.5 L 22 24.5" opacity="1"></path><path fill="none" class="highcharts-axis-line" stroke="#333333" stroke-width="1" data-z-index="7" d="M 31.5 10 L 31.5 38"></path></g><g class="highcharts-series-group" data-z-index="3" filter="none"><g class="highcharts-series highcharts-series-0 highcharts-bullet-series" data-z-index="0.1" opacity="1" transform="translate(32,10) rotate(90 159.5 187.5) scale(-1 1)" clip-path="url(#highcharts-98tggkz-83-)"><path fill="#4A90E2" d="M 10 175 L 18 175 A 3 3 0 0 1 21 178 L 21 348 A 0 0 0 0 1 21 348 L 7 348 A 0 0 0 0 1 7 348 L 7 178 A 3 3 0 0 1 10 175 Z" stroke="#ffffff" stroke-width="0" opacity="1" filter="none" class="highcharts-point"></path><rect fill="#4A90E2" x="4" y="86" width="20" height="3" stroke="#ffffff" stroke-width="0" rx="0" ry="0" class="highcharts-point highcharts-bullet-target"></rect></g><g class="highcharts-markers highcharts-series-0 highcharts-bullet-series" data-z-index="0.1" opacity="1" transform="translate(32,10) scale(1 1)" clip-path="none"></g></g><text x="195" text-anchor="middle" class="highcharts-title" data-z-index="4" style="font-size: 1.2em; color: rgb(51, 51, 51); font-weight: bold; fill: rgb(51, 51, 51);" y="25"></text><text x="195" text-anchor="middle" class="highcharts-subtitle" data-z-index="4" style="color: rgb(102, 102, 102); font-size: 0.8em; fill: rgb(102, 102, 102);" y="24"></text><text x="10" text-anchor="start" class="highcharts-caption" data-z-index="4" style="color: rgb(102, 102, 102); font-size: 0.8em; fill: rgb(102, 102, 102);" y="80"></text><g class="highcharts-axis-labels highcharts-yaxis-labels" data-z-index="7"><text x="0" text-anchor="middle" transform="translate(0,0)" style="color: rgb(204, 204, 204); cursor: default; font-size: 0.8em; fill: rgb(204, 204, 204);" visibility="hidden">0</text><text x="0" text-anchor="middle" transform="translate(0,0)" style="color: rgb(204, 204, 204); cursor: default; font-size: 0.8em; fill: rgb(204, 204, 204);" visibility="hidden">160</text></g><g class="highcharts-axis-labels highcharts-xaxis-labels" data-z-index="7"><text x="17" text-anchor="end" transform="translate(0,0)" style="color: rgb(204, 204, 204); cursor: default; font-size: 0.8em; fill: rgb(204, 204, 204);" y="29" opacity="1">0</text></g></svg>