<svg xmlns:xlink="http://www.w3.org/1999/xlink" version="1.1" class="highcharts-root" style="font-family: Helvetica, Arial, sans-serif; font-size: 1rem;" xmlns="http://www.w3.org/2000/svg" width="442" height="258" viewBox="0 0 442 258" role="img" aria-label=""><desc>Created with Highcharts 11.3.0</desc><defs><filter id="highcharts-drop-shadow-8"><feDropShadow dx="1" dy="1" flood-color="#000000" flood-opacity="0.75" stdDeviation="2.5"></feDropShadow></filter><clipPath id="highcharts-ifo6mll-168-"><rect x="0" y="0" width="393" height="179" fill="none"></rect></clipPath></defs><rect fill="transparent" class="highcharts-background" filter="none" x="0" y="0" width="442" height="258" rx="0" ry="0"></rect><rect fill="none" class="highcharts-plot-background" x="39" y="10" width="393" height="179" filter="none"></rect><g class="highcharts-pane-group" data-z-index="0"></g><g class="highcharts-grid highcharts-xaxis-grid" data-z-index="1"><path fill="none" stroke-width="0" stroke-dasharray="none" data-z-index="1" class="highcharts-grid-line" d="M 77.5 10 L 77.5 189" opacity="1"></path><path fill="none" stroke-width="0" stroke-dasharray="none" data-z-index="1" class="highcharts-grid-line" d="M 117.5 10 L 117.5 189" opacity="1"></path><path fill="none" stroke-width="0" stroke-dasharray="none" data-z-index="1" class="highcharts-grid-line" d="M 156.5 10 L 156.5 189" opacity="1"></path><path fill="none" stroke-width="0" stroke-dasharray="none" data-z-index="1" class="highcharts-grid-line" d="M 195.5 10 L 195.5 189" opacity="1"></path><path fill="none" stroke-width="0" stroke-dasharray="none" data-z-index="1" class="highcharts-grid-line" d="M 235.5 10 L 235.5 189" opacity="1"></path><path fill="none" stroke-width="0" stroke-dasharray="none" data-z-index="1" class="highcharts-grid-line" d="M 274.5 10 L 274.5 189" opacity="1"></path><path fill="none" stroke-width="0" stroke-dasharray="none" data-z-index="1" class="highcharts-grid-line" d="M 313.5 10 L 313.5 189" opacity="1"></path><path fill="none" stroke-width="0" stroke-dasharray="none" data-z-index="1" class="highcharts-grid-line" d="M 352.5 10 L 352.5 189" opacity="1"></path><path fill="none" stroke-width="0" stroke-dasharray="none" data-z-index="1" class="highcharts-grid-line" d="M 392.5 10 L 392.5 189" opacity="1"></path><path fill="none" stroke-width="0" stroke-dasharray="none" data-z-index="1" class="highcharts-grid-line" d="M 431.5 10 L 431.5 189" opacity="1"></path><path fill="none" stroke-width="0" stroke-dasharray="none" data-z-index="1" class="highcharts-grid-line" d="M 38.5 10 L 38.5 189" opacity="1"></path></g><g class="highcharts-grid highcharts-yaxis-grid" data-z-index="1"><path fill="none" stroke-width="1" stroke-dasharray="4,3" data-z-index="1" class="highcharts-grid-line" d="M 39 189.5 L 432 189.5" opacity="1"></path><path fill="none" stroke-width="1" stroke-dasharray="4,3" data-z-index="1" class="highcharts-grid-line" d="M 39 129.5 L 432 129.5" opacity="1"></path><path fill="none" stroke-width="1" stroke-dasharray="4,3" data-z-index="1" class="highcharts-grid-line" d="M 39 70.5 L 432 70.5" opacity="1"></path><path fill="none" stroke-width="1" stroke-dasharray="4,3" data-z-index="1" class="highcharts-grid-line" d="M 39 9.5 L 432 9.5" opacity="1"></path></g><rect fill="none" class="highcharts-plot-border" data-z-index="1" stroke="#cccccc" stroke-width="0" x="39" y="10" width="393" height="179"></rect><g class="highcharts-axis highcharts-xaxis" data-z-index="2"><path fill="none" class="highcharts-axis-line" stroke="#333" stroke-width="1" data-z-index="7" d="M 39 189.5 L 432 189.5"></path></g><g class="highcharts-axis highcharts-yaxis" data-z-index="2"><path fill="none" class="highcharts-axis-line" stroke="#333" stroke-width="1" data-z-index="7" d="M 38.5 10 L 38.5 189"></path></g><g class="highcharts-series-group" data-z-index="3" filter="none"><g class="highcharts-series highcharts-series-0 highcharts-column-series highcharts-color-0" data-z-index="0.1" opacity="1" transform="translate(39,10) scale(1 1)" clip-path="url(#highcharts-ifo6mll-168-)"><path fill="#2f7fe0" d="M 14 30 L 14 30 A 5 5 0 0 1 19 35 L 19 180 A 0 0 0 0 1 19 180 L 9 180 A 0 0 0 0 1 9 180 L 9 35 A 5 5 0 0 1 14 30 Z" stroke="#ffffff" stroke-width="0" opacity="1" filter="none" class="highcharts-point highcharts-color-0"></path><path fill="#2f7fe0" d="M 53 73 L 53 73 A 5 5 0 0 1 58 78 L 58 180 A 0 0 0 0 1 58 180 L 48 180 A 0 0 0 0 1 48 180 L 48 78 A 5 5 0 0 1 53 73 Z" stroke="#ffffff" stroke-width="0" opacity="1" filter="none" class="highcharts-point highcharts-color-0"></path><path fill="#2f7fe0" d="M 93 96 L 93 96 A 5 5 0 0 1 98 101 L 98 180 A 0 0 0 0 1 98 180 L 88 180 A 0 0 0 0 1 88 180 L 88 101 A 5 5 0 0 1 93 96 Z" stroke="#ffffff" stroke-width="0" opacity="1" filter="none" class="highcharts-point highcharts-color-0"></path><path fill="#2f7fe0" d="M 132 154 L 132 154 A 5 5 0 0 1 137 159 L 137 180 A 0 0 0 0 1 137 180 L 127 180 A 0 0 0 0 1 127 180 L 127 159 A 5 5 0 0 1 132 154 Z" stroke="#ffffff" stroke-width="0" opacity="1" filter="none" class="highcharts-point highcharts-color-0"></path><path fill="#2f7fe0" d="M 171 159 L 171 159 A 5 5 0 0 1 176 164 L 176 180 A 0 0 0 0 1 176 180 L 166 180 A 0 0 0 0 1 166 180 L 166 164 A 5 5 0 0 1 171 159 Z" stroke="#ffffff" stroke-width="0" opacity="1" filter="none" class="highcharts-point highcharts-color-0"></path><path fill="#2f7fe0" d="M 211 160 L 211 160 A 5 5 0 0 1 216 165 L 216 180 A 0 0 0 0 1 216 180 L 206 180 A 0 0 0 0 1 206 180 L 206 165 A 5 5 0 0 1 211 160 Z" stroke="#ffffff" stroke-width="0" opacity="1" filter="none" class="highcharts-point highcharts-color-0"></path><path fill="#2f7fe0" d="M 250 162 L 250 162 A 5 5 0 0 1 255 167 L 255 180 A 0 0 0 0 1 255 180 L 245 180 A 0 0 0 0 1 245 180 L 245 167 A 5 5 0 0 1 250 162 Z" stroke="#ffffff" stroke-width="0" opacity="1" filter="none" class="highcharts-point highcharts-color-0"></path><path fill="#2f7fe0" d="M 289 164 L 289 164 A 5 5 0 0 1 294 169 L 294 180 A 0 0 0 0 1 294 180 L 284 180 A 0 0 0 0 1 284 180 L 284 169 A 5 5 0 0 1 289 164 Z" stroke="#ffffff" stroke-width="0" opacity="1" filter="none" class="highcharts-point highcharts-color-0"></path></g><g class="highcharts-markers highcharts-series-0 highcharts-column-series highcharts-color-0" data-z-index="0.1" opacity="1" transform="translate(39,10) scale(1 1)" clip-path="none"></g><g class="highcharts-series highcharts-series-1 highcharts-column-series highcharts-color-1" data-z-index="0.1" opacity="1" transform="translate(39,10) scale(1 1)" clip-path="url(#highcharts-ifo6mll-168-)"><path fill="#8b77e1" d="M 26 18 L 26 18 A 5 5 0 0 1 31 23 L 31 180 A 0 0 0 0 1 31 180 L 21 180 A 0 0 0 0 1 21 180 L 21 23 A 5 5 0 0 1 26 18 Z" stroke="#ffffff" stroke-width="0" opacity="1" filter="none" class="highcharts-point highcharts-color-1"></path><path fill="#8b77e1" d="M 65 44 L 65 44 A 5 5 0 0 1 70 49 L 70 180 A 0 0 0 0 1 70 180 L 60 180 A 0 0 0 0 1 60 180 L 60 49 A 5 5 0 0 1 65 44 Z" stroke="#ffffff" stroke-width="0" opacity="1" filter="none" class="highcharts-point highcharts-color-1"></path><path fill="#8b77e1" d="M 104 106 L 104 106 A 5 5 0 0 1 109 111 L 109 180 A 0 0 0 0 1 109 180 L 99 180 A 0 0 0 0 1 99 180 L 99 111 A 5 5 0 0 1 104 106 Z" stroke="#ffffff" stroke-width="0" opacity="1" filter="none" class="highcharts-point highcharts-color-1"></path><path fill="#8b77e1" d="M 144 149 L 144 149 A 5 5 0 0 1 149 154 L 149 180 A 0 0 0 0 1 149 180 L 139 180 A 0 0 0 0 1 139 180 L 139 154 A 5 5 0 0 1 144 149 Z" stroke="#ffffff" stroke-width="0" opacity="1" filter="none" class="highcharts-point highcharts-color-1"></path><path fill="#8b77e1" d="M 183 152 L 183 152 A 5 5 0 0 1 188 157 L 188 180 A 0 0 0 0 1 188 180 L 178 180 A 0 0 0 0 1 178 180 L 178 157 A 5 5 0 0 1 183 152 Z" stroke="#ffffff" stroke-width="0" opacity="1" filter="none" class="highcharts-point highcharts-color-1"></path><path fill="#8b77e1" d="M 222 153 L 222 153 A 5 5 0 0 1 227 158 L 227 180 A 0 0 0 0 1 227 180 L 217 180 A 0 0 0 0 1 217 180 L 217 158 A 5 5 0 0 1 222 153 Z" stroke="#ffffff" stroke-width="0" opacity="1" filter="none" class="highcharts-point highcharts-color-1"></path><path fill="#8b77e1" d="M 262 161 L 262 161 A 5 5 0 0 1 267 166 L 267 180 A 0 0 0 0 1 267 180 L 257 180 A 0 0 0 0 1 257 180 L 257 166 A 5 5 0 0 1 262 161 Z" stroke="#ffffff" stroke-width="0" opacity="1" filter="none" class="highcharts-point highcharts-color-1"></path><path fill="#8b77e1" d="M 301 164 L 301 164 A 5 5 0 0 1 306 169 L 306 180 A 0 0 0 0 1 306 180 L 296 180 A 0 0 0 0 1 296 180 L 296 169 A 5 5 0 0 1 301 164 Z" stroke="#ffffff" stroke-width="0" opacity="1" filter="none" class="highcharts-point highcharts-color-1"></path><path fill="#8b77e1" d="M 340 165 L 340 165 A 5 5 0 0 1 345 170 L 345 180 A 0 0 0 0 1 345 180 L 335 180 A 0 0 0 0 1 335 180 L 335 170 A 5 5 0 0 1 340 165 Z" stroke="#ffffff" stroke-width="0" opacity="1" filter="none" class="highcharts-point highcharts-color-1"></path><path fill="#8b77e1" d="M 380 166 L 380 166 A 5 5 0 0 1 385 171 L 385 180 A 0 0 0 0 1 385 180 L 375 180 A 0 0 0 0 1 375 180 L 375 171 A 5 5 0 0 1 380 166 Z" stroke="#ffffff" stroke-width="0" opacity="1" filter="none" class="highcharts-point highcharts-color-1"></path></g><g class="highcharts-markers highcharts-series-1 highcharts-column-series highcharts-color-1" data-z-index="0.1" opacity="1" transform="translate(39,10) scale(1 1)" clip-path="none"></g></g><text x="221" text-anchor="middle" class="highcharts-title" data-z-index="4" style="font-size: 1.2em; color: rgb(51, 51, 51); font-weight: bold; fill: rgb(51, 51, 51);" y="25"></text><text x="221" text-anchor="middle" class="highcharts-subtitle" data-z-index="4" style="color: rgb(102, 102, 102); font-size: 0.8em; fill: rgb(102, 102, 102);" y="24"></text><text x="10" text-anchor="start" class="highcharts-caption" data-z-index="4" style="color: rgb(102, 102, 102); font-size: 0.8em; fill: rgb(102, 102, 102);" y="255"></text><g class="highcharts-axis-labels highcharts-xaxis-labels" data-z-index="7"><text x="61.47842712474618" text-anchor="end" transform="translate(0,0) rotate(-45 61.47842712474618 212)" style="color: rgb(102, 102, 102); cursor: default; font-size: 0.8em; fill: rgb(102, 102, 102);" y="212" opacity="1">中国</text><text x="100.77842712474617" text-anchor="end" transform="translate(0,0) rotate(-45 100.77842712474617 212)" style="color: rgb(102, 102, 102); cursor: default; font-size: 0.8em; fill: rgb(102, 102, 102);" y="212" opacity="1">美国</text><text x="140.07842712474618" text-anchor="end" transform="translate(0,0) rotate(-45 140.07842712474618 212)" style="color: rgb(102, 102, 102); cursor: default; font-size: 0.8em; fill: rgb(102, 102, 102);" y="212" opacity="1">印度</text><text x="179.37842712474617" text-anchor="end" transform="translate(0,0) rotate(-45 179.37842712474617 212)" style="color: rgb(102, 102, 102); cursor: default; font-size: 0.8em; fill: rgb(102, 102, 102);" y="212" opacity="1">俄罗斯</text><text x="218.67842712474618" text-anchor="end" transform="translate(0,0) rotate(-45 218.67842712474618 212)" style="color: rgb(102, 102, 102); cursor: default; font-size: 0.8em; fill: rgb(102, 102, 102);" y="212" opacity="1">巴西</text><text x="257.97842712474625" text-anchor="end" transform="translate(0,0) rotate(-45 257.97842712474625 212)" style="color: rgb(102, 102, 102); cursor: default; font-size: 0.8em; fill: rgb(102, 102, 102);" y="212" opacity="1">阿根廷</text><text x="297.27842712474626" text-anchor="end" transform="translate(0,0) rotate(-45 297.27842712474626 212)" style="color: rgb(102, 102, 102); cursor: default; font-size: 0.8em; fill: rgb(102, 102, 102);" y="212" opacity="1">乌克兰</text><text x="336.5784271247462" text-anchor="end" transform="translate(0,0) rotate(-45 336.5784271247462 212)" style="color: rgb(102, 102, 102); cursor: default; font-size: 0.8em; fill: rgb(102, 102, 102);" y="212" opacity="1">印尼</text><text x="375.8784271247462" text-anchor="end" transform="translate(0,0) rotate(-45 375.8784271247462 212)" style="color: rgb(102, 102, 102); cursor: default; font-size: 0.8em; fill: rgb(102, 102, 102);" y="212" opacity="1">法国</text><text x="415.17842712474624" text-anchor="end" transform="translate(0,0) rotate(-45 415.17842712474624 212)" style="color: rgb(102, 102, 102); cursor: default; font-size: 0.8em; fill: rgb(102, 102, 102);" y="212" opacity="1">加拿大</text></g><g class="highcharts-axis-labels highcharts-yaxis-labels" data-z-index="7"><text x="24" text-anchor="end" transform="translate(0,0)" style="color: rgb(102, 102, 102); cursor: default; font-size: 0.8em; fill: rgb(102, 102, 102);" y="194" opacity="1">0</text><text x="24" text-anchor="end" transform="translate(0,0)" style="color: rgb(102, 102, 102); cursor: default; font-size: 0.8em; fill: rgb(102, 102, 102);" y="134" opacity="1">25</text><text x="24" text-anchor="end" transform="translate(0,0)" style="color: rgb(102, 102, 102); cursor: default; font-size: 0.8em; fill: rgb(102, 102, 102);" y="74" opacity="1">50</text><text x="24" text-anchor="end" transform="translate(0,0)" style="color: rgb(102, 102, 102); cursor: default; font-size: 0.8em; fill: rgb(102, 102, 102);" y="15" opacity="1">75</text></g></svg>