<svg xmlns:xlink="http://www.w3.org/1999/xlink" version="1.1" class="highcharts-root" style="font-family: Helvetica, Arial, sans-serif; font-size: 1rem;" xmlns="http://www.w3.org/2000/svg" width="229" height="201" viewBox="0 0 229 201" role="img" aria-label=""><desc>Created with Highcharts 11.3.0</desc><defs><filter id="highcharts-drop-shadow-9"><feDropShadow dx="1" dy="1" flood-color="#000000" flood-opacity="0.75" stdDeviation="2.5"></feDropShadow></filter></defs><rect fill="transparent" class="highcharts-background" filter="none" x="0" y="0" width="229" height="201" rx="0" ry="0"></rect><rect fill="none" class="highcharts-plot-background" x="10" y="10" width="209" height="176" filter="none"></rect><g class="highcharts-pane-group" data-z-index="0"></g><rect fill="none" class="highcharts-plot-border" data-z-index="1" stroke="#cccccc" stroke-width="0" x="10" y="10" width="209" height="176"></rect><g class="highcharts-series-group" data-z-index="3" filter="none"><g class="highcharts-series highcharts-series-0 highcharts-pie-series" data-z-index="0.1" opacity="1" transform="translate(10,10) scale(1 1)" filter="none" clip-path="none"><path fill="#2caffe" d="M 104.48473673500716 13.060025573578287 A 3 3 0 0 1 107.60412613969432 10.061791136125876 A 78 78 0 0 1 180.6873010987576 71.28189151586673 A 3 3 0 0 1 178.28229861800986 74.87855150363279 L 164.97786092116155 77.24461351690962 A 3 3 0 0 1 161.52806636649572 74.9596914722634 A 58.5 58.5 0 0 0 107.34175777936922 29.56906287998288 A 3 3 0 0 1 104.48748900976616 26.57321558574693 Z" transform="translate(0,0)" stroke="#ffffff" stroke-width="0" opacity="1" stroke-linejoin="round" class="highcharts-point highcharts-color-0"></path><path fill="#544fc5" d="M 178.2953831731731 74.95234035067745 A 3 3 0 0 1 181.79041588939205 77.50278076608794 A 78 78 0 0 1 157.0257023087803 145.6632517030508 A 3 3 0 0 1 152.70863180740326 145.37532413205372 L 144.01564242721963 135.02939510098042 A 3 3 0 0 1 144.27285977444146 130.8995294305499 A 58.5 58.5 0 0 0 162.53476850508514 80.63687263717539 A 3 3 0 0 1 164.9885860669241 77.30509674544395 Z" transform="translate(0,0)" stroke="#ffffff" stroke-width="0" opacity="1" stroke-linejoin="round" class="highcharts-point highcharts-color-1"></path><path fill="#00e272" d="M 152.65123238851987 145.42350406816666 A 3 3 0 0 1 152.18655056428253 149.72513989680482 A 78 78 0 0 1 107.68206278350554 165.93506576915058 A 3 3 0 0 1 104.55967670457521 162.93995221970007 L 104.54891579019811 149.42676621185157 A 3 3 0 0 1 107.40018728587197 146.42806614724526 A 58.5 58.5 0 0 0 139.85665173199206 134.6064070520634 A 3 3 0 0 1 143.9685932821373 135.0688872221261 Z" transform="translate(0,0)" stroke="#ffffff" stroke-width="0" opacity="1" stroke-linejoin="round" class="highcharts-point highcharts-color-2"></path><path fill="#fe6a35" d="M 104.48473673500716 162.9399744264217 A 3 3 0 0 1 101.36412626912056 165.93693794308308 A 78 78 0 0 1 56.850039433987 149.75339066041155 A 3 3 0 0 1 56.38280831159009 145.45203098255809 L 65.0593091926496 135.09227015805232 A 3 3 0 0 1 69.1709759301423 134.62735311243193 A 58.5 58.5 0 0 0 101.63444082457616 146.42977469246432 A 3 3 0 0 1 104.48748900976616 149.42678441425306 Z" transform="translate(0,0)" stroke="#ffffff" stroke-width="0" opacity="1" stroke-linejoin="round" class="highcharts-point highcharts-color-3"></path><path fill="#6b8abc" d="M 56.32538034877672 145.40388507287614 A 3 3 0 0 1 52.00848124685844 145.6943711204879 A 78 78 0 0 1 28.305895160875437 104.68707247435856 A 3 3 0 0 1 30.71236252858506 101.09139245409136 L 44.017762928464215 98.7307501519019 A 3 3 0 0 1 47.466626442149185 101.01707726836726 A 58.5 58.5 0 0 0 64.75257176906283 130.9230934233135 A 3 3 0 0 1 65.01223665068403 135.0528059276853 Z" transform="translate(0,0)" stroke="#ffffff" stroke-width="0" opacity="1" stroke-linejoin="round" class="highcharts-point highcharts-color-4"></path><path fill="#d568fb" d="M 30.699308032128528 101.01759828322221 A 3 3 0 0 1 27.205314518595813 98.46573439041929 A 78 78 0 0 1 30.179926537332875 64.32455532616629 A 3 3 0 0 1 34.06259473491207 62.41539643610318 L 46.763880645354966 67.02881687013858 A 3 3 0 0 1 48.60603404042087 70.73400540630774 A 58.5 58.5 0 0 0 46.462236966385014 95.33948649797475 A 3 3 0 0 1 44.00706242121679 98.67026255953613 Z" transform="translate(0,0)" stroke="#ffffff" stroke-width="0" opacity="1" stroke-linejoin="round" class="highcharts-point highcharts-color-5"></path><path fill="#2ee0ca" d="M 34.08821455291155 62.34497183487838 A 3 3 0 0 1 32.339847131961605 58.38729431373535 A 78 78 0 0 1 57.208595706632934 25.97159457183102 A 3 3 0 0 1 61.4840504490923 26.635286326474535 L 69.2406944069308 37.70058281555779 A 3 3 0 0 1 68.62393788669361 41.79222828092463 A 58.5 58.5 0 0 0 50.57717675399608 65.31566326338327 A 3 3 0 0 1 46.7848806930469 66.97109124599731 Z" transform="translate(0,0)" stroke="#ffffff" stroke-width="0" opacity="1" stroke-linejoin="round" class="highcharts-point highcharts-color-6"></path><path fill="#fa4b42" d="M 61.545436660511385 26.59230106644722 A 3 3 0 0 1 62.38386050644044 22.34765202859053 A 78 78 0 0 1 81.27067715536845 13.539281764276012 A 3 3 0 0 1 85.06143183125467 15.624990034204203 L 88.56659802912485 28.675665181693674 A 3 3 0 0 1 86.5878506108111 32.30974138810828 A 58.5 58.5 0 0 0 73.3468825756469 38.485019693587 A 3 3 0 0 1 69.29101144538336 37.665348665547754 Z" transform="translate(0,0)" stroke="#ffffff" stroke-width="0" opacity="1" stroke-linejoin="round" class="highcharts-point highcharts-color-7"></path><path fill="#feb56a" d="M 85.13381654844126 15.605587656777189 A 3 3 0 0 1 87.37318894490329 11.903532650437597 A 78 78 0 0 1 101.2717492815305 10.066833778559328 A 3 3 0 0 1 104.39590987680313 13.060096308800524 L 104.41467942701868 26.57327356598085 A 3 3 0 0 1 101.56518562233664 29.573662920146532 A 58.5 58.5 0 0 0 92.15700055010124 30.81695736864119 A 3 3 0 0 1 88.6259303207561 28.6597614445433 Z" transform="translate(0,0)" stroke="#ffffff" stroke-width="0" opacity="1" stroke-linejoin="round" class="highcharts-point highcharts-color-8"></path></g><g class="highcharts-markers highcharts-series-0 highcharts-pie-series" data-z-index="0.1" opacity="1" transform="translate(10,10) scale(1 1)" clip-path="none"></g></g><text x="115" text-anchor="middle" class="highcharts-title" data-z-index="4" style="font-size: 1.2em; color: rgb(51, 51, 51); font-weight: bold; fill: rgb(51, 51, 51);" y="25"></text><text x="115" text-anchor="middle" class="highcharts-subtitle" data-z-index="4" style="color: rgb(102, 102, 102); font-size: 0.8em; fill: rgb(102, 102, 102);" y="24"></text><text x="10" text-anchor="start" class="highcharts-caption" data-z-index="4" style="color: rgb(102, 102, 102); font-size: 0.8em; fill: rgb(102, 102, 102);" y="198"></text></svg>