<svg xmlns:xlink="http://www.w3.org/1999/xlink" version="1.1" class="highcharts-root" style="font-family: Helvetica, Arial, sans-serif; font-size: 1rem;" xmlns="http://www.w3.org/2000/svg" width="366" height="329" viewBox="0 0 366 329" role="img" aria-label=""><desc>Created with Highcharts 11.3.0</desc><defs><filter id="highcharts-drop-shadow-2"><feDropShadow dx="1" dy="1" flood-color="#000000" flood-opacity="0.75" stdDeviation="2.5"></feDropShadow></filter><clipPath id="highcharts-vutzail-87-"><rect x="0" y="0" width="811.7875416876025" height="129.2" fill="none"></rect></clipPath><clipPath id="highcharts-vutzail-88"><circle cx="173" cy="152" r="129.2"></circle></clipPath><clipPath id="highcharts-vutzail-100"><circle cx="173" cy="152" r="129.2"></circle></clipPath></defs><rect fill="transparent" class="highcharts-background" filter="none" x="0" y="0" width="366" height="329" rx="0" ry="0"></rect><rect fill="none" class="highcharts-plot-background" x="10" y="10" width="346" height="304" filter="none"></rect><g class="highcharts-pane-group" data-z-index="0"></g><g class="highcharts-grid highcharts-xaxis-grid highcharts-radial-axis-grid" data-z-index="1"><path fill="none" stroke-width="1" stroke-dasharray="none" data-z-index="1" class="highcharts-grid-line" d="M 183 162 L 219.3998463439127 38.03350780900695" opacity="1"></path><path fill="none" stroke-width="1" stroke-dasharray="none" data-z-index="1" class="highcharts-grid-line" d="M 183 162 L 280.64284500657016 77.39199317426917" opacity="1"></path><path fill="none" stroke-width="1" stroke-dasharray="none" data-z-index="1" class="highcharts-grid-line" d="M 183 162 L 310.88493029101653 143.61292289509157" opacity="1"></path><path fill="none" stroke-width="1" stroke-dasharray="none" data-z-index="1" class="highcharts-grid-line" d="M 183 162 L 300.5244537998038 215.67161967984373" opacity="1"></path><path fill="none" stroke-width="1" stroke-dasharray="none" data-z-index="1" class="highcharts-grid-line" d="M 183 162 L 252.85079361526323 270.6899564417886" opacity="1"></path><path fill="none" stroke-width="1" stroke-dasharray="none" data-z-index="1" class="highcharts-grid-line" d="M 183 162 L 183 291.2" opacity="1"></path><path fill="none" stroke-width="1" stroke-dasharray="none" data-z-index="1" class="highcharts-grid-line" d="M 183 162 L 113.14920638473679 270.6899564417886" opacity="1"></path><path fill="none" stroke-width="1" stroke-dasharray="none" data-z-index="1" class="highcharts-grid-line" d="M 183 162 L 65.47554620019623 215.6716196798437" opacity="1"></path><path fill="none" stroke-width="1" stroke-dasharray="none" data-z-index="1" class="highcharts-grid-line" d="M 183 162 L 55.1150697089835 143.6129228950916" opacity="1"></path><path fill="none" stroke-width="1" stroke-dasharray="none" data-z-index="1" class="highcharts-grid-line" d="M 183 162 L 85.35715499342987 77.39199317426915" opacity="1"></path><path fill="none" stroke-width="1" stroke-dasharray="none" data-z-index="1" class="highcharts-grid-line" d="M 183 162 L 146.6001536560873 38.03350780900695" opacity="1"></path><path fill="none" stroke-width="1" stroke-dasharray="none" data-z-index="1" class="highcharts-grid-line" d="M 183 162 L 219.39984634391266 38.033507809006935" opacity="1"></path><path fill="none" stroke-width="1" stroke-dasharray="none" data-z-index="1" class="highcharts-grid-line" d="M 183 162 L 146.6001536560873 38.03350780900695" opacity="1"></path></g><g class="highcharts-grid highcharts-yaxis-grid highcharts-radial-axis-grid" data-z-index="1"><path fill="none" stroke-width="1" stroke-dasharray="4,3" data-z-index="1" class="highcharts-grid-line" d="M 183 162 A 0 0 0 1 1 183 162 M 183 162 A 0 0 0 1 0 183 162" opacity="1"></path><path fill="none" stroke-width="1" stroke-dasharray="4,3" data-z-index="1" class="highcharts-grid-line" d="M 183 97.4 A 64.6 64.6 0 1 1 182.93540001076664 97.4000322999973 M 183 162 A 0 0 0 1 0 183 162" opacity="1"></path><path fill="none" stroke-width="1" stroke-dasharray="4,3" data-z-index="1" class="highcharts-grid-line" d="M 183 32.80000000000001 A 129.2 129.2 0 1 1 182.87080002153326 32.80006459999461 M 183 162 A 0 0 0 1 0 183 162" opacity="1"></path></g><rect fill="none" class="highcharts-plot-border" data-z-index="1" stroke="#cccccc" stroke-width="0" x="10" y="10" width="346" height="304"></rect><g class="highcharts-axis highcharts-xaxis highcharts-radial-axis" data-z-index="2"><path fill="none" class="highcharts-axis-line" stroke="#333" stroke-width="1" data-z-index="7" d="M 183 32.80000000000001 A 129.2 129.2 0 1 1 182.87080002153326 32.80006459999461 M 183 162 A 0 0 0 1 0 183 162"></path></g><g class="highcharts-axis highcharts-yaxis highcharts-radial-axis" data-z-index="2"><path fill="none" class="highcharts-axis-line" stroke="#333" stroke-width="1" data-z-index="7" d="M 183 162 L 183 32.80000000000001"></path></g><g class="highcharts-series-group" data-z-index="3" filter="none"><g class="highcharts-series highcharts-series-0 highcharts-column-series highcharts-color-0 highcharts-dense-data" data-z-index="0.1" opacity="1" transform="translate(10,10) scale(1 1)" clip-path="url(#highcharts-vutzail-88)"><path fill="#2f7fe0" d="M 165.784936921781 124.55105307524866 A 28.38136399999999 28.38136399999999 0 0 1 172.16117094810352 123.63103476821564 L 173 152 A 0 0 0 0 0 173 152 Z" stroke="#ffffff" stroke-width="0" opacity="1" filter="none" class="highcharts-point highcharts-color-0"></path><path fill="#2f7fe0" d="M 182.7129529473865 122.10660461647035 A 31.431776 31.431776 0 0 1 189.20436465914977 125.06721127496311 L 173 152 A 0 0 0 0 0 173 152 Z" stroke="#ffffff" stroke-width="0" opacity="1" filter="none" class="highcharts-point highcharts-color-0"></path><path fill="#2f7fe0" d="M 205.5887219850129 125.35233426711383 A 42.09658999999999 42.09658999999999 0 0 1 210.7588209298562 133.38832808114347 L 173 152 A 0 0 0 0 0 173 152 Z" stroke="#ffffff" stroke-width="0" opacity="1" filter="none" class="highcharts-point highcharts-color-0"></path><path fill="#2f7fe0" d="M 225.51568495310457 145.97438648726694 A 52.860242 52.860242 0 0 1 225.52168430777226 157.9730948237303 L 173 152 A 0 0 0 0 0 173 152 Z" stroke="#ffffff" stroke-width="0" opacity="1" filter="none" class="highcharts-point highcharts-color-0"></path><path fill="#2f7fe0" d="M 238.01147098472325 183.96398824003933 A 72.444378 72.444378 0 0 1 229.12803761140515 197.8020883552221 L 173 152 A 0 0 0 0 0 173 152 Z" stroke="#ffffff" stroke-width="0" opacity="1" filter="none" class="highcharts-point highcharts-color-0"></path><path fill="#2f7fe0" d="M 220.49793797822642 230.76648540740712 A 91.979418 91.979418 0 0 1 201.5106666933879 239.44915791657039 L 173 152 A 0 0 0 0 0 173 152 Z" stroke="#ffffff" stroke-width="0" opacity="1" filter="none" class="highcharts-point highcharts-color-0"></path><path fill="#2f7fe0" d="M 169.83569493072858 262.76512875760903 A 110.810318 110.810318 0 0 1 144.9371694642582 259.19796694706184 L 173 152 A 0 0 0 0 0 173 152 Z" stroke="#ffffff" stroke-width="0" opacity="1" filter="none" class="highcharts-point highcharts-color-0"></path><path fill="#2f7fe0" d="M 112.7725516254152 240.07983584036668 A 106.702404 106.702404 0 0 1 94.46013824427098 224.22806334639046 L 173 152 A 0 0 0 0 0 173 152 Z" stroke="#ffffff" stroke-width="0" opacity="1" filter="none" class="highcharts-point highcharts-color-0"></path><path fill="#2f7fe0" d="M 80.67446641046487 191.01709629828576 A 100.231422 100.231422 0 0 1 74.25372492053708 169.19043670396778 L 173 152 A 0 0 0 0 0 173 152 Z" stroke="#ffffff" stroke-width="0" opacity="1" filter="none" class="highcharts-point highcharts-color-0"></path><path fill="#2f7fe0" d="M 70.22830043443244 134.21465740230516 A 104.299284 104.299284 0 0 1 76.88690995431759 111.49549945026848 L 173 152 A 0 0 0 0 0 173 152 Z" stroke="#ffffff" stroke-width="0" opacity="1" filter="none" class="highcharts-point highcharts-color-0"></path><path fill="#2f7fe0" d="M 99.41572442670997 84.46496273993985 A 99.87805999999999 99.87805999999999 0 0 1 116.54208798926146 69.60988505438712 L 173 152 A 0 0 0 0 0 173 152 Z" stroke="#ffffff" stroke-width="0" opacity="1" filter="none" class="highcharts-point highcharts-color-0"></path></g><g class="highcharts-markers highcharts-series-0 highcharts-column-series highcharts-color-0" data-z-index="0.1" opacity="1" transform="translate(10,10) scale(1 1)" clip-path="none"></g><g class="highcharts-series highcharts-series-1 highcharts-column-series highcharts-color-1 highcharts-dense-data" data-z-index="0.1" opacity="1" transform="translate(10,10) scale(1 1)" clip-path="url(#highcharts-vutzail-100)"><path fill="#8b77e1" d="M 173.45963065477792 135.91082795657638 A 16.095736000000002 16.095736000000002 0 0 1 177.0762622097707 136.42897550644494 L 173 152 A 0 0 0 0 0 173 152 Z" stroke="#ffffff" stroke-width="0" opacity="1" filter="none" class="highcharts-point highcharts-color-1"></path><path fill="#8b77e1" d="M 186.8344389478975 131.76777790923862 A 24.509885999999995 24.509885999999995 0 0 1 191.04085930518139 135.40898112641526 L 173 152 A 0 0 0 0 0 173 152 Z" stroke="#ffffff" stroke-width="0" opacity="1" filter="none" class="highcharts-point highcharts-color-1"></path><path fill="#8b77e1" d="M 190.69785456034842 144.52082420964854 A 19.21333200000001 19.21333200000001 0 0 1 191.92864462069645 148.70477021050064 L 173 152 A 0 0 0 0 0 173 152 Z" stroke="#ffffff" stroke-width="0" opacity="1" filter="none" class="highcharts-point highcharts-color-1"></path><path fill="#8b77e1" d="M 192.00131309061248 155.28830665009136 A 19.283746000000008 19.283746000000008 0 0 1 190.77021226450657 159.48881939072487 L 173 152 A 0 0 0 0 0 173 152 Z" stroke="#ffffff" stroke-width="0" opacity="1" filter="none" class="highcharts-point highcharts-color-1"></path><path fill="#8b77e1" d="M 188.46312084196464 166.19192394139708 A 20.98854 20.98854 0 0 1 184.86415860053583 169.31359442845223 L 173 152 A 0 0 0 0 0 173 152 Z" stroke="#ffffff" stroke-width="0" opacity="1" filter="none" class="highcharts-point highcharts-color-1"></path><path fill="#8b77e1" d="M 177.97306277904585 170.91949312093885 A 19.562172000000004 19.562172000000004 0 0 1 173.57817228910412 171.55362601058167 L 173 152 A 0 0 0 0 0 173 152 Z" stroke="#ffffff" stroke-width="0" opacity="1" filter="none" class="highcharts-point highcharts-color-1"></path><path fill="#8b77e1" d="M 165.39009619970193 175.4208756456663 A 24.626165999999998 24.626165999999998 0 0 1 160.30420533600312 173.1012997161119 L 173 152 A 0 0 0 0 0 173 152 Z" stroke="#ffffff" stroke-width="0" opacity="1" filter="none" class="highcharts-point highcharts-color-1"></path><path fill="#8b77e1" d="M 154.55397820275863 167.08323717574567 A 23.827709999999996 23.827709999999996 0 0 1 151.62757446485432 162.53466613560923 L 173 152 A 0 0 0 0 0 173 152 Z" stroke="#ffffff" stroke-width="0" opacity="1" filter="none" class="highcharts-point highcharts-color-1"></path><path fill="#8b77e1" d="M 151.35501740588813 154.48353039132013 A 21.786996000000002 21.786996000000002 0 0 1 151.352544698401 149.5381158294327 L 173 152 A 0 0 0 0 0 173 152 Z" stroke="#ffffff" stroke-width="0" opacity="1" filter="none" class="highcharts-point highcharts-color-1"></path><path fill="#8b77e1" d="M 153.14866910168408 142.23975772626252 A 22.120978000000008 22.120978000000008 0 0 1 155.861236172322 138.014277203678 L 173 152 A 0 0 0 0 0 173 152 Z" stroke="#ffffff" stroke-width="0" opacity="1" filter="none" class="highcharts-point highcharts-color-1"></path><path fill="#8b77e1" d="M 162.64194479520665 134.8230942465049 A 20.058300000000003 20.058300000000003 0 0 1 166.78257094716452 132.92963097203 L 173 152 A 0 0 0 0 0 173 152 Z" stroke="#ffffff" stroke-width="0" opacity="1" filter="none" class="highcharts-point highcharts-color-1"></path></g><g class="highcharts-markers highcharts-series-1 highcharts-column-series highcharts-color-1" data-z-index="0.1" opacity="1" transform="translate(10,10) scale(1 1)" clip-path="none"></g></g><text x="183" text-anchor="middle" class="highcharts-title" data-z-index="4" style="font-size: 1.2em; color: rgb(51, 51, 51); font-weight: bold; fill: rgb(51, 51, 51);" y="25"></text><text x="183" text-anchor="middle" class="highcharts-subtitle" data-z-index="4" style="color: rgb(102, 102, 102); font-size: 0.8em; fill: rgb(102, 102, 102);" y="24"></text><text x="10" text-anchor="start" class="highcharts-caption" data-z-index="4" style="color: rgb(102, 102, 102); font-size: 0.8em; fill: rgb(102, 102, 102);" y="326"></text><g class="highcharts-axis-labels highcharts-xaxis-labels highcharts-radial-axis-labels" data-z-index="7"><text x="183" transform="translate(0,0)" style="color: rgb(102, 102, 102); cursor: default; font-size: 0.8em; fill: rgb(102, 102, 102);" text-anchor="middle" y="22.30000000000001" opacity="1">2024</text><text x="260.9604058770972" transform="translate(0,0)" style="color: rgb(102, 102, 102); cursor: default; font-size: 0.8em; fill: rgb(102, 102, 102);" text-anchor="start" y="45.1912405657437" opacity="1">2023</text><text x="314.1689337301216" transform="translate(0,0)" style="color: rgb(102, 102, 102); cursor: default; font-size: 0.8em; fill: rgb(102, 102, 102);" text-anchor="start" y="106.59715512512798" opacity="1">2022</text><text x="325.7322519192305" transform="translate(0,0)" style="color: rgb(102, 102, 102); cursor: default; font-size: 0.8em; fill: rgb(102, 102, 102);" text-anchor="start" y="187.0217996790077" opacity="1">2021</text><text x="291.97908862188405" transform="translate(0,0)" style="color: rgb(102, 102, 102); cursor: default; font-size: 0.8em; fill: rgb(102, 102, 102);" text-anchor="start" y="260.93091783491013" opacity="1">2020</text><text x="223.62583469653416" transform="translate(0,0)" style="color: rgb(102, 102, 102); cursor: default; font-size: 0.8em; fill: rgb(102, 102, 102);" text-anchor="middle" y="304.85888679521054" opacity="1">2019</text><text x="142.37416530346587" transform="translate(0,0)" style="color: rgb(102, 102, 102); cursor: default; font-size: 0.8em; fill: rgb(102, 102, 102);" text-anchor="middle" y="304.85888679521054" opacity="1">2018</text><text x="74.02091137811598" transform="translate(0,0)" style="color: rgb(102, 102, 102); cursor: default; font-size: 0.8em; fill: rgb(102, 102, 102);" text-anchor="end" y="260.93091783491013" opacity="1">2017</text><text x="40.26774808076951" transform="translate(0,0)" style="color: rgb(102, 102, 102); cursor: default; font-size: 0.8em; fill: rgb(102, 102, 102);" text-anchor="end" y="187.02179967900773" opacity="1">2016</text><text x="51.83106626987845" transform="translate(0,0)" style="color: rgb(102, 102, 102); cursor: default; font-size: 0.8em; fill: rgb(102, 102, 102);" text-anchor="end" y="106.59715512512803" opacity="1">2015</text><text x="105.03959412290286" transform="translate(0,0)" style="color: rgb(102, 102, 102); cursor: default; font-size: 0.8em; fill: rgb(102, 102, 102);" text-anchor="end" y="45.19124056574368" opacity="1">2014</text><text x="0" transform="translate(0,0)" style="color: rgb(102, 102, 102); cursor: default; font-size: 0.8em; fill: rgb(102, 102, 102);" text-anchor="middle" visibility="hidden">11</text></g><g class="highcharts-axis-labels highcharts-yaxis-labels highcharts-radial-axis-labels" data-z-index="7"><text x="180" text-anchor="end" transform="translate(0,0)" style="color: rgb(102, 102, 102); cursor: default; font-size: 0.8em; fill: rgb(102, 102, 102);" y="160" opacity="1">0</text><text x="180" text-anchor="end" transform="translate(0,0)" style="color: rgb(102, 102, 102); cursor: default; font-size: 0.8em; fill: rgb(102, 102, 102);" y="95.4" opacity="1">100000</text><text x="0" text-anchor="end" transform="translate(0,0)" style="color: rgb(102, 102, 102); cursor: default; font-size: 0.8em; fill: rgb(102, 102, 102);" visibility="hidden">200000</text></g></svg>