<svg xmlns:xlink="http://www.w3.org/1999/xlink" version="1.1" class="highcharts-root" style="font-family: Helvetica, Arial, sans-serif; font-size: 1rem;" xmlns="http://www.w3.org/2000/svg" width="400" height="240" viewBox="0 0 400 240" role="img" aria-label=""><desc>Created with Highcharts 11.3.0</desc><defs><filter id="highcharts-drop-shadow-4"><feDropShadow dx="1" dy="1" flood-color="#000000" flood-opacity="0.75" stdDeviation="2.5"></feDropShadow></filter><clipPath id="highcharts-dxtp93x-46-"><rect x="0" y="0" width="351" height="185" fill="none"></rect></clipPath></defs><rect fill="transparent" class="highcharts-background" filter="none" x="0" y="0" width="400" height="240" rx="0" ry="0"></rect><rect fill="none" class="highcharts-plot-background" x="39" y="10" width="351" height="185" filter="none"></rect><g class="highcharts-pane-group" data-z-index="0"></g><g class="highcharts-grid highcharts-xaxis-grid" data-z-index="1"><path fill="none" stroke-width="0" stroke-dasharray="none" data-z-index="1" class="highcharts-grid-line" d="M 38.5 10 L 38.5 195" opacity="1"></path><path fill="none" stroke-width="0" stroke-dasharray="none" data-z-index="1" class="highcharts-grid-line" d="M 155.5 10 L 155.5 195" opacity="1"></path><path fill="none" stroke-width="0" stroke-dasharray="none" data-z-index="1" class="highcharts-grid-line" d="M 272.5 10 L 272.5 195" opacity="1"></path><path fill="none" stroke-width="0" stroke-dasharray="none" data-z-index="1" class="highcharts-grid-line" d="M 389.5 10 L 389.5 195" opacity="1"></path></g><g class="highcharts-grid highcharts-yaxis-grid" data-z-index="1"><path fill="none" stroke-width="1" stroke-dasharray="4,3" data-z-index="1" class="highcharts-grid-line" d="M 39 195.5 L 390 195.5" opacity="1"></path><path fill="none" stroke-width="1" stroke-dasharray="4,3" data-z-index="1" class="highcharts-grid-line" d="M 39 149.5 L 390 149.5" opacity="1"></path><path fill="none" stroke-width="1" stroke-dasharray="4,3" data-z-index="1" class="highcharts-grid-line" d="M 39 103.5 L 390 103.5" opacity="1"></path><path fill="none" stroke-width="1" stroke-dasharray="4,3" data-z-index="1" class="highcharts-grid-line" d="M 39 56.5 L 390 56.5" opacity="1"></path><path fill="none" stroke-width="1" stroke-dasharray="4,3" data-z-index="1" class="highcharts-grid-line" d="M 39 9.5 L 390 9.5" opacity="1"></path></g><rect fill="none" class="highcharts-plot-border" data-z-index="1" stroke="#cccccc" stroke-width="0" x="39" y="10" width="351" height="185"></rect><g class="highcharts-axis highcharts-xaxis" data-z-index="2"><path fill="none" class="highcharts-tick" stroke="#333333" stroke-width="1" d="M 38.5 195 L 38.5 205" opacity="1"></path><path fill="none" class="highcharts-tick" stroke="#333333" stroke-width="1" d="M 155.5 195 L 155.5 205" opacity="1"></path><path fill="none" class="highcharts-tick" stroke="#333333" stroke-width="1" d="M 272.5 195 L 272.5 205" opacity="1"></path><path fill="none" class="highcharts-tick" stroke="#333333" stroke-width="1" d="M 390.5 195 L 390.5 205" opacity="1"></path><path fill="none" class="highcharts-axis-line" stroke="#333" stroke-width="1" data-z-index="7" d="M 39 195.5 L 390 195.5"></path></g><g class="highcharts-axis highcharts-yaxis" data-z-index="2"><path fill="none" class="highcharts-axis-line" stroke="#333" stroke-width="1" data-z-index="7" d="M 38.5 10 L 38.5 195"></path></g><g class="highcharts-series-group" data-z-index="3" filter="none"><g class="highcharts-series highcharts-series-0 highcharts-scatter-series highcharts-color-0" data-z-index="0.1" opacity="1" transform="translate(39,10) scale(1 1)" clip-path="url(#highcharts-dxtp93x-46-)"></g><g class="highcharts-markers highcharts-series-0 highcharts-scatter-series highcharts-color-0" data-z-index="0.1" opacity="1" transform="translate(39,10) scale(1 1)" clip-path="none"><path fill="#2f7fe0" d="M 304 123 A 8 8 0 1 1 304.00799999866666 122.99999600000034 Z" stroke="#ffffff" stroke-width="0" opacity="1" class="highcharts-point highcharts-color-0"></path><path fill="#2f7fe0" d="M 211 112 A 8 8 0 1 1 211.00799999866666 111.99999600000034 Z" stroke="#ffffff" stroke-width="0" opacity="1" class="highcharts-point highcharts-color-0"></path><path fill="#2f7fe0" d="M 327 48 A 8 8 0 1 1 327.00799999866666 47.99999600000034 Z" stroke="#ffffff" stroke-width="0" opacity="1" class="highcharts-point highcharts-color-0"></path><path fill="#2f7fe0" d="M 117 119 A 8 8 0 1 1 117.00799999866668 118.99999600000034 Z" stroke="#ffffff" stroke-width="0" opacity="1" class="highcharts-point highcharts-color-0"></path><path fill="#2f7fe0" d="M 71 129 A 8 8 0 1 1 71.00799999866668 128.99999600000032 Z" stroke="#ffffff" stroke-width="0" opacity="1" class="highcharts-point highcharts-color-0"></path><path fill="#2f7fe0" d="M 140 116 A 8 8 0 1 1 140.00799999866666 115.99999600000034 Z" stroke="#ffffff" stroke-width="0" opacity="1" class="highcharts-point highcharts-color-0"></path></g><g class="highcharts-series highcharts-series-1 highcharts-scatter-series highcharts-color-1" data-z-index="0.1" opacity="1" transform="translate(39,10) scale(1 1)" clip-path="url(#highcharts-dxtp93x-46-)"></g><g class="highcharts-markers highcharts-series-1 highcharts-scatter-series highcharts-color-1" data-z-index="0.1" opacity="1" transform="translate(39,10) scale(1 1)" clip-path="none"><path fill="#8b77e1" d="M 313 130 A 8 8 0 1 1 313.00799999866666 129.99999600000032 Z" stroke="#ffffff" stroke-width="0" opacity="1" class="highcharts-point highcharts-color-1"></path><path fill="#8b77e1" d="M 234 134 A 8 8 0 1 1 234.00799999866666 133.99999600000032 Z" stroke="#ffffff" stroke-width="0" opacity="1" class="highcharts-point highcharts-color-1"></path><path fill="#8b77e1" d="M 327 110 A 8 8 0 1 1 327.00799999866666 109.99999600000034 Z" stroke="#ffffff" stroke-width="0" opacity="1" class="highcharts-point highcharts-color-1"></path><path fill="#8b77e1" d="M 292 130 A 8 8 0 1 1 292.00799999866666 129.99999600000032 Z" stroke="#ffffff" stroke-width="0" opacity="1" class="highcharts-point highcharts-color-1"></path><path fill="#8b77e1" d="M 214 126 A 8 8 0 1 1 214.00799999866666 125.99999600000034 Z" stroke="#ffffff" stroke-width="0" opacity="1" class="highcharts-point highcharts-color-1"></path><path fill="#8b77e1" d="M 269 126 A 8 8 0 1 1 269.00799999866666 125.99999600000034 Z" stroke="#ffffff" stroke-width="0" opacity="1" class="highcharts-point highcharts-color-1"></path></g></g><text x="200" text-anchor="middle" class="highcharts-title" data-z-index="4" style="font-size: 1.2em; color: rgb(51, 51, 51); font-weight: bold; fill: rgb(51, 51, 51);" y="25"></text><text x="200" text-anchor="middle" class="highcharts-subtitle" data-z-index="4" style="color: rgb(102, 102, 102); font-size: 0.8em; fill: rgb(102, 102, 102);" y="24"></text><text x="10" text-anchor="start" class="highcharts-caption" data-z-index="4" style="color: rgb(102, 102, 102); font-size: 0.8em; fill: rgb(102, 102, 102);" y="237"></text><g class="highcharts-axis-labels highcharts-xaxis-labels" data-z-index="7"><text x="39" text-anchor="middle" transform="translate(0,0)" style="color: rgb(102, 102, 102); cursor: default; font-size: 0.8em; fill: rgb(102, 102, 102);" y="222" opacity="1">0</text><text x="156" text-anchor="middle" transform="translate(0,0)" style="color: rgb(102, 102, 102); cursor: default; font-size: 0.8em; fill: rgb(102, 102, 102);" y="222" opacity="1">5</text><text x="273" text-anchor="middle" transform="translate(0,0)" style="color: rgb(102, 102, 102); cursor: default; font-size: 0.8em; fill: rgb(102, 102, 102);" y="222" opacity="1">10</text><text x="382.875" text-anchor="middle" transform="translate(0,0)" style="color: rgb(102, 102, 102); cursor: default; font-size: 0.8em; fill: rgb(102, 102, 102);" y="222" opacity="1">15</text></g><g class="highcharts-axis-labels highcharts-yaxis-labels" data-z-index="7"><text x="24" text-anchor="end" transform="translate(0,0)" style="color: rgb(102, 102, 102); cursor: default; font-size: 0.8em; fill: rgb(102, 102, 102);" y="200" opacity="1">0</text><text x="24" text-anchor="end" transform="translate(0,0)" style="color: rgb(102, 102, 102); cursor: default; font-size: 0.8em; fill: rgb(102, 102, 102);" y="153" opacity="1">5</text><text x="24" text-anchor="end" transform="translate(0,0)" style="color: rgb(102, 102, 102); cursor: default; font-size: 0.8em; fill: rgb(102, 102, 102);" y="107" opacity="1">10</text><text x="24" text-anchor="end" transform="translate(0,0)" style="color: rgb(102, 102, 102); cursor: default; font-size: 0.8em; fill: rgb(102, 102, 102);" y="61" opacity="1">15</text><text x="24" text-anchor="end" transform="translate(0,0)" style="color: rgb(102, 102, 102); cursor: default; font-size: 0.8em; fill: rgb(102, 102, 102);" y="15" opacity="1">20</text></g></svg>