<?xml version="1.0" encoding="UTF-8"?>
<svg width="16px" height="40px" viewBox="0 0 16 40" version="1.1" xmlns="http://www.w3.org/2000/svg" xmlns:xlink="http://www.w3.org/1999/xlink">
    <title>编组 15</title>
    <defs>
        <linearGradient x1="6.4516129%" y1="3.22580645%" x2="48.3870968%" y2="45.1612903%" id="linearGradient-1">
            <stop stop-color="#00F0FF" offset="0%"></stop>
            <stop stop-color="#00F0FF" stop-opacity="0" offset="100%"></stop>
        </linearGradient>
        <linearGradient x1="6.4516129%" y1="96.7741935%" x2="48.3870968%" y2="54.8387097%" id="linearGradient-2">
            <stop stop-color="#00F0FF" offset="0%"></stop>
            <stop stop-color="#00F0FF" stop-opacity="0" offset="100%"></stop>
        </linearGradient>
    </defs>
    <g id="页面-1" stroke="none" stroke-width="1" fill="none" fill-rule="evenodd">
        <g id="1.0首页-全国范围" transform="translate(-1465, -537)">
            <g id="编组-15" transform="translate(1465.5, 537.5)">
                <path d="M3.5,0 L15,0 L15,39 L3.5,39 C1.57,39 0,37.433 0,35.5 L0,3.5 C0,1.567 1.57,0 3.5,0 Z" id="路径" stroke="#083E59" fill="#093056" fill-rule="nonzero"></path>
                <polygon id="路径" fill="#00F0FF" fill-rule="nonzero" opacity="0.2" points="10.5 20 3 25.629 3 14.371"></polygon>
                <polygon id="路径" fill="#00F0FF" fill-rule="nonzero" points="12.5 20 5 25.629 5 14.371"></polygon>
                <path d="M15.5,0 L3,0 C1.34,0 0,1.343 0,3 L0,15.5" id="路径" stroke="url(#linearGradient-1)"></path>
                <path d="M15.5,39 L3,39 C1.34,39 0,37.657 0,36 L0,23.5" id="路径" stroke="url(#linearGradient-2)"></path>
            </g>
        </g>
    </g>
</svg>