<?xml version="1.0" ?><svg xmlns="http://www.w3.org/2000/svg" xmlns:xlink="http://www.w3.org/1999/xlink" version="1.1" viewBox="0 0 32 32" style="enable-background:new 0 0 32 32;" xml:space="preserve"><style type="text/css">
	.st0{display:none;}
	.st1{display:inline;}
	.st2{fill:#CDF6F9;}
	.st3{fill:#FFFFFF;}
	.st4{fill:#1A83A8;}
</style><g id="Layer_1" class="st0"/><g id="Layer_2"/><g id="Layer_3"/><g id="Layer_4"/><g id="Layer_5"/><g id="Layer_6"/><g id="Layer_7"/><g id="Layer_8"/><g id="Layer_9"/><g id="Layer_10"/><g id="Layer_11"/><g id="Layer_12"/><g id="Layer_13"/><g id="Layer_14"/><g id="Layer_15"/><g id="Layer_16"/><g id="Layer_17"/><g id="Layer_18"><path class="st2" d="M3,9.866v12.268c0,0.302,0.169,0.578,0.438,0.715l12.197,6.217c0.229,0.117,0.5,0.117,0.729,0l12.197-6.217   C28.831,22.712,29,22.436,29,22.134V9.866c0-0.302-0.169-0.578-0.438-0.715L16.365,2.934c-0.229-0.117-0.5-0.117-0.729,0   L3.438,9.151C3.169,9.288,3,9.564,3,9.866z"/><path class="st4" d="M28.771,8.402L16.772,2.286c-0.483-0.244-1.06-0.244-1.545,0.001L3.23,8.401C2.656,8.693,2.3,9.274,2.3,9.919   v12.065c0,0.645,0.356,1.226,0.93,1.517l11.999,6.116c0.242,0.122,0.506,0.184,0.771,0.184c0.266,0,0.531-0.062,0.774-0.185   l11.996-6.114c0.574-0.292,0.931-0.873,0.931-1.518V9.919C29.7,9.274,29.344,8.693,28.771,8.402z M15.956,3.891l10.852,5.532   L16,14.933L5.188,9.42L15.956,3.891z M4.1,10.885l11,5.608v11.038l-11-5.608V10.885z M16.9,27.573V16.494l11-5.608v11.039   L16.9,27.573z"/><path class="st4" d="M25.734,19.396l-2.157,1.1c-0.443,0.226-0.619,0.768-0.393,1.211c0.159,0.312,0.475,0.491,0.802,0.491   c0.138,0,0.277-0.032,0.408-0.099l2.157-1.1c0.443-0.226,0.619-0.768,0.393-1.211C26.719,19.348,26.177,19.173,25.734,19.396z"/></g><g id="Layer_19"/><g id="Layer_20"/><g id="Layer_21"/><g id="Layer_22"/><g id="Layer_23"/><g id="Layer_24"/><g id="Layer_25"/><g id="Layer_26"/></svg>