<?xml version="1.0" encoding="UTF-8"?>
<svg width="19px" height="17px" viewBox="0 0 19 17" version="1.1" xmlns="http://www.w3.org/2000/svg" xmlns:xlink="http://www.w3.org/1999/xlink">
    <title>icon_风电</title>
    <g id="切图专用" stroke="none" stroke-width="1" fill="none" fill-rule="evenodd">
        <path d="M9.43070367,12.10375 C10.3930416,12.10375 11.1729804,11.3255908 11.1729804,10.3691592 C11.1729804,9.41084082 10.393999,8.63553419 9.43070367,8.63553419 C8.46740832,8.63553419 7.68842692,9.41178418 7.68842692,10.370125 C7.68842692,11.3255908 8.46740832,12.10375 9.43070367,12.10375 Z M12.2626326,10.715125 C12.1957236,10.6749463 12.1132865,10.6713434 12.0431836,10.7055342 C11.9730263,10.7367325 11.9233215,10.8016706 11.9111491,10.8780342 C11.8102279,11.4782876 11.4899019,12.018565 11.0134035,12.3922158 C10.9526765,12.440356 10.9195782,12.51575 10.9250539,12.5934658 C10.9307539,12.670125 10.9763536,12.7400908 11.0437959,12.7812842 C14.0362814,14.4219658 17.5721569,16.1766592 18.5848594,16.2025342 C18.6950738,16.1996592 18.8451434,16.1843408 18.9534651,16.0329092 C18.9838738,15.978852 18.9999046,15.9177793 19,15.855625 C18.9097579,15.2930908 18.0347898,14.6787842 16.7513609,13.682125 C15.3013305,12.6237442 13.8034828,11.6336833 12.2626326,10.715125 Z M8.36341315,8.1397573 C8.30066114,8.09532693 8.26326472,8.02287298 8.26316673,7.94553419 C8.30780909,5.12709084 8.54531537,2.19553419 8.88348405,0.855784184 C9.032663,0.42453419 9.03074819,0.0948750028 9.46394609,0 C9.90095141,0.0958408241 9.89522916,0.42359083 10.0453433,0.855784184 C10.1612576,1.30524999 10.2619422,1.92434084 10.3465067,2.66415918 C10.5203558,4.13521582 10.6390756,6.07009082 10.6666407,7.94459083 C10.6667453,8.02243492 10.6291551,8.09542404 10.5659556,8.14009082 C10.5276759,8.16922909 10.4808929,8.18472858 10.4329414,8.18418869 C10.4043706,8.18442638 10.3760085,8.17922853 10.3493567,8.16884082 C10.0666628,8.05929574 9.76676823,8.00184259 9.46394609,7.99921582 C9.15423276,7.99921582 8.85785645,8.06340917 8.57855778,8.16884082 C8.50642377,8.19503713 8.42616516,8.18418869 8.36341315,8.1397573 Z M7.94396827,12.5532158 C7.93557391,12.631116 7.89023452,12.7000653 7.82235403,12.7381592 C4.85079806,14.3673633 1.45074223,15.962 0.434254568,15.985 C0.315490293,15.982125 0.16065589,15.9773408 0.0495064299,15.8125 C0.0162719297,15.75952 -0.000907296969,15.6979048 3.69322912e-05,15.6352158 C0.0903413842,15.0697842 0.940572439,14.492875 2.2002886,13.5393408 C3.45143255,12.635625 5.09113205,11.571875 6.66051706,10.6422842 C6.72691637,10.6015163 6.80919598,10.597195 6.87943293,10.6307869 C6.94966988,10.6643788 6.99843266,10.7313731 7.00917278,10.8090342 C7.09393485,11.4115365 7.39764454,11.9607578 7.86131868,12.3500342 C7.92021096,12.3989092 7.95156082,12.4765342 7.94396827,12.5532158 Z" id="icon_风电" fill="#00F1FE" fill-rule="nonzero"></path>
    </g>
</svg>