<?xml version="1.0" encoding="UTF-8"?>
<svg xmlns="http://www.w3.org/2000/svg" width="19px" height="17px" viewBox="0 0 22 17.97" version="1.1" xmlns:xlink="http://www.w3.org/1999/xlink">
<defs><style>.cls-1{fill:#00faff;}</style></defs>
<g id="图层_2" data-name="图层 2"><g id="图层_1-2" data-name="图层 1"><path class="cls-1" d="M21.91,11.06C21.28,8.15,20.66,5.24,20,2.33A3,3,0,0,0,17.13,0H4.88A3,3,0,0,0,2,2.37C1.55,4.25,1.14,6.12.74,8,.49,9.16.2,10.33,0,11.51a2.69,2.69,0,0,0,2.87,3.24H9.7l-.56,1.48H5.26a.87.87,0,1,0,0,1.74H16.74a.88.88,0,0,0,.86-.89.86.86,0,0,0-.86-.85H12.86l-.56-1.48h6.87a2.58,2.58,0,0,0,2.66-1.83A3.46,3.46,0,0,0,21.91,11.06Zm-3,1.51H3.11a1.16,1.16,0,0,1-1.28-1.49c.26-1.54.55-3.08.84-4.62.24-1.34.49-2.67.72-4A1.29,1.29,0,0,1,4.8,1.26H17.17a1.27,1.27,0,0,1,1.42,1.21L19.85,9.3c.11.6.21,1.2.31,1.8a1.16,1.16,0,0,1-1.26,1.47Z"/><path class="cls-1" d="M18.48,7.69a1.23,1.23,0,0,0-1.35-1.13c-1.47,0-2.95,0-4.43,0-.82,0-1.18.36-1.17,1.19s0,1.65,0,2.48a1.11,1.11,0,0,0,1.23,1.21c.84,0,1.68,0,2.52,0s1.76,0,2.63,0a.88.88,0,0,0,1-1.06c-.14-.9-.31-1.8-.43-2.7Zm-8.82-1h-5a1.05,1.05,0,0,0-1,.78c-.18,1-.34,2.09-.48,3.14a.81.81,0,0,0,.87.94H9.49a1,1,0,0,0,1-.89q.06-1.56.06-3.12A.85.85,0,0,0,9.66,6.67ZM4.77,5.84h4.6c.78,0,1.11-.32,1.13-1.1s0-1.26,0-1.88a.82.82,0,0,0-.93-.93q-2.13,0-4.26,0a1,1,0,0,0-1.05.94c-.1.66-.2,1.33-.31,2A.75.75,0,0,0,4.77,5.84Zm7.67-.06H17.1c.6,0,.91-.32.84-.9s-.22-1.45-.34-2.17a.88.88,0,0,0-.91-.83c-1.48,0-3,0-4.46,0a.77.77,0,0,0-.82.87c0,.68,0,1.36,0,2.05A.88.88,0,0,0,12.44,5.78Z"/></g></g></svg>