<svg id="e4V8Dq7JgQG1" xmlns="http://www.w3.org/2000/svg" xmlns:xlink="http://www.w3.org/1999/xlink" viewBox="0 0 90 82" shape-rendering="geometricPrecision" text-rendering="geometricPrecision"><style><![CDATA[#e4V8Dq7JgQG8 {animation: e4V8Dq7JgQG8_c_o 3000ms linear infinite normal forwards}@keyframes e4V8Dq7JgQG8_c_o { 0% {opacity: 0.5} 23.333333% {opacity: 1} 46.666667% {opacity: 0.5} 73.333333% {opacity: 1} 100% {opacity: 0.5}} #e4V8Dq7JgQG64_tr {animation: e4V8Dq7JgQG64_tr__tr 3000ms linear infinite normal forwards}@keyframes e4V8Dq7JgQG64_tr__tr { 0% {transform: translate(44.699999px,53.405755px) rotate(0deg)} 100% {transform: translate(44.699999px,53.405755px) rotate(360deg)}} #e4V8Dq7JgQG81_tr {animation: e4V8Dq7JgQG81_tr__tr 3000ms linear infinite normal forwards}@keyframes e4V8Dq7JgQG81_tr__tr { 0% {transform: translate(44.75px,30.917415px) rotate(0deg)} 100% {transform: translate(44.75px,30.917415px) rotate(-360deg)}} #e4V8Dq7JgQG111_tr {animation: e4V8Dq7JgQG111_tr__tr 3000ms linear infinite normal forwards}@keyframes e4V8Dq7JgQG111_tr__tr { 0% {transform: translate(43.6px,72.4px) rotate(0deg)} 100% {transform: translate(43.6px,72.4px) rotate(-360deg)}}]]></style><defs><linearGradient id="e4V8Dq7JgQG6-fill" x1="45" y1="0.89" x2="45" y2="81.1092" spreadMethod="pad" gradientUnits="userSpaceOnUse" gradientTransform="matrix(1 0 0 1 0 0)"><stop id="e4V8Dq7JgQG6-fill-0" offset="0%" stop-color="rgba(22,247,247,0)"/><stop id="e4V8Dq7JgQG6-fill-1" offset="100%" stop-color="rgba(22,247,247,0.2)"/></linearGradient><linearGradient id="e4V8Dq7JgQG7-fill" x1="44.4474" y1="21.0788" x2="44.4474" y2="75.311" spreadMethod="pad" gradientUnits="userSpaceOnUse" gradientTransform="matrix(1 0 0 1 0 0)"><stop id="e4V8Dq7JgQG7-fill-0" offset="0%" stop-color="rgba(22,247,247,0)"/><stop id="e4V8Dq7JgQG7-fill-1" offset="100%" stop-color="rgba(22,247,247,0.2)"/></linearGradient><linearGradient id="e4V8Dq7JgQG8-fill" x1="44.4474" y1="21.0788" x2="44.4474" y2="75.311" spreadMethod="pad" gradientUnits="userSpaceOnUse" gradientTransform="matrix(1 0 0 1 0 0)"><stop id="e4V8Dq7JgQG8-fill-0" offset="0%" stop-color="rgba(22,247,247,0)"/><stop id="e4V8Dq7JgQG8-fill-1" offset="100%" stop-color="rgba(21,227,123,0.4)"/></linearGradient><linearGradient id="e4V8Dq7JgQG10-fill" x1="24.3957" y1="51.5438" x2="30.1037" y2="51.5438" spreadMethod="pad" gradientUnits="userSpaceOnUse" gradientTransform="matrix(1 0 0 1 0 0)"><stop id="e4V8Dq7JgQG10-fill-0" offset="0%" stop-color="rgba(22,247,247,0.4)"/><stop id="e4V8Dq7JgQG10-fill-1" offset="100%" stop-color="rgba(22,247,247,0.8)"/></linearGradient><linearGradient id="e4V8Dq7JgQG10-stroke" x1="24.278" y1="51.5349" x2="30.2518" y2="51.5349" spreadMethod="pad" gradientUnits="userSpaceOnUse" gradientTransform="matrix(1 0 0 1 0 0)"><stop id="e4V8Dq7JgQG10-stroke-0" offset="0%" stop-color="rgba(22,247,247,0.2)"/><stop id="e4V8Dq7JgQG10-stroke-1" offset="100%" stop-color="rgb(22,247,247)"/></linearGradient><linearGradient id="e4V8Dq7JgQG11-fill" x1="31.7898" y1="42.8558" x2="31.7898" y2="44.5134" spreadMethod="pad" gradientUnits="userSpaceOnUse" gradientTransform="matrix(1 0 0 1 0 0)"><stop id="e4V8Dq7JgQG11-fill-0" offset="0%" stop-color="rgba(22,247,247,0.6)"/><stop id="e4V8Dq7JgQG11-fill-1" offset="100%" stop-color="rgba(22,247,247,0.8)"/></linearGradient><linearGradient id="e4V8Dq7JgQG12-fill" x1="33.4712" y1="45.5075" x2="32.4739" y2="43.7801" spreadMethod="pad" gradientUnits="userSpaceOnUse" gradientTransform="matrix(1 0 0 1 0 0)"><stop id="e4V8Dq7JgQG12-fill-0" offset="0%" stop-color="rgba(22,247,247,0.6)"/><stop id="e4V8Dq7JgQG12-fill-1" offset="100%" stop-color="rgba(22,247,247,0.8)"/></linearGradient><linearGradient id="e4V8Dq7JgQG13-fill" x1="31.422" y1="44.454" x2="32.292" y2="44.9563" spreadMethod="pad" gradientUnits="userSpaceOnUse" gradientTransform="matrix(1 0 0 1 0 0)"><stop id="e4V8Dq7JgQG13-fill-0" offset="0%" stop-color="rgba(22,247,247,0.6)"/><stop id="e4V8Dq7JgQG13-fill-1" offset="100%" stop-color="rgba(22,247,247,0.8)"/></linearGradient><linearGradient id="e4V8Dq7JgQG15-fill" x1="29.930719" y1="47.016376" x2="31.4278" y2="44.423135" spreadMethod="pad" gradientUnits="userSpaceOnUse" gradientTransform="matrix(1 0 0 1 0 0)"><stop id="e4V8Dq7JgQG15-fill-0" offset="0%" stop-color="rgba(22,247,247,0.6)"/><stop id="e4V8Dq7JgQG15-fill-1" offset="100%" stop-color="rgb(22,247,247)"/></linearGradient><linearGradient id="e4V8Dq7JgQG17-fill" x1="29.9184" y1="46.4585" x2="31.5777" y2="44.7992" spreadMethod="pad" gradientUnits="userSpaceOnUse" gradientTransform="matrix(1 0 0 1 0 0)"><stop id="e4V8Dq7JgQG17-fill-0" offset="0%" stop-color="rgba(22,247,247,0)"/><stop id="e4V8Dq7JgQG17-fill-1" offset="100%" stop-color="rgb(22,247,247)"/></linearGradient><linearGradient id="e4V8Dq7JgQG18-fill" x1="22.5355" y1="39.1129" x2="30.1344" y2="39.1129" spreadMethod="pad" gradientUnits="userSpaceOnUse" gradientTransform="matrix(1 0 0 1 0 0)"><stop id="e4V8Dq7JgQG18-fill-0" offset="0%" stop-color="rgba(22,247,247,0.4)"/><stop id="e4V8Dq7JgQG18-fill-1" offset="100%" stop-color="rgba(22,247,247,0.8)"/></linearGradient><linearGradient id="e4V8Dq7JgQG18-stroke" x1="22.4103" y1="39.0984" x2="30.2369" y2="39.0984" spreadMethod="pad" gradientUnits="userSpaceOnUse" gradientTransform="matrix(1 0 0 1 0 0)"><stop id="e4V8Dq7JgQG18-stroke-0" offset="0%" stop-color="rgba(22,247,247,0.2)"/><stop id="e4V8Dq7JgQG18-stroke-1" offset="100%" stop-color="rgb(22,247,247)"/></linearGradient><linearGradient id="e4V8Dq7JgQG20-fill" x1="45.0732" y1="46.5956" x2="31.5522" y2="46.5956" spreadMethod="pad" gradientUnits="userSpaceOnUse" gradientTransform="matrix(1 0 0 1 0 0)"><stop id="e4V8Dq7JgQG20-fill-0" offset="0%" stop-color="rgba(22,247,247,0.4)"/><stop id="e4V8Dq7JgQG20-fill-1" offset="100%" stop-color="rgba(22,247,247,0.8)"/></linearGradient><linearGradient id="e4V8Dq7JgQG20-stroke" x1="45.1667" y1="46.5946" x2="31.4586" y2="46.5946" spreadMethod="pad" gradientUnits="userSpaceOnUse" gradientTransform="matrix(1 0 0 1 0 0)"><stop id="e4V8Dq7JgQG20-stroke-0" offset="0%" stop-color="rgba(22,247,247,0.2)"/><stop id="e4V8Dq7JgQG20-stroke-1" offset="100%" stop-color="rgb(22,247,247)"/></linearGradient><linearGradient id="e4V8Dq7JgQG21-fill" x1="36.746" y1="45.8584" x2="31.5522" y2="45.8584" spreadMethod="pad" gradientUnits="userSpaceOnUse" gradientTransform="matrix(1 0 0 1 0 0)"><stop id="e4V8Dq7JgQG21-fill-0" offset="0%" stop-color="rgba(22,247,247,0)"/><stop id="e4V8Dq7JgQG21-fill-1" offset="100%" stop-color="rgba(22,247,247,0.8)"/></linearGradient><linearGradient id="e4V8Dq7JgQG25-fill" x1="29.219739" y1="46.680961" x2="31.212752" y2="45.530261" spreadMethod="pad" gradientUnits="userSpaceOnUse" gradientTransform="matrix(1 0 0 1 0 0)"><stop id="e4V8Dq7JgQG25-fill-0" offset="0%" stop-color="rgba(22,247,247,0.9)"/><stop id="e4V8Dq7JgQG25-fill-1" offset="100%" stop-color="rgb(22,247,247)"/></linearGradient><linearGradient id="e4V8Dq7JgQG26-stroke" x1="-0.673" y1="0.3481" x2="0.6986" y2="-0.4437" spreadMethod="pad" gradientUnits="userSpaceOnUse" gradientTransform="matrix(1 0 0 1 0 0)"><stop id="e4V8Dq7JgQG26-stroke-0" offset="0%" stop-color="rgba(22,247,247,0)"/><stop id="e4V8Dq7JgQG26-stroke-1" offset="100%" stop-color="rgb(22,247,247)"/></linearGradient><linearGradient id="e4V8Dq7JgQG29-fill" x1="26.9266" y1="53.7958" x2="36.3842" y2="59.2562" spreadMethod="pad" gradientUnits="userSpaceOnUse" gradientTransform="matrix(1 0 0 1 0 0)"><stop id="e4V8Dq7JgQG29-fill-0" offset="0%" stop-color="rgba(22,247,247,0.7)"/><stop id="e4V8Dq7JgQG29-fill-1" offset="100%" stop-color="rgb(22,247,247)"/></linearGradient><linearGradient id="e4V8Dq7JgQG31-fill" x1="37.6569" y1="24.9792" x2="37.6569" y2="28.1633" spreadMethod="pad" gradientUnits="userSpaceOnUse" gradientTransform="matrix(1 0 0 1 0 0)"><stop id="e4V8Dq7JgQG31-fill-0" offset="0%" stop-color="rgba(22,247,247,0.6)"/><stop id="e4V8Dq7JgQG31-fill-1" offset="100%" stop-color="rgba(22,247,247,0.8)"/></linearGradient><linearGradient id="e4V8Dq7JgQG32-fill" x1="40.8867" y1="30.0729" x2="38.971" y2="26.7548" spreadMethod="pad" gradientUnits="userSpaceOnUse" gradientTransform="matrix(1 0 0 1 0 0)"><stop id="e4V8Dq7JgQG32-fill-0" offset="0%" stop-color="rgba(22,247,247,0.6)"/><stop id="e4V8Dq7JgQG32-fill-1" offset="100%" stop-color="rgba(22,247,247,0.8)"/></linearGradient><linearGradient id="e4V8Dq7JgQG33-fill" x1="36.9503" y1="28.0493" x2="38.6216" y2="29.0142" spreadMethod="pad" gradientUnits="userSpaceOnUse" gradientTransform="matrix(1 0 0 1 0 0)"><stop id="e4V8Dq7JgQG33-fill-0" offset="0%" stop-color="rgba(22,247,247,0.6)"/><stop id="e4V8Dq7JgQG33-fill-1" offset="100%" stop-color="rgba(22,247,247,0.8)"/></linearGradient><linearGradient id="e4V8Dq7JgQG35-fill" x1="34.084518" y1="32.969587" x2="36.960241" y2="27.988264" spreadMethod="pad" gradientUnits="userSpaceOnUse" gradientTransform="matrix(1 0 0 1 0 0)"><stop id="e4V8Dq7JgQG35-fill-0" offset="0%" stop-color="rgba(22,247,247,0.6)"/><stop id="e4V8Dq7JgQG35-fill-1" offset="100%" stop-color="rgb(22,247,247)"/></linearGradient><linearGradient id="e4V8Dq7JgQG37-fill" x1="34.0724" y1="31.8743" x2="37.2175" y2="28.7292" spreadMethod="pad" gradientUnits="userSpaceOnUse" gradientTransform="matrix(1 0 0 1 0 0)"><stop id="e4V8Dq7JgQG37-fill-0" offset="0%" stop-color="rgba(22,247,247,0)"/><stop id="e4V8Dq7JgQG37-fill-1" offset="100%" stop-color="rgb(22,247,247)"/></linearGradient><linearGradient id="e4V8Dq7JgQG39-fill" x1="23.4536" y1="41.668" x2="34.4181" y2="41.668" spreadMethod="pad" gradientUnits="userSpaceOnUse" gradientTransform="matrix(1 0 0 1 0 0)"><stop id="e4V8Dq7JgQG39-fill-0" offset="0%" stop-color="rgba(22,247,247,0.4)"/><stop id="e4V8Dq7JgQG39-fill-1" offset="100%" stop-color="rgba(22,247,247,0.8)"/></linearGradient><linearGradient id="e4V8Dq7JgQG39-stroke" x1="23.3359" y1="41.6591" x2="34.5662" y2="41.6591" spreadMethod="pad" gradientUnits="userSpaceOnUse" gradientTransform="matrix(1 0 0 1 0 0)"><stop id="e4V8Dq7JgQG39-stroke-0" offset="0%" stop-color="rgba(22,247,247,0.2)"/><stop id="e4V8Dq7JgQG39-stroke-1" offset="100%" stop-color="rgb(22,247,247)"/></linearGradient><linearGradient id="e4V8Dq7JgQG41-fill" x1="19.8804" y1="17.7896" x2="34.477" y2="17.7896" spreadMethod="pad" gradientUnits="userSpaceOnUse" gradientTransform="matrix(1 0 0 1 0 0)"><stop id="e4V8Dq7JgQG41-fill-0" offset="0%" stop-color="rgba(22,247,247,0.4)"/><stop id="e4V8Dq7JgQG41-fill-1" offset="100%" stop-color="rgba(22,247,247,0.8)"/></linearGradient><linearGradient id="e4V8Dq7JgQG41-stroke" x1="19.7552" y1="17.7751" x2="34.5795" y2="17.7751" spreadMethod="pad" gradientUnits="userSpaceOnUse" gradientTransform="matrix(1 0 0 1 0 0)"><stop id="e4V8Dq7JgQG41-stroke-0" offset="0%" stop-color="rgba(22,247,247,0.2)"/><stop id="e4V8Dq7JgQG41-stroke-1" offset="100%" stop-color="rgb(22,247,247)"/></linearGradient><linearGradient id="e4V8Dq7JgQG45-fill" x1="32.727374" y1="32.330204" x2="36.555614" y2="30.119904" spreadMethod="pad" gradientUnits="userSpaceOnUse" gradientTransform="matrix(1 0 0 1 0 0)"><stop id="e4V8Dq7JgQG45-fill-0" offset="0%" stop-color="rgba(22,247,247,0.9)"/><stop id="e4V8Dq7JgQG45-fill-1" offset="100%" stop-color="rgb(22,247,247)"/></linearGradient><linearGradient id="e4V8Dq7JgQG46-stroke" x1="-1.3362" y1="0.7389" x2="1.2388" y2="-0.7478" spreadMethod="pad" gradientUnits="userSpaceOnUse" gradientTransform="matrix(1 0 0 1 0 0)"><stop id="e4V8Dq7JgQG46-stroke-0" offset="0%" stop-color="rgba(22,247,247,0)"/><stop id="e4V8Dq7JgQG46-stroke-1" offset="100%" stop-color="rgb(22,247,247)"/></linearGradient><linearGradient id="e4V8Dq7JgQG49-fill" x1="63.1729" y1="32.1631" x2="37.2005" y2="32.1631" spreadMethod="pad" gradientUnits="userSpaceOnUse" gradientTransform="matrix(1 0 0 1 0 0)"><stop id="e4V8Dq7JgQG49-fill-0" offset="0%" stop-color="rgba(22,247,247,0.4)"/><stop id="e4V8Dq7JgQG49-fill-1" offset="100%" stop-color="rgba(22,247,247,0.8)"/></linearGradient><linearGradient id="e4V8Dq7JgQG49-stroke" x1="63.2665" y1="32.162" x2="37.1069" y2="32.162" spreadMethod="pad" gradientUnits="userSpaceOnUse" gradientTransform="matrix(1 0 0 1 0 0)"><stop id="e4V8Dq7JgQG49-stroke-0" offset="0%" stop-color="rgba(22,247,247,0.2)"/><stop id="e4V8Dq7JgQG49-stroke-1" offset="100%" stop-color="rgb(22,247,247)"/></linearGradient><linearGradient id="e4V8Dq7JgQG50-fill" x1="47.1772" y1="30.747" x2="37.2004" y2="30.747" spreadMethod="pad" gradientUnits="userSpaceOnUse" gradientTransform="matrix(1 0 0 1 0 0)"><stop id="e4V8Dq7JgQG50-fill-0" offset="0%" stop-color="rgba(22,247,247,0)"/><stop id="e4V8Dq7JgQG50-fill-1" offset="100%" stop-color="rgba(22,247,247,0.8)"/></linearGradient><linearGradient id="e4V8Dq7JgQG53-fill" x1="28.3151" y1="45.994" x2="46.4823" y2="56.4828" spreadMethod="pad" gradientUnits="userSpaceOnUse" gradientTransform="matrix(1 0 0 1 0 0)"><stop id="e4V8Dq7JgQG53-fill-0" offset="0%" stop-color="rgba(22,247,247,0.7)"/><stop id="e4V8Dq7JgQG53-fill-1" offset="100%" stop-color="rgb(22,247,247)"/></linearGradient><linearGradient id="e4V8Dq7JgQG92-fill" x1="0.0405" y1="-3.5364" x2="0.0405" y2="3.6314" spreadMethod="pad" gradientUnits="userSpaceOnUse" gradientTransform="matrix(1 0 0 1 0 0)"><stop id="e4V8Dq7JgQG92-fill-0" offset="0%" stop-color="rgba(186,196,87,0.2)"/><stop id="e4V8Dq7JgQG92-fill-1" offset="100%" stop-color="rgba(22,247,247,0.1)"/></linearGradient><linearGradient id="e4V8Dq7JgQG93-fill" x1="0.0405" y1="-3.5483" x2="0.0405" y2="3.6195" spreadMethod="pad" gradientUnits="userSpaceOnUse" gradientTransform="matrix(1 0 0 1 0 0)"><stop id="e4V8Dq7JgQG93-fill-0" offset="0%" stop-color="rgba(186,196,87,0.2)"/><stop id="e4V8Dq7JgQG93-fill-1" offset="100%" stop-color="rgba(22,247,247,0.1)"/></linearGradient><linearGradient id="e4V8Dq7JgQG95-fill" x1="41.5361" y1="42.013" x2="41.5361" y2="42.4475" spreadMethod="pad" gradientUnits="userSpaceOnUse" gradientTransform="matrix(1 0 0 1 0 0)"><stop id="e4V8Dq7JgQG95-fill-0" offset="0%" stop-color="rgba(186,196,87,0.2)"/><stop id="e4V8Dq7JgQG95-fill-1" offset="100%" stop-color="rgba(22,247,247,0.1)"/></linearGradient><linearGradient id="e4V8Dq7JgQG96-fill" x1="50.9405" y1="42.4475" x2="50.9405" y2="67.2356" spreadMethod="pad" gradientUnits="userSpaceOnUse" gradientTransform="matrix(1 0 0 1 0 0)"><stop id="e4V8Dq7JgQG96-fill-0" offset="0%" stop-color="rgba(186,196,87,0.2)"/><stop id="e4V8Dq7JgQG96-fill-1" offset="100%" stop-color="rgba(22,247,247,0.1)"/></linearGradient><linearGradient id="e4V8Dq7JgQG97-fill" x1="60.345" y1="42.013" x2="60.345" y2="42.4475" spreadMethod="pad" gradientUnits="userSpaceOnUse" gradientTransform="matrix(1 0 0 1 0 0)"><stop id="e4V8Dq7JgQG97-fill-0" offset="0%" stop-color="rgba(186,196,87,0.2)"/><stop id="e4V8Dq7JgQG97-fill-1" offset="100%" stop-color="rgba(22,247,247,0.1)"/></linearGradient><linearGradient id="e4V8Dq7JgQG99-fill" x1="50.9405" y1="41.2556" x2="50.9405" y2="68.4275" spreadMethod="pad" gradientUnits="userSpaceOnUse" gradientTransform="matrix(1 0 0 1 0 0)"><stop id="e4V8Dq7JgQG99-fill-0" offset="0%" stop-color="rgb(179,143,42)"/><stop id="e4V8Dq7JgQG99-fill-1" offset="100%" stop-color="rgb(22,247,247)"/></linearGradient><linearGradient id="e4V8Dq7JgQG100-fill" x1="0.0405" y1="-3.1444" x2="0.0405" y2="3.0788" spreadMethod="pad" gradientUnits="userSpaceOnUse" gradientTransform="matrix(1 0 0 1 0 0)"><stop id="e4V8Dq7JgQG100-fill-0" offset="0%" stop-color="rgb(166,153,58)"/><stop id="e4V8Dq7JgQG100-fill-1" offset="100%" stop-color="rgb(229,215,143)"/></linearGradient><linearGradient id="e4V8Dq7JgQG101-fill" x1="-8.1327" y1="0.0159" x2="8.2137" y2="0.0159" spreadMethod="pad" gradientUnits="userSpaceOnUse" gradientTransform="matrix(1 0 0 1 0 0)"><stop id="e4V8Dq7JgQG101-fill-0" offset="0%" stop-color="rgb(42,235,221)"/><stop id="e4V8Dq7JgQG101-fill-1" offset="100%" stop-color="rgb(22,247,247)"/></linearGradient></defs><g id="e4V8Dq7JgQG2"><g id="e4V8Dq7JgQG3"><path id="e4V8Dq7JgQG4" d="M64.6,67.3C68,68.7,70,70.5,70,72.5C70,77.3,58.2,81.1,43.6,81.1C29,81.1,17.2,77.3,17.2,72.5C17.2,70.5,19.4,68.6,23,67.1" opacity="0.5" fill="none" stroke="rgb(22,247,247)" stroke-width="1" stroke-miterlimit="10"/><ellipse id="e4V8Dq7JgQG5" rx="21.1" ry="6.9" transform="matrix(1 0 0 1 43.8 68.4)" fill="rgba(22,247,247,0.15)" stroke="rgb(22,247,247)" stroke-width="1" stroke-miterlimit="10"/><path id="e4V8Dq7JgQG6" d="M0.4,0.9L17.4,72.5C17.4,77.3,29.2,81.1,43.8,81.1C58.4,81.1,70.2,77.2,70.2,72.5L89.6,0.9L0.4,0.9Z" fill="url(#e4V8Dq7JgQG6-fill)" stroke="none" stroke-width="1"/><path id="e4V8Dq7JgQG7" d="M11.4,21.1L22.3,68.5C22.3,72.3,31.7,75.4,43.4,75.4C55.1,75.4,64.5,72.3,64.5,68.5L77.5,21.1L11.4,21.1Z" fill="url(#e4V8Dq7JgQG7-fill)" stroke="none" stroke-width="1"/><path id="e4V8Dq7JgQG8" d="M11.4,21.1L22.3,68.5C22.3,72.3,31.7,75.4,43.4,75.4C55.1,75.4,64.5,72.3,64.5,68.5L77.5,21.1L11.4,21.1Z" opacity="0.5" fill="url(#e4V8Dq7JgQG8-fill)" stroke="none" stroke-width="1"/></g><g id="e4V8Dq7JgQG9"><path id="e4V8Dq7JgQG10" d="M29.2,46.8L27.4,48.5L24.3,56.1L24.7,56.3L30,47.4C30.1,47.4,29.5,47.3,29.2,46.8Z" fill="url(#e4V8Dq7JgQG10-fill)" stroke="url(#e4V8Dq7JgQG10-stroke)" stroke-width="0.1871" stroke-miterlimit="10"/><polygon id="e4V8Dq7JgQG11" points="31.6,42.9 29.9,44.2 32.1,44.5 33.7,43.1" fill="url(#e4V8Dq7JgQG11-fill)" stroke="none" stroke-width="1"/><path id="e4V8Dq7JgQG12" d="M33.7,43.1L33.8,43.3L33.8,44.3C33.8,44.3,33.8,44.8,33.5,45.2C33.3,45.5,32.6,46.1,32.6,46.1L32.2,46.1L32.2,44.6L33.7,43.1Z" fill="url(#e4V8Dq7JgQG12-fill)" stroke="none" stroke-width="1"/><path id="e4V8Dq7JgQG13" d="M31.4,44.4L32.1,44.5L32.1,45.2C32.1,45.2,32,44.8,31.4,44.4Z" fill="url(#e4V8Dq7JgQG13-fill)" stroke="none" stroke-width="1"/><g id="e4V8Dq7JgQG14"><path id="e4V8Dq7JgQG15" d="M32.1,46.5C31.7,47.2,30.7,47.4,29.9,47C29.1,46.5,28.8,45.6,29.2,44.9C29.6,44.2,30.6,44,31.4,44.4C32.2,44.9,32.5,45.8,32.1,46.5Z" opacity="0.8" fill="url(#e4V8Dq7JgQG15-fill)" stroke="none" stroke-width="1"/><g id="e4V8Dq7JgQG16" opacity="0.5"><path id="e4V8Dq7JgQG17" d="M30.7,47.2C31.2,47.2,31.7,47,31.9,46.6C32.1,46.2,32.1,45.7,31.9,45.3C31.5,44.5,30.3,44.1,29.5,44.6C29.9,44.3,30.4,44.3,30.9,44.4C31.4,44.5,31.8,44.8,32,45.3C32.2,45.7,32.3,46.3,32,46.7C31.7,47.1,31.2,47.3,30.7,47.2Z" fill="url(#e4V8Dq7JgQG17-fill)" stroke="none" stroke-width="1"/></g></g><path id="e4V8Dq7JgQG18" d="M30.1,44.8C30.1,44.8,29.6,45.3,29.1,45.3L22.5,33.3L23,33L29.4,41.7L30.1,44.6L30.1,44.8Z" fill="url(#e4V8Dq7JgQG18-fill)" stroke="url(#e4V8Dq7JgQG18-stroke)" stroke-width="0.1871" stroke-miterlimit="10"/><g id="e4V8Dq7JgQG19"><path id="e4V8Dq7JgQG20" d="M31.8,45.6C31.8,45.6,31.6,45.7,31.6,46C31.6,46.3,31.7,46.7,31.7,46.7C31.7,46.7,33.4,47,34.5,47.5L45.2,47.6L45.2,47.1L31.8,45.6Z" fill="url(#e4V8Dq7JgQG20-fill)" stroke="url(#e4V8Dq7JgQG20-stroke)" stroke-width="0.1871" stroke-miterlimit="10"/><polygon id="e4V8Dq7JgQG21" points="31.6,46.2 36.7,46.2 31.7,45.6" fill="url(#e4V8Dq7JgQG21-fill)" stroke="none" stroke-width="1"/></g><g id="e4V8Dq7JgQG22"><path id="e4V8Dq7JgQG23" d="M30.2,44.7C30.3,44.7,30.3,44.8,30.3,44.9C30.3,45,30.2,45,30.2,45.1C30.1,45.2,30,45.3,29.9,45.3C29.7,45.4,29.4,45.5,29.2,45.4C29.4,45.4,29.6,45.3,29.8,45.2C29.8,45,30,45,30,44.9C30.1,44.8,30.2,44.8,30.2,44.7Z" fill="rgb(22,247,247)" stroke="none" stroke-width="1"/></g><g id="e4V8Dq7JgQG24"><path id="e4V8Dq7JgQG25" d="M31.2,45.5C31.5,46.1,31.4,46.8,30.8,47.2C30.2,47.5,29.5,47.3,29.2,46.7C28.9,46.1,29,45.4,29.6,45C30.2,44.7,30.9,44.9,31.2,45.5Z" opacity="0.8" fill="url(#e4V8Dq7JgQG25-fill)" stroke="none" stroke-width="1"/><ellipse id="e4V8Dq7JgQG26" rx="0.8" ry="0.8" transform="matrix(0.866 -0.5 0.5 0.866 29.9248 46.3988)" opacity="0.7" fill="none" stroke="url(#e4V8Dq7JgQG26-stroke)" stroke-width="0.074834" stroke-miterlimit="10"/></g><g id="e4V8Dq7JgQG27"><path id="e4V8Dq7JgQG28" d="M31.9,45.5C31.7,45.5,31.6,45.7,31.5,45.9L31.5,45.9C31.5,46.1,31.5,46.2,31.5,46.4C31.5,46.5,31.5,46.6,31.5,46.6C31.5,46.7,31.5,46.8,31.6,46.8C31.5,46.8,31.4,46.7,31.4,46.6C31.4,46.5,31.4,46.4,31.3,46.3C31.3,46.1,31.3,46,31.3,45.8L31.3,45.8C31.3,45.7,31.4,45.6,31.5,45.5C31.7,45.4,31.8,45.4,31.9,45.5Z" fill="rgb(22,247,247)" stroke="none" stroke-width="1"/></g><path id="e4V8Dq7JgQG29" d="M31.9,46.8C31.7,47,31.4,47.1,31.4,47.1C31.4,47.1,31,47.3,30.7,47.2L30.3,65.7C31.2,66.2,32.7,65.7,32.7,65.7L32.3,46.9C32.2,46.9,32,46.8,31.9,46.8Z" fill="url(#e4V8Dq7JgQG29-fill)" stroke="none" stroke-width="1"/></g><g id="e4V8Dq7JgQG30"><polygon id="e4V8Dq7JgQG31" points="37.3,25 34,27.6 38.3,28.2 41.3,25.4" fill="url(#e4V8Dq7JgQG31-fill)" stroke="none" stroke-width="1"/><path id="e4V8Dq7JgQG32" d="M41.3,25.4L41.4,25.8L41.4,27.7C41.4,27.7,41.3,28.7,40.9,29.3C40.5,29.9,39.2,31,39.2,31L38.4,31L38.3,28.1L41.3,25.4Z" fill="url(#e4V8Dq7JgQG32-fill)" stroke="none" stroke-width="1"/><path id="e4V8Dq7JgQG33" d="M37,28L38.3,28.2L38.3,29.6C38.3,29.5,38,28.6,37,28Z" fill="url(#e4V8Dq7JgQG33-fill)" stroke="none" stroke-width="1"/><g id="e4V8Dq7JgQG34"><path id="e4V8Dq7JgQG35" d="M38.2,32C37.4,33.4,35.5,33.8,34,32.9C32.5,32,31.9,30.2,32.7,28.8C33.5,27.4,35.4,27,36.9,27.9C38.5,28.9,39,30.7,38.2,32Z" opacity="0.8" fill="url(#e4V8Dq7JgQG35-fill)" stroke="none" stroke-width="1"/><g id="e4V8Dq7JgQG36" opacity="0.5"><path id="e4V8Dq7JgQG37" d="M35.6,33.4C36.5,33.4,37.4,33,37.9,32.3C38.4,31.5,38.3,30.5,37.9,29.7C37.5,28.9,36.7,28.3,35.9,28.1C35.1,27.8,34.1,27.9,33.3,28.4C34,27.9,35,27.8,35.9,28.1C36.8,28.4,37.5,29,38,29.8C38.4,30.6,38.5,31.6,38,32.4C37.5,33.1,36.5,33.4,35.6,33.4Z" fill="url(#e4V8Dq7JgQG37-fill)" stroke="none" stroke-width="1"/></g></g><g id="e4V8Dq7JgQG38"><path id="e4V8Dq7JgQG39" d="M32.7,32.5L29.3,35.7L23.4,50.4L24.2,50.8L34.4,33.6C34.4,33.6,33.3,33.4,32.7,32.5Z" fill="url(#e4V8Dq7JgQG39-fill)" stroke="url(#e4V8Dq7JgQG39-stroke)" stroke-width="0.1871" stroke-miterlimit="10"/><g id="e4V8Dq7JgQG40"><path id="e4V8Dq7JgQG41" d="M34.5,28.7C34.5,28.7,33.6,29.6,32.6,29.6L19.9,6.6L20.8,6L33.1,22.7L34.4,28.3L34.5,28.7Z" fill="url(#e4V8Dq7JgQG41-fill)" stroke="url(#e4V8Dq7JgQG41-stroke)" stroke-width="0.1871" stroke-miterlimit="10"/><g id="e4V8Dq7JgQG42"><path id="e4V8Dq7JgQG43" d="M34.5,28.5C34.6,28.5,34.6,28.7,34.6,28.8C34.5,28.9,34.5,29,34.4,29.1C34.2,29.2,34.1,29.4,33.9,29.5C33.5,29.7,33.1,29.8,32.6,29.7C33,29.7,33.4,29.6,33.8,29.4C34,29.3,34.2,29.2,34.3,29.1C34.5,28.8,34.7,28.7,34.5,28.5Z" fill="rgb(22,247,247)" stroke="none" stroke-width="1"/></g></g><g id="e4V8Dq7JgQG44"><path id="e4V8Dq7JgQG45" d="M36.6,30.1C37.3,31.2,36.9,32.7,35.9,33.3C34.8,33.9,33.4,33.5,32.8,32.3C32.1,31.2,32.5,29.7,33.5,29.1C34.5,28.5,35.9,29,36.6,30.1Z" opacity="0.8" fill="url(#e4V8Dq7JgQG45-fill)" stroke="none" stroke-width="1"/><ellipse id="e4V8Dq7JgQG46" rx="1.4" ry="1.6" transform="matrix(0.866 -0.5 0.5 0.866 34.0948 31.6742)" opacity="0.7" fill="none" stroke="url(#e4V8Dq7JgQG46-stroke)" stroke-width="0.074834" stroke-miterlimit="10"/></g><g id="e4V8Dq7JgQG47"><g id="e4V8Dq7JgQG48"><path id="e4V8Dq7JgQG49" d="M37.7,30.2C37.7,30.2,37.2,30.5,37.2,31C37.2,31.5,37.3,32.4,37.3,32.4C37.3,32.4,40.6,33,42.6,34L63.1,34.2L63.1,33.2L37.7,30.2Z" fill="url(#e4V8Dq7JgQG49-fill)" stroke="url(#e4V8Dq7JgQG49-stroke)" stroke-width="0.1871" stroke-miterlimit="10"/><polygon id="e4V8Dq7JgQG50" points="37.2,31.3 47.2,31.3 37.5,30.2" fill="url(#e4V8Dq7JgQG50-fill)" stroke="none" stroke-width="1"/></g><g id="e4V8Dq7JgQG51"><path id="e4V8Dq7JgQG52" d="M37.9,30.1C37.7,30.1,37.5,30.1,37.4,30.3C37.3,30.4,37.2,30.6,37.2,30.8L37.2,30.8C37.2,31.1,37.1,31.4,37.2,31.7C37.2,31.9,37.2,32,37.3,32.2C37.3,32.3,37.3,32.6,37.5,32.5C37.3,32.6,37.2,32.3,37.2,32.2C37.2,32,37.1,31.9,37.1,31.7C37.1,31.4,37.1,31,37.1,30.7L37.1,30.7C37.2,30.5,37.2,30.3,37.4,30.1C37.5,30,37.7,30,37.9,30.1Z" fill="rgb(22,247,247)" stroke="none" stroke-width="1"/></g></g></g><path id="e4V8Dq7JgQG53" d="M37.8,32.6C37.4,33,36.9,33.2,36.9,33.2C36.9,33.2,36.2,33.5,35.6,33.4L34.7,68.9C36.5,69.8,39.3,68.9,39.3,68.9L38.6,32.8C38.4,32.7,38,32.6,37.8,32.6Z" fill="url(#e4V8Dq7JgQG53-fill)" stroke="none" stroke-width="1"/></g><g id="e4V8Dq7JgQG54" display="none" opacity="0.6"><path id="e4V8Dq7JgQG55" d="M49.8,41.4C48.3,41.3,46.7,41.3,45.1,41.3" fill="none" stroke="rgb(22,247,247)" stroke-width="0.3742" stroke-miterlimit="10" stroke-dasharray="0.7483"/><path id="e4V8Dq7JgQG56" d="M6.6,56.3C8,58,10.6,59.6,14.4,61" fill="none" stroke="rgb(22,247,247)" stroke-width="0.3742" stroke-miterlimit="10" stroke-dasharray="0.7483"/><path id="e4V8Dq7JgQG57" d="M84.5,51.8C83.4,49.3,79.6,47,74.1,45.2" opacity="0.5" fill="none" stroke="rgb(22,247,247)" stroke-width="0.3742" stroke-miterlimit="10" stroke-dasharray="0.7483"/><path id="e4V8Dq7JgQG58" d="M18,62.3C23.6,63.8,30.7,64.9,38.7,65.3C59.4,66.3,79.1,62.4,84.1,56.4" opacity="0.69" fill="none" stroke="rgb(22,247,247)" stroke-width="0.1871" stroke-miterlimit="10"/><path id="e4V8Dq7JgQG59" d="M4.9,53.4C4.9,46.8,22.5,41.4,44.4,41.3" opacity="0.5" fill="none" stroke="rgb(22,247,247)" stroke-width="0.7483" stroke-miterlimit="10"/><path id="e4V8Dq7JgQG60" d="M57.9,42C63.3,42.5,68.2,43.4,72.4,44.6" fill="none" stroke="rgb(22,247,247)" stroke-width="0.7483" stroke-miterlimit="10"/><path id="e4V8Dq7JgQG61" d="M77.7,60.5L77.7,60.5C74.5,61.8,70.6,62.9,66.1,63.7" fill="none" stroke="rgb(22,247,247)" stroke-width="0.7483" stroke-miterlimit="10"/></g><g id="e4V8Dq7JgQG62"><g id="e4V8Dq7JgQG63" transform="matrix(1 0 0 0.302548 0 37.247949)"><g id="e4V8Dq7JgQG64_tr" transform="translate(44.699999,53.405755) rotate(0)"><g id="e4V8Dq7JgQG64" transform="translate(-44.699999,-53.405755)" opacity="0.6"><path id="e4V8Dq7JgQG65" d="M49.8,13.9C48.3,13.7,46.7,13.6,45.1,13.6" fill="none" stroke="rgb(22,247,247)" stroke-width="0.7" stroke-miterlimit="10" stroke-dasharray="0.7483"/><path id="e4V8Dq7JgQG66" d="M6.6,63C8,68.6,10.6,73.8,14.4,78.3" fill="none" stroke="rgb(22,247,247)" stroke-width="0.7" stroke-miterlimit="10" stroke-dasharray="0.7483"/><path id="e4V8Dq7JgQG67" d="M84.5,48.1C83.4,39.8,79.6,32.3,74.1,26.5" opacity="0.5" fill="none" stroke="rgb(22,247,247)" stroke-width="0.7" stroke-miterlimit="10" stroke-dasharray="0.7483"/><path id="e4V8Dq7JgQG68" d="M18,82.8C23.6,87.9,30.7,91.5,38.7,92.7C59.5,96,79.1,83,84.1,63.3" opacity="0.69" fill="none" stroke="rgb(22,247,247)" stroke-width="0.5" stroke-miterlimit="10"/><path id="e4V8Dq7JgQG69" d="M4.9,53.4C4.9,31.7,22.5,14,44.4,13.6" opacity="0.5" fill="none" stroke="rgb(22,247,247)" stroke-width="1" stroke-miterlimit="10"/><path id="e4V8Dq7JgQG70" d="M57.9,15.7C63.3,17.5,68.2,20.4,72.4,24.1" fill="none" stroke="rgb(22,247,247)" stroke-width="1" stroke-miterlimit="10"/><path id="e4V8Dq7JgQG71" d="M77.7,76.8L77.7,76.8C74.5,81.1,70.6,84.7,66.1,87.4" fill="none" stroke="rgb(22,247,247)" stroke-width="1" stroke-miterlimit="10"/></g></g></g></g><g id="e4V8Dq7JgQG72" display="none" opacity="0.2"><path id="e4V8Dq7JgQG73" d="M49,20.7C47.7,20.7,46.4,20.6,45,20.6" fill="none" stroke="rgb(22,247,247)" stroke-width="0.3742" stroke-miterlimit="10" stroke-dasharray="0.7483"/><path id="e4V8Dq7JgQG74" d="M12.4,33.4C13.6,34.8,15.8,36.2,19,37.3" fill="none" stroke="rgb(22,247,247)" stroke-width="0.3742" stroke-miterlimit="10" stroke-dasharray="0.7483"/><path id="e4V8Dq7JgQG75" d="M78.5,29.5C77.5,27.4,74.3,25.4,69.7,23.9" opacity="0.5" fill="none" stroke="rgb(22,247,247)" stroke-width="0.3742" stroke-miterlimit="10" stroke-dasharray="0.7483"/><path id="e4V8Dq7JgQG76" d="M22,38.5C26.7,39.8,32.8,40.7,39.6,41.1C57.2,42,73.8,38.6,78.1,33.5" opacity="0.69" fill="none" stroke="rgb(22,247,247)" stroke-width="0.1871" stroke-miterlimit="10"/><path id="e4V8Dq7JgQG77" d="M11,30.9C11,25.3,25.9,20.8,44.5,20.6" opacity="0.5" fill="none" stroke="rgb(22,247,247)" stroke-width="0.7483" stroke-miterlimit="10"/><path id="e4V8Dq7JgQG78" d="M55.9,21.2C60.5,21.7,64.7,22.4,68.2,23.4" fill="none" stroke="rgb(22,247,247)" stroke-width="0.7483" stroke-miterlimit="10"/><path id="e4V8Dq7JgQG79" d="M72.7,36.9L72.7,36.9C70,38,66.6,38.9,62.8,39.6" fill="none" stroke="rgb(22,247,247)" stroke-width="0.7483" stroke-miterlimit="10"/></g><g id="e4V8Dq7JgQG80" transform="matrix(1 0 0 0.310576 0 21.315208)"><g id="e4V8Dq7JgQG81_tr" transform="translate(44.75,30.917415) rotate(0)"><g id="e4V8Dq7JgQG81" transform="translate(-44.75,-30.917415)" opacity="0.2"><path id="e4V8Dq7JgQG82" d="M49,-2.6C47.7,-2.7,46.4,-2.8,45,-2.8" fill="none" stroke="rgb(22,247,247)" stroke-width="0.7" stroke-miterlimit="10" stroke-dasharray="0.7483"/><path id="e4V8Dq7JgQG83" d="M12.4,39C13.6,43.7,15.8,48.2,19,52" fill="none" stroke="rgb(22,247,247)" stroke-width="0.7" stroke-miterlimit="10" stroke-dasharray="0.7483"/><path id="e4V8Dq7JgQG84" d="M78.5,26.4C77.5,19.4,74.3,13,69.7,8.1" opacity="0.5" fill="none" stroke="rgb(22,247,247)" stroke-width="0.7" stroke-miterlimit="10" stroke-dasharray="0.7483"/><path id="e4V8Dq7JgQG85" d="M22,55.8C26.7,60.1,32.8,63.1,39.6,64.2C57.2,67,73.8,56,78.1,39.2" opacity="0.69" fill="none" stroke="rgb(22,247,247)" stroke-width="0.5" stroke-miterlimit="10"/><path id="e4V8Dq7JgQG86" d="M11,30.9C11,12.5,25.9,-2.5,44.4,-2.8" opacity="0.5" fill="none" stroke="rgb(22,247,247)" stroke-width="1" stroke-miterlimit="10"/><path id="e4V8Dq7JgQG87" d="M55.9,-1.1C60.5,0.4,64.7,2.9,68.2,6" fill="none" stroke="rgb(22,247,247)" stroke-width="1" stroke-miterlimit="10"/><path id="e4V8Dq7JgQG88" d="M72.7,50.8L72.7,50.8C70,54.5,66.6,57.5,62.8,59.8" fill="none" stroke="rgb(22,247,247)" stroke-width="1" stroke-miterlimit="10"/></g></g></g><g id="e4V8Dq7JgQG89"><g id="e4V8Dq7JgQG90"><g id="e4V8Dq7JgQG91"><ellipse id="e4V8Dq7JgQG92" rx="9.4" ry="3.6" transform="matrix(1 0 0 1 50.9 42.4)" fill="url(#e4V8Dq7JgQG92-fill)" stroke="none" stroke-width="1"/><ellipse id="e4V8Dq7JgQG93" rx="9.4" ry="3.6" transform="matrix(1 0 0 1 50.9 67.2)" fill="url(#e4V8Dq7JgQG93-fill)" stroke="none" stroke-width="1"/><g id="e4V8Dq7JgQG94"><path id="e4V8Dq7JgQG95" d="M41.5,42L41.5,42.4C41.5,42.3,41.5,42.3,41.5,42.2C41.5,42.2,41.5,42.1,41.5,42Z" fill="url(#e4V8Dq7JgQG95-fill)" stroke="none" stroke-width="1"/><path id="e4V8Dq7JgQG96" d="M50.9,46C45.7,46,41.5,44.4,41.5,42.4L41.5,67.2C41.5,65.2,45.7,63.6,50.9,63.6C56.1,63.6,60.3,65.2,60.3,67.2L60.3,42.4C60.4,44.4,56.1,46,50.9,46Z" fill="url(#e4V8Dq7JgQG96-fill)" stroke="none" stroke-width="1"/><path id="e4V8Dq7JgQG97" d="M60.3,42.2C60.3,42.3,60.3,42.3,60.3,42.4L60.3,42C60.4,42.1,60.3,42.2,60.3,42.2Z" fill="url(#e4V8Dq7JgQG97-fill)" stroke="none" stroke-width="1"/></g></g><g id="e4V8Dq7JgQG98"><path id="e4V8Dq7JgQG99" d="M59.1,44.2L59.1,44.2C58.8,42.6,55.3,41.3,50.9,41.3C46.6,41.3,43,42.6,42.7,44.2L42.7,44.2C42.7,44.1,42.7,44.1,42.7,44L42.7,44.4C42.7,44.4,42.7,44.4,42.7,44.4C42.7,44.4,42.7,44.4,42.7,44.4L42.7,65.3C42.7,65.3,42.7,65.3,42.7,65.3C42.7,67,46.4,68.4,50.9,68.4C55.4,68.4,59.1,67,59.1,65.3L59.1,44.4L59.1,44C59.1,44.1,59.1,44.1,59.1,44.2ZM57.2,63.3C56.9,63.2,56.6,63,56.2,62.9C56.6,63,56.9,63.2,57.2,63.3ZM56,62.9C55.6,62.8,55.3,62.7,54.9,62.6C55.3,62.7,55.7,62.8,56,62.9ZM50.1,47.5C50.4,47.5,50.7,47.5,50.9,47.5L50.9,47.5C50.7,47.5,50.4,47.5,50.1,47.5C49.7,47.5,49.3,47.5,48.9,47.4C49.3,47.4,49.7,47.4,50.1,47.5ZM48.1,62.4C47.8,62.4,47.6,62.5,47.4,62.5C46.8,62.6,46.2,62.7,45.7,62.9C45.3,63,45,63.1,44.7,63.3C45,63.2,45.4,63,45.7,62.9C46.2,62.7,46.8,62.6,47.4,62.5C47.6,62.5,47.9,62.4,48.1,62.4C49,62.3,49.9,62.2,50.9,62.2C51.7,62.2,52.5,62.2,53.3,62.3C52.5,62.2,51.7,62.2,50.9,62.2C50,62.2,49,62.3,48.1,62.4ZM44.2,63.5C44.3,63.4,44.4,63.4,44.5,63.3C44.4,63.4,44.3,63.5,44.2,63.5ZM54.4,62.5C54.2,62.5,54,62.4,53.8,62.4C54,62.4,54.2,62.5,54.4,62.5ZM57.3,63.4C57.4,63.5,57.6,63.5,57.7,63.6C57.6,63.5,57.5,63.4,57.3,63.4Z" fill="url(#e4V8Dq7JgQG99-fill)" stroke="none" stroke-width="1"/><ellipse id="e4V8Dq7JgQG100" rx="8.2" ry="3.1" transform="matrix(1 0 0 1 50.9 44.4)" fill="url(#e4V8Dq7JgQG100-fill)" stroke="none" stroke-width="1"/><ellipse id="e4V8Dq7JgQG101" rx="8.2" ry="3.1" transform="matrix(1 0 0 1 50.9 65.3)" fill="url(#e4V8Dq7JgQG101-fill)" stroke="none" stroke-width="1"/></g><g id="e4V8Dq7JgQG102" opacity="0.3"><ellipse id="e4V8Dq7JgQG103" rx="9.9" ry="3.8" transform="matrix(1 0 0 1 51 41.4)" fill="none" stroke="rgb(22,247,247)" stroke-width="0.3742" stroke-miterlimit="10"/><ellipse id="e4V8Dq7JgQG104" rx="9.9" ry="3.8" transform="matrix(1 0 0 1 51 68.3)" fill="none" stroke="rgb(22,247,247)" stroke-width="0.3742" stroke-miterlimit="10"/><path id="e4V8Dq7JgQG105" d="M51,45.2C45.5,45.2,41.1,43.5,41.1,41.4L41.1,68.3C41.1,66.2,45.6,64.5,51,64.5C56.5,64.5,60.9,66.2,60.9,68.3L60.9,41.4C61,43.5,56.5,45.2,51,45.2Z" fill="none" stroke="rgb(22,247,247)" stroke-width="0.3742" stroke-miterlimit="10"/></g></g><g id="e4V8Dq7JgQG106" opacity="0.2"><polygon id="e4V8Dq7JgQG107" points="52.5,50.7 47.6,57.6 54.3,56.1 50.4,62" fill="rgb(255,255,255)" stroke="none" stroke-width="1"/></g></g></g><ellipse id="e4V8Dq7JgQG108" rx="26.4" ry="8.7" transform="matrix(1 0 0 1 43.6 72.4)" opacity="0" fill="none" stroke="rgb(22,247,247)" stroke-width="1" stroke-miterlimit="10"/><g id="e4V8Dq7JgQG109"><g id="e4V8Dq7JgQG110" transform="matrix(1 0 0 0.329493 0 48.377951)"><g id="e4V8Dq7JgQG111_tr" transform="translate(43.6,72.4) rotate(0)"><path id="e4V8Dq7JgQG111" d="M43.6,98.8C50.5,98.8,57.3,95.9,62.2,91C67,86.1,69.8,79.3,69.7,72.4C69.7,65.6,66.8,58.8,62,54.1C57.2,49.3,50.4,46.6,43.7,46.7C43.4,46.7,43.1,46.4,43.1,46.1C43.1,45.8,43.4,45.5,43.7,45.5C43.7,45.5,43.7,45.5,43.7,45.5C50.8,45.5,57.8,48.5,62.7,53.5C67.7,58.5,70.5,65.5,70.4,72.5C70.4,79.5,67.5,86.4,62.5,91.3C57.4,96.1,50.5,98.9,43.6,98.8Z" transform="translate(-43.599998,-72.399999)" fill="rgb(22,247,247)" stroke="none" stroke-width="1"/></g></g></g></svg>