<?xml version="1.0" encoding="utf-8"?>
<!-- Generator: Adobe Illustrator 25.1.0, SVG Export Plug-In . SVG Version: 6.00 Build 0)  -->
<svg version="1.1" id="图层_1" xmlns="http://www.w3.org/2000/svg" xmlns:xlink="http://www.w3.org/1999/xlink" x="0px" y="0px"
	 viewBox="0 0 352 352" style="enable-background:new 0 0 352 352;" xml:space="preserve">
<style type="text/css">
	.son{
        -webkit-perspective: 500;
        -webkit-perspective-origin: 10% 10%;
        animation:mymove 5s infinite linear;
        opacity:0.8
      }

      #container{
        transform: rotateX(62deg);
      }
	.st0{fill:url(#SVGID_1_);fill-opacity:0.35;stroke:#00FFF7;stroke-miterlimit:10;stroke-opacity:0.8;}
	.st1{fill:none;stroke:#1CFFE7;stroke-miterlimit:10;stroke-opacity:0.4;}
	.st2{opacity:0.4;fill:#1CFFE7;}
	.st3{opacity:0.7;fill:#1CFFE7;}
	.st4{opacity:0.8;fill:#1CFFE7;}

	@keyframes mymove
      {
      from {
        transform: rotateZ(0deg);
        transform-style: preserve-3d;
        transform-origin:50%;
        -webkit-perspective: 500;
      }
      to {transform: rotateZ(-360deg);
        transform-style: preserve-3d;
        transform-origin:50%;
        -webkit-perspective: 500;
      }
      }
</style>
<g id="container">
		<radialGradient id="SVGID_1_" cx="176" cy="169.5692" r="123.8448" gradientTransform="matrix(1 0 0 2.4662 0 -242.193)" gradientUnits="userSpaceOnUse">
		<stop  offset="0" style="stop-color:#000000"/>
		<stop  offset="1" style="stop-color:#00FFF7"/>
	</radialGradient>
	<circle class="st0" cx="176" cy="176" r="162.3"/>
	<circle class="st1" cx="176" cy="176" r="175"/>
	<g class="son">
		<path class="st2" d="M115.5,11.7c25.9-9.6,54.2-13,81.7-9.7c27.5,3.2,54.2,13.1,77.2,28.6c23,15.5,42.3,36.5,55.7,60.8l2.5,4.6
			c0.8,1.5,1.5,3.1,2.3,4.7c0.7,1.6,1.5,3.1,2.2,4.7l2,4.8c0.7,1.6,1.3,3.2,1.9,4.9l1.8,4.9l1.6,5c0.5,1.7,1.1,3.3,1.5,5
			c3.6,13.4,5.7,27.2,6.2,41.1c0,0.6-0.4,1-1,1c-0.6,0-1-0.4-1-1l0,0l0,0c-0.4-13.7-2.3-27.4-5.9-40.7c-0.4-1.7-0.9-3.3-1.4-5
			l-1.5-4.9l-1.7-4.9c-0.6-1.6-1.1-3.2-1.8-4.8l-2-4.8c-0.6-1.6-1.4-3.1-2.2-4.7c-0.8-1.5-1.4-3.1-2.2-4.7l-2.4-4.6
			c-13.2-24.2-32.2-45.2-55-60.7c-22.8-15.6-49.3-25.7-76.7-29C169.7-0.9,141.5,2.3,115.5,11.7z"/>
	</g>
	<g class="son">
		<path class="st2" d="M109.6,325.2C80.3,312.1,55,290.1,38,262.9c-8.5-13.6-15-28.4-19.2-43.9c-4.2-15.5-6-31.5-5.5-47.5
			c0.5-16,3.3-31.9,8.4-47.1c5.1-15.2,12.5-29.5,21.8-42.5c9.3-13,20.5-24.6,33.2-34.4c12.6-9.7,26.7-17.6,41.7-23.2
			C103.4,30,89.4,37.9,76.8,47.7c-12.6,9.8-23.7,21.4-32.9,34.5c-9.2,13-16.5,27.4-21.5,42.5c-5,15.1-7.7,31-8.1,46.9
			c-0.4,15.9,1.5,31.9,5.7,47.2c4.2,15.3,10.8,30,19.3,43.4c17,26.8,42.1,48.5,71.1,61.3c0.5,0.2,0.7,0.8,0.5,1.3
			C110.7,325.2,110.1,325.4,109.6,325.2L109.6,325.2z"/>
	</g>
	<g class="son">
		<path class="st3" d="M53,97.8c-11.1,17.5-18.4,37.5-21.1,58c-0.7,5.1-1.1,10.3-1.3,15.5l-0.1,3.9c0,1.3,0.1,2.6,0.1,3.9l0.1,3.9
			c0,1.3,0.2,2.6,0.3,3.9c0.8,10.3,2.7,20.6,5.6,30.5C48.3,257,78,291,115.8,307.9c18.8,8.5,39.4,13,60,12.9
			c10.3-0.1,20.6-1.1,30.7-3.3c10-2.2,19.9-5.4,29.2-9.8c18.7-8.5,35.5-21.2,49-36.7c13.5-15.5,23.6-34,29.4-53.6l0,0
			c0.2-0.8,1.1-1.2,1.9-1c0.8,0.2,1.2,1.1,1,1.9l0,0c-6.1,20-16.5,38.8-30.3,54.5c-13.8,15.7-31,28.5-50.1,37.1
			c-9.5,4.4-19.5,7.5-29.7,9.7c-10.2,2.2-20.7,3.2-31.1,3.2c-20.9-0.1-41.7-4.7-60.7-13.4c-38-17.3-67.7-51.7-79.2-91.7
			c-2.9-10-4.7-20.3-5.5-30.6c-0.1-1.3-0.2-2.6-0.3-3.9l-0.1-3.9c0-1.3-0.1-2.6-0.1-3.9l0.1-3.9c0.2-5.2,0.6-10.4,1.4-15.5
			C34.4,135.2,41.8,115.3,53,97.8z"/>
	</g>
	<g class="son">
		<path class="st4" d="M301.8,220.1c3.9-11.2,6.4-22.9,7.2-34.7c0.9-11.8,0.1-23.7-2.2-35.4c-4.6-23.3-15.4-45.3-31.3-63
			c-15.8-17.7-36.3-31.2-59-38.4c-22.6-7.2-47.2-8.3-70.4-3c23.2-5.4,47.8-4.3,70.5,2.8c22.7,7.1,43.4,20.6,59.3,38.3
			c16,17.7,27,39.8,31.7,63.1c2.3,11.7,3.1,23.7,2.3,35.6c-0.8,11.9-3.2,23.7-7.1,35c-0.1,0.3-0.4,0.4-0.6,0.3
			C301.8,220.6,301.7,220.4,301.8,220.1L301.8,220.1z"/>
	</g>
</g>
</svg>
