<svg xmlns:xlink="http://www.w3.org/1999/xlink" version="1.1" class="highcharts-root" style="font-family: Helvetica, Arial, sans-serif; font-size: 1rem;" xmlns="http://www.w3.org/2000/svg" width="352" height="223" viewBox="0 0 352 223" role="img" aria-label=""><desc>Created with Highcharts 11.3.0</desc><defs><filter id="highcharts-drop-shadow-4"><feDropShadow dx="1" dy="1" flood-color="#000000" flood-opacity="0.75" stdDeviation="2.5"></feDropShadow></filter><clipPath id="highcharts-x8jsayg-105-"><rect x="0" y="0" width="332" height="198" fill="none"></rect></clipPath></defs><rect fill="transparent" class="highcharts-background" filter="none" x="0" y="0" width="352" height="223" rx="0" ry="0"></rect><rect fill="none" class="highcharts-plot-background" x="10" y="10" width="332" height="198" filter="none"></rect><g class="highcharts-pane-group" data-z-index="0"></g><rect fill="none" class="highcharts-plot-border" data-z-index="1" stroke="#cccccc" stroke-width="0" x="10" y="10" width="332" height="198"></rect><g class="highcharts-series-group" data-z-index="3" filter="none"><g class="highcharts-series highcharts-series-0 highcharts-area-series highcharts-color-0" data-z-index="0.1" opacity="1" transform="translate(10,10) scale(1 1)" clip-path="url(#highcharts-x8jsayg-105-)"><path fill="#2caffe" d="M 3.2549019607843 154.50534 L 35.803921568627 149.83056 L 68.352941176471 133.48665 L 100.90196078431 116.99127 L 133.45098039216 86.97843 L 166 57.04083 L 198.54901960784 28.182330000000007 L 231.09803921569 34.47774000000001 L 263.64705882353 44.39456999999999 L 296.19607843137 38.16054 L 328.74509803922 44.93610000000001 L 328.74509803922 198 L 296.19607843137 198 L 263.64705882353 198 L 231.09803921569 198 L 198.54901960784 198 L 166 198 L 133.45098039216 198 L 100.90196078431 198 L 68.352941176471 198 L 35.803921568627 198 L 3.2549019607843 198 Z" class="highcharts-area" data-z-index="0" fill-opacity="0.75" style="pointer-events: none;"></path><path fill="none" d="M 3.2549019607843 154.50534 L 35.803921568627 149.83056 L 68.352941176471 133.48665 L 100.90196078431 116.99127 L 133.45098039216 86.97843 L 166 57.04083 L 198.54901960784 28.182330000000007 L 231.09803921569 34.47774000000001 L 263.64705882353 44.39456999999999 L 296.19607843137 38.16054 L 328.74509803922 44.93610000000001" class="highcharts-graph" data-z-index="1" stroke="#2caffe" stroke-width="2" stroke-linejoin="round" stroke-linecap="round" filter="none"></path></g><g class="highcharts-markers highcharts-series-0 highcharts-area-series highcharts-color-0" data-z-index="0.1" opacity="1" transform="translate(10,10) scale(1 1)" clip-path="none"></g></g><text x="176" text-anchor="middle" class="highcharts-title" data-z-index="4" style="font-size: 1.2em; color: rgb(51, 51, 51); font-weight: bold; fill: rgb(51, 51, 51);" y="25"></text><text x="176" text-anchor="middle" class="highcharts-subtitle" data-z-index="4" style="color: rgb(102, 102, 102); font-size: 0.8em; fill: rgb(102, 102, 102);" y="24"></text><text x="10" text-anchor="start" class="highcharts-caption" data-z-index="4" style="color: rgb(102, 102, 102); font-size: 0.8em; fill: rgb(102, 102, 102);" y="220"></text></svg>