<svg xmlns:xlink="http://www.w3.org/1999/xlink" version="1.1" class="highcharts-root" style="font-family: Helvetica, Arial, sans-serif; font-size: 1rem;" xmlns="http://www.w3.org/2000/svg" width="447" height="328" viewBox="0 0 447 328" role="img" aria-label=""><desc>Created with Highcharts 11.3.0</desc><defs><filter id="highcharts-drop-shadow-2"><feDropShadow dx="1" dy="1" flood-color="#000000" flood-opacity="0.75" stdDeviation="2.5"></feDropShadow></filter><clipPath id="highcharts-tky3aqz-62-"><rect x="0" y="0" width="303" height="383" fill="none"></rect></clipPath><filter id="highcharts-drop-shadow-2-offsetx--1-offsety--1"><feDropShadow dx="-1" dy="-1" flood-color="#000000" flood-opacity="0.75" stdDeviation="2.5"></feDropShadow></filter></defs><rect fill="transparent" class="highcharts-background" filter="none" x="0" y="0" width="447" height="328" rx="0" ry="0"></rect><rect fill="none" class="highcharts-plot-background" x="54" y="10" width="383" height="303" filter="none"></rect><g class="highcharts-pane-group" data-z-index="0"></g><g class="highcharts-grid highcharts-yaxis-grid" data-z-index="1"><path fill="none" stroke-width="1" stroke-dasharray="4,3" data-z-index="1" class="highcharts-grid-line" d="M 53.5 10 L 53.5 313" opacity="1"></path><path fill="none" stroke-width="1" stroke-dasharray="4,3" data-z-index="1" class="highcharts-grid-line" d="M 101.5 10 L 101.5 313" opacity="1"></path><path fill="none" stroke-width="1" stroke-dasharray="4,3" data-z-index="1" class="highcharts-grid-line" d="M 149.5 10 L 149.5 313" opacity="1"></path><path fill="none" stroke-width="1" stroke-dasharray="4,3" data-z-index="1" class="highcharts-grid-line" d="M 197.5 10 L 197.5 313" opacity="1"></path><path fill="none" stroke-width="1" stroke-dasharray="4,3" data-z-index="1" class="highcharts-grid-line" d="M 245.5 10 L 245.5 313" opacity="1"></path><path fill="none" stroke-width="1" stroke-dasharray="4,3" data-z-index="1" class="highcharts-grid-line" d="M 292.5 10 L 292.5 313" opacity="1"></path><path fill="none" stroke-width="1" stroke-dasharray="4,3" data-z-index="1" class="highcharts-grid-line" d="M 340.5 10 L 340.5 313" opacity="1"></path><path fill="none" stroke-width="1" stroke-dasharray="4,3" data-z-index="1" class="highcharts-grid-line" d="M 388.5 10 L 388.5 313" opacity="1"></path><path fill="none" stroke-width="1" stroke-dasharray="4,3" data-z-index="1" class="highcharts-grid-line" d="M 437.5 10 L 437.5 313" opacity="1"></path></g><g class="highcharts-grid highcharts-xaxis-grid" data-z-index="1"><path fill="none" stroke-width="0" stroke-dasharray="none" data-z-index="1" class="highcharts-grid-line" d="M 54 38.5 L 437 38.5" opacity="1"></path><path fill="none" stroke-width="0" stroke-dasharray="none" data-z-index="1" class="highcharts-grid-line" d="M 54 65.5 L 437 65.5" opacity="1"></path><path fill="none" stroke-width="0" stroke-dasharray="none" data-z-index="1" class="highcharts-grid-line" d="M 54 93.5 L 437 93.5" opacity="1"></path><path fill="none" stroke-width="0" stroke-dasharray="none" data-z-index="1" class="highcharts-grid-line" d="M 54 120.5 L 437 120.5" opacity="1"></path><path fill="none" stroke-width="0" stroke-dasharray="none" data-z-index="1" class="highcharts-grid-line" d="M 54 148.5 L 437 148.5" opacity="1"></path><path fill="none" stroke-width="0" stroke-dasharray="none" data-z-index="1" class="highcharts-grid-line" d="M 54 175.5 L 437 175.5" opacity="1"></path><path fill="none" stroke-width="0" stroke-dasharray="none" data-z-index="1" class="highcharts-grid-line" d="M 54 203.5 L 437 203.5" opacity="1"></path><path fill="none" stroke-width="0" stroke-dasharray="none" data-z-index="1" class="highcharts-grid-line" d="M 54 230.5 L 437 230.5" opacity="1"></path><path fill="none" stroke-width="0" stroke-dasharray="none" data-z-index="1" class="highcharts-grid-line" d="M 54 258.5 L 437 258.5" opacity="1"></path><path fill="none" stroke-width="0" stroke-dasharray="none" data-z-index="1" class="highcharts-grid-line" d="M 54 285.5 L 437 285.5" opacity="1"></path><path fill="none" stroke-width="0" stroke-dasharray="none" data-z-index="1" class="highcharts-grid-line" d="M 54 313.5 L 437 313.5" opacity="1"></path><path fill="none" stroke-width="0" stroke-dasharray="none" data-z-index="1" class="highcharts-grid-line" d="M 54 10.5 L 437 10.5" opacity="1"></path></g><rect fill="none" class="highcharts-plot-border" data-z-index="1" stroke="#cccccc" stroke-width="0" x="54" y="10" width="383" height="303"></rect><g class="highcharts-axis highcharts-yaxis" data-z-index="2"><path fill="none" class="highcharts-axis-line" stroke="#333" stroke-width="1" data-z-index="7" d="M 54 313.5 L 437 313.5"></path></g><g class="highcharts-axis highcharts-xaxis" data-z-index="2"><path fill="none" class="highcharts-axis-line" stroke="#333" stroke-width="1" data-z-index="7" d="M 53.5 10 L 53.5 313"></path></g><g class="highcharts-series-group" data-z-index="3" filter="none"><g class="highcharts-series highcharts-series-0 highcharts-bar-series highcharts-color-0" data-z-index="0.1" opacity="1" transform="translate(54,10) rotate(90 40 343) scale(-1 1)" clip-path="url(#highcharts-tky3aqz-62-)"><path fill="#2f7fe0" d="M 293.5 300 L 293.5 300 A 3.5 3.5 0 0 1 297 303.5 L 297 384 A 0 0 0 0 1 297 384 L 290 384 A 0 0 0 0 1 290 384 L 290 303.5 A 3.5 3.5 0 0 1 293.5 300 Z" stroke="#ffffff" stroke-width="0" opacity="1" filter="none" class="highcharts-point highcharts-color-0"></path><path fill="#2f7fe0" d="M 266.5 291 L 266.5 291 A 3.5 3.5 0 0 1 270 294.5 L 270 384 A 0 0 0 0 1 270 384 L 263 384 A 0 0 0 0 1 263 384 L 263 294.5 A 3.5 3.5 0 0 1 266.5 291 Z" stroke="#ffffff" stroke-width="0" opacity="1" filter="none" class="highcharts-point highcharts-color-0"></path><path fill="#2f7fe0" d="M 238.5 259 L 238.5 259 A 3.5 3.5 0 0 1 242 262.5 L 242 384 A 0 0 0 0 1 242 384 L 235 384 A 0 0 0 0 1 235 384 L 235 262.5 A 3.5 3.5 0 0 1 238.5 259 Z" stroke="#ffffff" stroke-width="0" opacity="1" filter="none" class="highcharts-point highcharts-color-0"></path><path fill="#2f7fe0" d="M 210.5 227 L 210.5 227 A 3.5 3.5 0 0 1 214 230.5 L 214 384 A 0 0 0 0 1 214 384 L 207 384 A 0 0 0 0 1 207 384 L 207 230.5 A 3.5 3.5 0 0 1 210.5 227 Z" stroke="#ffffff" stroke-width="0" opacity="1" filter="none" class="highcharts-point highcharts-color-0"></path><path fill="#2f7fe0" d="M 183.5 169 L 183.5 169 A 3.5 3.5 0 0 1 187 172.5 L 187 384 A 0 0 0 0 1 187 384 L 180 384 A 0 0 0 0 1 180 384 L 180 172.5 A 3.5 3.5 0 0 1 183.5 169 Z" stroke="#ffffff" stroke-width="0" opacity="1" filter="none" class="highcharts-point highcharts-color-0"></path><path fill="#2f7fe0" d="M 155.5 111 L 155.5 111 A 3.5 3.5 0 0 1 159 114.5 L 159 384 A 0 0 0 0 1 159 384 L 152 384 A 0 0 0 0 1 152 384 L 152 114.5 A 3.5 3.5 0 0 1 155.5 111 Z" stroke="#ffffff" stroke-width="0" opacity="1" filter="none" class="highcharts-point highcharts-color-0"></path><path fill="#2f7fe0" d="M 128.5 56 L 128.5 56 A 3.5 3.5 0 0 1 132 59.5 L 132 384 A 0 0 0 0 1 132 384 L 125 384 A 0 0 0 0 1 125 384 L 125 59.5 A 3.5 3.5 0 0 1 128.5 56 Z" stroke="#ffffff" stroke-width="0" opacity="1" filter="none" class="highcharts-point highcharts-color-0"></path><path fill="#2f7fe0" d="M 100.5 68 L 100.5 68 A 3.5 3.5 0 0 1 104 71.5 L 104 384 A 0 0 0 0 1 104 384 L 97 384 A 0 0 0 0 1 97 384 L 97 71.5 A 3.5 3.5 0 0 1 100.5 68 Z" stroke="#ffffff" stroke-width="0" opacity="1" filter="none" class="highcharts-point highcharts-color-0"></path><path fill="#2f7fe0" d="M 73.5 87 L 73.5 87 A 3.5 3.5 0 0 1 77 90.5 L 77 384 A 0 0 0 0 1 77 384 L 70 384 A 0 0 0 0 1 70 384 L 70 90.5 A 3.5 3.5 0 0 1 73.5 87 Z" stroke="#ffffff" stroke-width="0" opacity="1" filter="none" class="highcharts-point highcharts-color-0"></path><path fill="#2f7fe0" d="M 45.5 75 L 45.5 75 A 3.5 3.5 0 0 1 49 78.5 L 49 384 A 0 0 0 0 1 49 384 L 42 384 A 0 0 0 0 1 42 384 L 42 78.5 A 3.5 3.5 0 0 1 45.5 75 Z" stroke="#ffffff" stroke-width="0" opacity="1" filter="none" class="highcharts-point highcharts-color-0"></path><path fill="#2f7fe0" d="M 18.5 88 L 18.5 88 A 3.5 3.5 0 0 1 22 91.5 L 22 384 A 0 0 0 0 1 22 384 L 15 384 A 0 0 0 0 1 15 384 L 15 91.5 A 3.5 3.5 0 0 1 18.5 88 Z" stroke="#ffffff" stroke-width="0" opacity="1" filter="none" class="highcharts-point highcharts-color-0"></path></g><g class="highcharts-markers highcharts-series-0 highcharts-bar-series highcharts-color-0" data-z-index="0.1" opacity="1" transform="translate(54,10) scale(1 1)" clip-path="none"></g><g class="highcharts-series highcharts-series-1 highcharts-bar-series highcharts-color-1" data-z-index="0.1" opacity="1" transform="translate(54,10) rotate(90 40 343) scale(-1 1)" clip-path="url(#highcharts-tky3aqz-62-)"><path fill="#8b77e1" d="M 285.5 336 L 285.5 336 A 3.5 3.5 0 0 1 289 339.5 L 289 384 A 0 0 0 0 1 289 384 L 282 384 A 0 0 0 0 1 282 384 L 282 339.5 A 3.5 3.5 0 0 1 285.5 336 Z" stroke="#ffffff" stroke-width="0" opacity="1" filter="none" class="highcharts-point highcharts-color-1"></path><path fill="#8b77e1" d="M 257.5 311 L 257.5 311 A 3.5 3.5 0 0 1 261 314.5 L 261 384 A 0 0 0 0 1 261 384 L 254 384 A 0 0 0 0 1 254 384 L 254 314.5 A 3.5 3.5 0 0 1 257.5 311 Z" stroke="#ffffff" stroke-width="0" opacity="1" filter="none" class="highcharts-point highcharts-color-1"></path><path fill="#8b77e1" d="M 230.5 327 L 230.5 327 A 3.5 3.5 0 0 1 234 330.5 L 234 384 A 0 0 0 0 1 234 384 L 227 384 A 0 0 0 0 1 227 384 L 227 330.5 A 3.5 3.5 0 0 1 230.5 327 Z" stroke="#ffffff" stroke-width="0" opacity="1" filter="none" class="highcharts-point highcharts-color-1"></path><path fill="#8b77e1" d="M 202.5 327 L 202.5 327 A 3.5 3.5 0 0 1 206 330.5 L 206 384 A 0 0 0 0 1 206 384 L 199 384 A 0 0 0 0 1 199 384 L 199 330.5 A 3.5 3.5 0 0 1 202.5 327 Z" stroke="#ffffff" stroke-width="0" opacity="1" filter="none" class="highcharts-point highcharts-color-1"></path><path fill="#8b77e1" d="M 175.5 322 L 175.5 322 A 3.5 3.5 0 0 1 179 325.5 L 179 384 A 0 0 0 0 1 179 384 L 172 384 A 0 0 0 0 1 172 384 L 172 325.5 A 3.5 3.5 0 0 1 175.5 322 Z" stroke="#ffffff" stroke-width="0" opacity="1" filter="none" class="highcharts-point highcharts-color-1"></path><path fill="#8b77e1" d="M 147.5 326 L 147.5 326 A 3.5 3.5 0 0 1 151 329.5 L 151 384 A 0 0 0 0 1 151 384 L 144 384 A 0 0 0 0 1 144 384 L 144 329.5 A 3.5 3.5 0 0 1 147.5 326 Z" stroke="#ffffff" stroke-width="0" opacity="1" filter="none" class="highcharts-point highcharts-color-1"></path><path fill="#8b77e1" d="M 120.5 311 L 120.5 311 A 3.5 3.5 0 0 1 124 314.5 L 124 384 A 0 0 0 0 1 124 384 L 117 384 A 0 0 0 0 1 117 384 L 117 314.5 A 3.5 3.5 0 0 1 120.5 311 Z" stroke="#ffffff" stroke-width="0" opacity="1" filter="none" class="highcharts-point highcharts-color-1"></path><path fill="#8b77e1" d="M 92.5 313 L 92.5 313 A 3.5 3.5 0 0 1 96 316.5 L 96 384 A 0 0 0 0 1 96 384 L 89 384 A 0 0 0 0 1 89 384 L 89 316.5 A 3.5 3.5 0 0 1 92.5 313 Z" stroke="#ffffff" stroke-width="0" opacity="1" filter="none" class="highcharts-point highcharts-color-1"></path><path fill="#8b77e1" d="M 64.5 319 L 64.5 319 A 3.5 3.5 0 0 1 68 322.5 L 68 384 A 0 0 0 0 1 68 384 L 61 384 A 0 0 0 0 1 61 384 L 61 322.5 A 3.5 3.5 0 0 1 64.5 319 Z" stroke="#ffffff" stroke-width="0" opacity="1" filter="none" class="highcharts-point highcharts-color-1"></path><path fill="#8b77e1" d="M 37.5 318 L 37.5 318 A 3.5 3.5 0 0 1 41 321.5 L 41 384 A 0 0 0 0 1 41 384 L 34 384 A 0 0 0 0 1 34 384 L 34 321.5 A 3.5 3.5 0 0 1 37.5 318 Z" stroke="#ffffff" stroke-width="0" opacity="1" filter="none" class="highcharts-point highcharts-color-1"></path><path fill="#8b77e1" d="M 9.5 325 L 9.5 325 A 3.5 3.5 0 0 1 13 328.5 L 13 384 A 0 0 0 0 1 13 384 L 6 384 A 0 0 0 0 1 6 384 L 6 328.5 A 3.5 3.5 0 0 1 9.5 325 Z" stroke="#ffffff" stroke-width="0" opacity="1" filter="none" class="highcharts-point highcharts-color-1"></path></g><g class="highcharts-markers highcharts-series-1 highcharts-bar-series highcharts-color-1" data-z-index="0.1" opacity="1" transform="translate(54,10) scale(1 1)" clip-path="none"></g></g><text x="224" text-anchor="middle" class="highcharts-title" data-z-index="4" style="font-size: 1.2em; color: rgb(51, 51, 51); font-weight: bold; fill: rgb(51, 51, 51);" y="25"></text><text x="224" text-anchor="middle" class="highcharts-subtitle" data-z-index="4" style="color: rgb(102, 102, 102); font-size: 0.8em; fill: rgb(102, 102, 102);" y="24"></text><text x="10" text-anchor="start" class="highcharts-caption" data-z-index="4" style="color: rgb(102, 102, 102); font-size: 0.8em; fill: rgb(102, 102, 102);" y="325"></text><g class="highcharts-axis-labels highcharts-yaxis-labels" data-z-index="7"><text x="54" text-anchor="middle" transform="translate(0,0)" style="color: rgb(102, 102, 102); cursor: default; font-size: 0.8em; fill: rgb(102, 102, 102);" y="340" opacity="1"></text><text x="101.875" text-anchor="middle" transform="translate(0,0)" style="color: rgb(102, 102, 102); cursor: default; font-size: 0.8em; fill: rgb(102, 102, 102);" y="340" opacity="1"></text><text x="149.75" text-anchor="middle" transform="translate(0,0)" style="color: rgb(102, 102, 102); cursor: default; font-size: 0.8em; fill: rgb(102, 102, 102);" y="340" opacity="1"></text><text x="197.625" text-anchor="middle" transform="translate(0,0)" style="color: rgb(102, 102, 102); cursor: default; font-size: 0.8em; fill: rgb(102, 102, 102);" y="340" opacity="1"></text><text x="245.5" text-anchor="middle" transform="translate(0,0)" style="color: rgb(102, 102, 102); cursor: default; font-size: 0.8em; fill: rgb(102, 102, 102);" y="340" opacity="1"></text><text x="293.375" text-anchor="middle" transform="translate(0,0)" style="color: rgb(102, 102, 102); cursor: default; font-size: 0.8em; fill: rgb(102, 102, 102);" y="340" opacity="1"></text><text x="341.25" text-anchor="middle" transform="translate(0,0)" style="color: rgb(102, 102, 102); cursor: default; font-size: 0.8em; fill: rgb(102, 102, 102);" y="340" opacity="1"></text><text x="389.125" text-anchor="middle" transform="translate(0,0)" style="color: rgb(102, 102, 102); cursor: default; font-size: 0.8em; fill: rgb(102, 102, 102);" y="340" opacity="1"></text><text x="437" text-anchor="middle" transform="translate(0,0)" style="color: rgb(102, 102, 102); cursor: default; font-size: 0.8em; fill: rgb(102, 102, 102);" y="340" opacity="1"></text></g><g class="highcharts-axis-labels highcharts-xaxis-labels" data-z-index="7"><text x="39" text-anchor="end" transform="translate(0,0)" style="color: rgb(102, 102, 102); cursor: default; font-size: 0.8em; fill: rgb(102, 102, 102);" y="28" opacity="1">2024</text><text x="39" text-anchor="end" transform="translate(0,0)" style="color: rgb(102, 102, 102); cursor: default; font-size: 0.8em; fill: rgb(102, 102, 102);" y="56" opacity="1">2023</text><text x="39" text-anchor="end" transform="translate(0,0)" style="color: rgb(102, 102, 102); cursor: default; font-size: 0.8em; fill: rgb(102, 102, 102);" y="83" opacity="1">2022</text><text x="39" text-anchor="end" transform="translate(0,0)" style="color: rgb(102, 102, 102); cursor: default; font-size: 0.8em; fill: rgb(102, 102, 102);" y="111" opacity="1">2021</text><text x="39" text-anchor="end" transform="translate(0,0)" style="color: rgb(102, 102, 102); cursor: default; font-size: 0.8em; fill: rgb(102, 102, 102);" y="138" opacity="1">2020</text><text x="39" text-anchor="end" transform="translate(0,0)" style="color: rgb(102, 102, 102); cursor: default; font-size: 0.8em; fill: rgb(102, 102, 102);" y="166" opacity="1">2019</text><text x="39" text-anchor="end" transform="translate(0,0)" style="color: rgb(102, 102, 102); cursor: default; font-size: 0.8em; fill: rgb(102, 102, 102);" y="194" opacity="1">2018</text><text x="39" text-anchor="end" transform="translate(0,0)" style="color: rgb(102, 102, 102); cursor: default; font-size: 0.8em; fill: rgb(102, 102, 102);" y="221" opacity="1">2017</text><text x="39" text-anchor="end" transform="translate(0,0)" style="color: rgb(102, 102, 102); cursor: default; font-size: 0.8em; fill: rgb(102, 102, 102);" y="249" opacity="1">2016</text><text x="39" text-anchor="end" transform="translate(0,0)" style="color: rgb(102, 102, 102); cursor: default; font-size: 0.8em; fill: rgb(102, 102, 102);" y="276" opacity="1">2015</text><text x="39" text-anchor="end" transform="translate(0,0)" style="color: rgb(102, 102, 102); cursor: default; font-size: 0.8em; fill: rgb(102, 102, 102);" y="304" opacity="1">2014</text></g></svg>