<svg xmlns:xlink="http://www.w3.org/1999/xlink" version="1.1" class="highcharts-root" style="font-family: Helvetica, Arial, sans-serif; font-size: 1rem;" xmlns="http://www.w3.org/2000/svg" width="440" height="282" viewBox="0 0 440 282" role="img" aria-label=""><desc>Created with Highcharts 11.3.0</desc><defs><filter id="highcharts-drop-shadow-4"><feDropShadow dx="1" dy="1" flood-color="#000000" flood-opacity="0.75" stdDeviation="2.5"></feDropShadow></filter><clipPath id="highcharts-pszv12e-57-"><rect x="0" y="0" width="440" height="282" fill="none"></rect></clipPath></defs><rect fill="transparent" class="highcharts-background" filter="none" x="0" y="0" width="440" height="282" rx="0" ry="0"></rect><g stroke-linejoin="round" class="highcharts-3d-frame highcharts-3d-frame-bottom" data-z-index="-1000"><path fill="none" d="M 100.11117277039699 194.67807401593257 L 396.6429520344807 221.82492832882778 L 402.30668534220933 207.11137038084513 L 115.68225611224295 181.8787903191565 Z" visibility="hidden"></path><path fill="none" d="M 116.10020645896887 181.43635274630964 L 402.2306452926511 206.59157198415738 L 396.67392542819005 221 L 100.84329655641542 193.97390522146546 Z"></path><path fill="none" d="M 100.11117277039699 194.67807401593257 L 115.68225611224295 181.8787903191565 L 116.10020645896887 181.43635274630964 L 100.84329655641542 193.97390522146546 Z" visibility="hidden"></path><path fill="none" d="M 402.30668534220933 207.11137038084513 L 396.6429520344807 221.82492832882778 L 396.67392542819005 221 L 402.2306452926511 206.59157198415738 Z"></path><path fill="none" d="M 396.6429520344807 221.82492832882778 L 100.11117277039699 194.67807401593257 L 100.84329655641542 193.97390522146546 L 396.67392542819005 221 Z"></path><path fill="none" d="M 115.68225611224295 181.8787903191565 L 402.30668534220933 207.11137038084513 L 402.2306452926511 206.59157198415738 L 116.10020645896887 181.43635274630964 Z" visibility="hidden"></path></g><g stroke-linejoin="round" class="highcharts-3d-frame highcharts-3d-frame-left" data-z-index="-1000"><path fill="none" d="M 100.11117277039699 194.67807401593257 L 100.84329655641542 193.97390522146546 L 116.10020645896887 181.43635274630964 L 115.68225611224295 181.8787903191565 Z" visibility="hidden"></path><path fill="none" d="M 110.12980245631456 16.44405331165872 L 110.58631720247021 16.61562692738012 L 94.47055236876372 23.636324325406093 L 93.67785230227545 23.597325759147296 Z"></path><path fill="none" d="M 115.68225611224295 181.8787903191565 L 110.12980245631456 16.44405331165872 L 93.67785230227545 23.597325759147296 L 100.11117277039699 194.67807401593257 Z" visibility="hidden"></path><path fill="none" d="M 110.58631720247021 16.61562692738012 L 116.10020645896887 181.43635274630964 L 100.84329655641542 193.97390522146546 L 94.47055236876372 23.636324325406093 Z"></path><path fill="none" d="M 100.11117277039699 194.67807401593257 L 93.67785230227545 23.597325759147296 L 94.47055236876372 23.636324325406093 L 100.84329655641542 193.97390522146546 Z"></path><path fill="none" d="M 110.12980245631456 16.44405331165872 L 115.68225611224295 181.8787903191565 L 116.10020645896887 181.43635274630964 L 110.58631720247021 16.61562692738012 Z" visibility="hidden"></path></g><g stroke-linejoin="round" class="highcharts-3d-frame highcharts-3d-frame-back" data-z-index="-1000"><path fill="none" d="M 402.30668534220933 207.11137038084513 L 115.68225611224295 181.8787903191565 L 116.10020645896887 181.43635274630964 L 402.2306452926511 206.59157198415738 Z" visibility="hidden"></path><path fill="none" d="M 110.12980245631456 16.44405331165872 L 409.1639953857226 30.56660858455055 L 409.0574166994839 30.72266454281194 L 110.58631720247021 16.61562692738012 Z"></path><path fill="none" d="M 115.68225611224295 181.8787903191565 L 110.12980245631456 16.44405331165872 L 110.58631720247021 16.61562692738012 L 116.10020645896887 181.43635274630964 Z" visibility="hidden"></path><path fill="none" d="M 409.1639953857226 30.56660858455055 L 402.30668534220933 207.11137038084513 L 402.2306452926511 206.59157198415738 L 409.0574166994839 30.72266454281194 Z"></path><path fill="none" d="M 110.58631720247021 16.61562692738012 L 409.0574166994839 30.72266454281194 L 402.2306452926511 206.59157198415738 L 116.10020645896887 181.43635274630964 Z"></path><path fill="none" d="M 115.68225611224295 181.8787903191565 L 402.30668534220933 207.11137038084513 L 409.1639953857226 30.56660858455055 L 110.12980245631456 16.44405331165872 Z" visibility="hidden"></path></g><rect fill="none" class="highcharts-plot-background" x="68" y="10" width="362" height="211" filter="none"></rect><g class="highcharts-pane-group" data-z-index="0"></g><g class="highcharts-grid highcharts-xaxis-grid" data-z-index="1"><path fill="none" stroke-width="1" stroke-dasharray="none" data-z-index="1" class="highcharts-grid-line" d="M 135.69536111890062 17.802389155326267 L 140.23591005904888 183.55824833349195 M 125.74032500414734 196.24841429815717 L 140.23591005904888 183.55824833349195" opacity="1"></path><path fill="none" stroke-width="1" stroke-dasharray="none" data-z-index="1" class="highcharts-grid-line" d="M 161.51186716785224 19.022589109510534 L 165.0392044466123 185.73883530873056 M 151.33690365194036 198.58683193658675 L 165.0392044466123 185.73883530873056" opacity="1"></path><path fill="none" stroke-width="1" stroke-dasharray="none" data-z-index="1" class="highcharts-grid-line" d="M 187.6581638172035 20.258376396648956 L 190.14649334966487 187.9461480273588 M 177.25846067230387 200.9549385099706 L 190.14649334966487 187.9461480273588" opacity="1"></path><path fill="none" stroke-width="1" stroke-dasharray="none" data-z-index="1" class="highcharts-grid-line" d="M 214.14061100909464 21.51005161516852 L 215.56339996107315 190.18068085359027 M 203.5112245726196 203.35330303386834 L 215.56339996107315 190.18068085359027" opacity="1"></path><path fill="none" stroke-width="1" stroke-dasharray="none" data-z-index="1" class="highcharts-grid-line" d="M 240.96573327722672 22.777923142806586 L 241.2956870221642 192.44294042007152 M 230.1015840503775 205.78250915827095 L 241.2956870221642 192.44294042007152" opacity="1"></path><path fill="none" stroke-width="1" stroke-dasharray="none" data-z-index="1" class="highcharts-grid-line" d="M 267.31155675980585 24.023140932752085 L 266.5549804252485 194.66361664710183 M 256.21477511460256 208.16812277564128 L 266.5549804252485 194.66361664710183" opacity="1"></path><path fill="none" stroke-width="1" stroke-dasharray="none" data-z-index="1" class="highcharts-grid-line" d="M 294.83139034461897 25.32384752781479 L 292.92588685925404 196.98202057347953 M 283.48942566807784 210.65984343932257 L 292.92588685925404 196.98202057347953" opacity="1"></path><path fill="none" stroke-width="1" stroke-dasharray="none" data-z-index="1" class="highcharts-grid-line" d="M 322.7142984129565 26.641714596387047 L 319.63015322206525 199.32973190989162 M 311.1216401127976 213.18422994173397 L 319.63015322206525 199.32973190989162" opacity="1"></path><path fill="none" stroke-width="1" stroke-dasharray="none" data-z-index="1" class="highcharts-grid-line" d="M 350.96751384496565 27.977083995728975 L 346.6741408257931 201.7073099124642 M 339.118496203207 215.74192888280055 L 346.6741408257931 201.7073099124642" opacity="1"></path><path fill="none" stroke-width="1" stroke-dasharray="none" data-z-index="1" class="highcharts-grid-line" d="M 379.598462921944 29.33030672407719 L 374.064373870903 204.1153281576883 M 367.4872597341176 218.33360404118497 L 374.064373870903 204.1153281576883" opacity="1"></path><path fill="none" stroke-width="1" stroke-dasharray="none" data-z-index="1" class="highcharts-grid-line" d="M 409.50015185304903 30.743590124804754 L 402.65382851215804 206.62877622816538 M 397.1125489017104 221.04007117049593 L 402.65382851215804 206.62877622816538" opacity="1"></path><path fill="none" stroke-width="1" stroke-dasharray="none" data-z-index="1" class="highcharts-grid-line" d="M 110.20244516219677 16.59748347121041 L 115.73112234391812 181.40390463673714 M 100.4626514221724 193.93913075773168 L 115.73112234391812 181.40390463673714" opacity="1"></path></g><g class="highcharts-grid highcharts-yaxis-grid" data-z-index="1"><path fill="none" stroke-width="1" stroke-dasharray="4,3" data-z-index="1" class="highcharts-grid-line" d="M 116.11275085844017 181.81132890735347 L 402.21515966384976 206.9905073601991 M 100.85777365892238 194.36086483365187 L 116.11275085844017 181.81132890735347" opacity="1"></path><path fill="none" stroke-width="1" stroke-dasharray="4,3" data-z-index="1" class="highcharts-grid-line" d="M 114.76973268478798 141.66593971433025 L 403.87424328916404 164.24977280948366 M 99.30729120503361 152.91789730814713 L 114.76973268478798 141.66593971433025" opacity="1"></path><path fill="none" stroke-width="1" stroke-dasharray="4,3" data-z-index="1" class="highcharts-grid-line" d="M 113.42540742131413 101.48147909946803 L 405.5373185494766 121.40620714810035 M 97.7541934027349 111.40502392917732 L 113.42540742131413 101.48147909946803" opacity="1"></path><path fill="none" stroke-width="1" stroke-dasharray="4,3" data-z-index="1" class="highcharts-grid-line" d="M 112.02723525242845 59.68743120052689 L 407.2695366103531 76.78140873876674 M 96.1377107699335 68.19793242762026 L 112.02723525242845 59.68743120052689" opacity="1"></path><path fill="none" stroke-width="1" stroke-dasharray="4,3" data-z-index="1" class="highcharts-grid-line" d="M 110.57270767626676 16.20881208534074 L 409.0743163971496 30.28730041716338 M 94.4547999136947 23.21527571422378 L 110.57270767626676 16.20881208534074" opacity="1"></path></g><g class="highcharts-grid highcharts-zaxis-grid" data-z-index="1"></g><rect fill="none" class="highcharts-plot-border" data-z-index="1" stroke="#cccccc" stroke-width="0" x="68" y="10" width="362" height="211"></rect><g class="highcharts-axis highcharts-xaxis" data-z-index="2"><path fill="none" class="highcharts-axis-line" stroke="#333" stroke-width="1" data-z-index="7" d="M 0 0"></path></g><g class="highcharts-axis highcharts-yaxis" data-z-index="2"><path fill="none" class="highcharts-axis-line" stroke="#333" stroke-width="1" data-z-index="7" d="M 0 0"></path></g><g class="highcharts-axis highcharts-zaxis" data-z-index="2"><path fill="none" class="highcharts-axis-line" stroke="#333333" stroke-width="0" data-z-index="7" d="M 0 0"></path></g><g class="highcharts-series-group" data-z-index="3" filter="none"><g class="highcharts-series highcharts-series-0 highcharts-column-series highcharts-color-0" transform="translate(68,10) scale(1 1)" visibility="visible" data-z-index="10" opacity="1" clip-path="url(#highcharts-pszv12e-57-)"><g stroke-linejoin="round" data-z-index="8100350" stroke="#2f7fe0" stroke-width="1" opacity="1" filter="none" class="highcharts-point highcharts-color-0"><path fill="#2f7fe0" d="M 39.25524773094645 184.27100391429946 L 45.36999088573279 184.82918935305403 L 44.16369556237535 149.61567731798658 L 37.99649026784263 149.10623387400065 Z" class="highcharts-3d-front" data-z-index="0"></path><path fill="rgb(72,152,249)" d="M 44.16369556237535 149.61567731798658 L 51.81175384225409 143.76927504965167 L 45.7408565356445 143.27749342805683 L 37.99649026784263 149.10623387400065 Z" class="highcharts-3d-top" data-z-index="0"></path><path fill="rgb(22,102,199)" d="M 44.16369556237535 149.61567731798658 L 45.36999088573279 184.82918935305403 L 52.9308687474699 178.422518861867 L 51.81175384225409 143.76927504965167 Z" class="highcharts-3d-side" data-z-index="0"></path></g><g stroke-linejoin="round" data-z-index="17100150" stroke="#8b77e1" stroke-width="1" opacity="1" filter="none" class="highcharts-point highcharts-color-1"><path fill="#8b77e1" d="M 46.135635736664426 184.89908138224138 L 52.27124375966511 185.459171474278 L 51.6365978511638 165.9428352796286 L 45.47175233038507 165.40968331486928 Z" class="highcharts-3d-front" data-z-index="0"></path><path fill="rgb(164,144,250)" d="M 51.6365978511638 165.9428352796286 L 59.13740828669383 159.82413470881437 L 53.068839073724945 159.3094264061995 L 45.47175233038507 165.40968331486928 Z" class="highcharts-3d-top" data-z-index="0"></path><path fill="rgb(114,94,200)" d="M 51.6365978511638 165.9428352796286 L 52.27124375966511 185.459171474278 L 59.724866503969665 179.0308136724347 L 59.13740828669383 159.82413470881437 Z" class="highcharts-3d-side" data-z-index="0"></path></g><g stroke-linejoin="round" data-z-index="40100400" stroke="#2f7fe0" stroke-width="1" opacity="1" filter="none" class="highcharts-point highcharts-color-0"><path fill="#2f7fe0" d="M 63.82580638472321 186.51393182074273 L 70.01522347926337 187.07893388364158 L 68.91060555561307 147.69552406661367 L 62.66137707241609 147.18539371265913 Z" class="highcharts-3d-front" data-z-index="0"></path><path fill="rgb(72,152,249)" d="M 68.91060555561307 147.69552406661367 L 76.17624630718343 141.84190722131848 L 70.02602141329004 141.34958549868543 L 62.66137707241609 147.18539371265913 Z" class="highcharts-3d-top" data-z-index="0"></path><path fill="rgb(22,102,199)" d="M 68.91060555561307 147.69552406661367 L 70.01522347926337 187.07893388364158 L 77.19123391908674 180.59465002311936 L 76.17624630718343 141.84190722131848 Z" class="highcharts-3d-side" data-z-index="0"></path></g><g stroke-linejoin="round" data-z-index="50100290" stroke="#8b77e1" stroke-width="1" opacity="1" filter="none" class="highcharts-point highcharts-color-1"><path fill="#8b77e1" d="M 71.56552472815133 187.22045341453713 L 77.77855809701781 187.7876112933244 L 76.9774385896592 157.08224806614902 L 70.71748889115018 156.55784098242884 Z" class="highcharts-3d-front" data-z-index="0"></path><path fill="rgb(164,144,250)" d="M 76.9774385896592 157.08224806614902 L 84.09904770468138 151.0647835269523 L 77.9384815531928 150.55867872234325 L 70.71748889115018 156.55784098242884 Z" class="highcharts-3d-top" data-z-index="0"></path><path fill="rgb(114,94,200)" d="M 76.9774385896592 157.08224806614902 L 77.77855809701781 187.7876112933244 L 84.83227195885003 181.27878386500822 L 84.09904770468138 151.0647835269523 Z" class="highcharts-3d-side" data-z-index="0"></path></g><g stroke-linejoin="round" data-z-index="73100580" stroke="#2f7fe0" stroke-width="1" opacity="1" filter="none" class="highcharts-point highcharts-color-0"><path fill="#2f7fe0" d="M 89.47924946604287 188.8557110287055 L 95.7471159047167 189.42787435422275 L 94.5815685308109 135.3614549383503 L 88.22995097118338 134.86534987614078 Z" class="highcharts-3d-front" data-z-index="0"></path><path fill="rgb(72,152,249)" d="M 94.5815685308109 135.3614549383503 L 101.46190625039065 129.6696929507969 L 95.21267239949026 129.1910758170003 L 88.22995097118338 134.86534987614078 Z" class="highcharts-3d-top" data-z-index="0"></path><path fill="rgb(22,102,199)" d="M 94.5815685308109 135.3614549383503 L 95.7471159047167 189.42787435422275 L 102.51581808809777 182.8620651271436 L 101.46190625039065 129.6696929507969 Z" class="highcharts-3d-side" data-z-index="0"></path></g><g stroke-linejoin="round" data-z-index="83100200" stroke="#8b77e1" stroke-width="1" opacity="1" filter="none" class="highcharts-point highcharts-color-1"><path fill="#8b77e1" d="M 97.31708571675324 189.57118933347533 L 103.60901928012959 190.14554963083935 L 103.1448718481901 166.4321653553216 L 96.81597694099867 165.89094210777813 Z" class="highcharts-3d-front" data-z-index="0"></path><path fill="rgb(164,144,250)" d="M 103.1448718481901 166.4321653553216 L 109.83536521131086 160.22219550783765 L 103.60817117997071 159.6999454723744 L 96.81597694099867 165.89094210777813 Z" class="highcharts-3d-top" data-z-index="0"></path><path fill="rgb(114,94,200)" d="M 103.1448718481901 166.4321653553216 L 103.60901928012959 190.14554963083935 L 110.25216152307146 183.55473205653163 L 109.83536521131086 160.22219550783765 Z" class="highcharts-3d-side" data-z-index="0"></path></g><g stroke-linejoin="round" data-z-index="106100750" stroke="#2f7fe0" stroke-width="1" opacity="1" filter="none" class="highcharts-point highcharts-color-0"><path fill="#2f7fe0" d="M 115.45862912737581 191.2272434165347 L 121.8064459071127 191.80670502344742 L 120.78481498868669 123.59403477564757 L 114.32921233640157 123.1114486628739 Z" class="highcharts-3d-front" data-z-index="0"></path><path fill="rgb(72,152,249)" d="M 120.78481498868669 123.59403477564757 L 127.2613254213934 118.05826678147753 L 120.91158980475302 117.59285620918466 L 114.32921233640157 123.1114486628739 Z" class="highcharts-3d-top" data-z-index="0"></path><path fill="rgb(22,102,199)" d="M 120.78481498868669 123.59403477564757 L 121.8064459071127 191.80670502344742 L 128.15696233584657 185.1578231685709 L 127.2613254213934 118.05826678147753 Z" class="highcharts-3d-side" data-z-index="0"></path></g><g stroke-linejoin="round" data-z-index="116100200" stroke="#8b77e1" stroke-width="1" opacity="1" filter="none" class="highcharts-point highcharts-color-1"><path fill="#8b77e1" d="M 123.39646097106397 191.9518498371594 L 129.76880727534723 192.5335506261726 L 129.45958098101406 168.6825001363345 L 123.04931156231882 168.1343180471561 Z" class="highcharts-3d-front" data-z-index="0"></path><path fill="rgb(164,144,250)" d="M 129.45958098101406 168.6825001363345 L 135.72357040883318 162.3933364766981 L 129.41773881890487 161.86449142146276 L 123.04931156231882 168.1343180471561 Z" class="highcharts-3d-top" data-z-index="0"></path><path fill="rgb(114,94,200)" d="M 129.45958098101406 168.6825001363345 L 129.76880727534723 192.5335506261726 L 135.9904054430645 185.85918383452628 L 135.72357040883318 162.3933364766981 Z" class="highcharts-3d-side" data-z-index="0"></path></g><g stroke-linejoin="round" data-z-index="139101070" stroke="#2f7fe0" stroke-width="1" opacity="1" filter="none" class="highcharts-point highcharts-color-0"><path fill="#2f7fe0" d="M 141.7701968011724 193.6290996473761 L 148.19950345664932 194.21600007238675 L 147.41003178340986 99.14747706882035 L 140.82747743033832 98.69735971664146 Z" class="highcharts-3d-front" data-z-index="0"></path><path fill="rgb(72,152,249)" d="M 147.41003178340986 99.14747706882035 L 153.48545909546993 93.98527244613004 L 147.01306765451363 93.55137967024068 L 140.82747743033832 98.69735971664146 Z" class="highcharts-3d-top" data-z-index="0"></path><path fill="rgb(22,102,199)" d="M 147.41003178340986 99.14747706882035 L 148.19950345664932 194.21600007238675 L 154.12063954672655 187.48245892452525 L 153.48545909546993 93.98527244613004 Z" class="highcharts-3d-side" data-z-index="0"></path></g><g stroke-linejoin="round" data-z-index="149100230" stroke="#8b77e1" stroke-width="1" opacity="1" filter="none" class="highcharts-point highcharts-color-1"><path fill="#8b77e1" d="M 149.8099501420836 194.36300999037428 L 156.26426064362926 194.9521928960117 L 156.09886744418023 168.54681349132437 L 149.60172681956186 167.99497588321734 Z" class="highcharts-3d-front" data-z-index="0"></path><path fill="rgb(164,144,250)" d="M 156.09886744418023 168.54681349132437 L 161.92860660998176 162.2164381460354 L 155.5388496268661 161.68420028401073 L 149.60172681956186 167.99497588321734 Z" class="highcharts-3d-top" data-z-index="0"></path><path fill="rgb(114,94,200)" d="M 156.09886744418023 168.54681349132437 L 156.26426064362926 194.9521928960117 L 162.0530219277154 188.19267803420598 L 161.92860660998176 162.2164381460354 Z" class="highcharts-3d-side" data-z-index="0"></path></g><g stroke-linejoin="round" data-z-index="172101390" stroke="#2f7fe0" stroke-width="1" opacity="1" filter="none" class="highcharts-point highcharts-color-0"><path fill="#2f7fe0" d="M 168.4203648177206 196.061865071964 L 174.93274066615754 196.65634848333167 L 174.7442917343842 74.04989501279945 L 168.03027002055504 73.63415669074116 Z" class="highcharts-3d-front" data-z-index="0"></path><path fill="rgb(72,152,249)" d="M 174.7442917343842 74.04989501279945 L 180.39507701788585 69.28302344665019 L 173.7957465356212 68.88246438213095 L 168.03027002055504 73.63415669074116 Z" class="highcharts-3d-top" data-z-index="0"></path><path fill="rgb(22,102,199)" d="M 174.7442917343842 74.04989501279945 L 174.93274066615754 196.65634848333167 L 180.41297381873738 189.8365207109123 L 180.39507701788585 69.28302344665019 Z" class="highcharts-3d-side" data-z-index="0"></path></g><g stroke-linejoin="round" data-z-index="182100210" stroke="#8b77e1" stroke-width="1" opacity="1" filter="none" class="highcharts-point highcharts-color-1"><path fill="#8b77e1" d="M 176.56401533644788 196.80525968769723 L 183.10188166085305 197.40207000179032 L 183.11516434014362 172.46143065375236 L 176.53602656229765 171.90008072679205 Z" class="highcharts-3d-front" data-z-index="0"></path><path fill="rgb(164,144,250)" d="M 183.11516434014362 172.46143065375236 L 188.49238852162716 166.02257716855968 L 182.0234514256642 165.48128289687878 L 176.53602656229765 171.90008072679205 Z" class="highcharts-3d-top" data-z-index="0"></path><path fill="rgb(114,94,200)" d="M 183.11516434014362 172.46143065375236 L 183.10188166085305 197.40207000179032 L 188.44618183976195 190.55576715851748 L 188.49238852162716 166.02257716855968 Z" class="highcharts-3d-side" data-z-index="0"></path></g><g stroke-linejoin="round" data-z-index="205101700" stroke="#2f7fe0" stroke-width="1" opacity="1" filter="none" class="highcharts-point highcharts-color-0"><path fill="#2f7fe0" d="M 195.4157116151054 198.52614020421302 L 202.01277704962385 199.1283545198179 L 202.81169219463973 49.14006424272182 L 195.96291024511595 48.75940559866049 Z" class="highcharts-3d-front" data-z-index="0"></path><path fill="rgb(72,152,249)" d="M 202.81169219463973 49.14006424272182 L 208.01181224320905 44.776393053035456 L 201.28244792052377 44.40981213826545 L 195.96291024511595 48.75940559866049 Z" class="highcharts-3d-top" data-z-index="0"></path><path fill="rgb(22,102,199)" d="M 202.81169219463973 49.14006424272182 L 202.01277704962385 199.1283545198179 L 207.04024527924793 192.22057081359452 L 208.01181224320905 44.776393053035456 Z" class="highcharts-3d-side" data-z-index="0"></path></g><g stroke-linejoin="round" data-z-index="215100290" stroke="#8b77e1" stroke-width="1" opacity="1" filter="none" class="highcharts-point highcharts-color-1"><path fill="#8b77e1" d="M 203.66528638717375 199.27920413463846 L 210.28834163778575 199.8837909353228 L 210.523099317173 168.26960481156814 L 203.8466695853077 167.71030845712875 Z" class="highcharts-3d-front" data-z-index="0"></path><path fill="rgb(164,144,250)" d="M 210.523099317173 168.26960481156814 L 215.44516786324792 161.85517207962573 L 208.8822992830069 161.31601719697338 L 203.8466695853077 167.71030845712875 Z" class="highcharts-3d-top" data-z-index="0"></path><path fill="rgb(114,94,200)" d="M 210.523099317173 168.26960481156814 L 210.28834163778575 199.8837909353228 L 215.17621356682614 192.94901781426395 L 215.44516786324792 161.85517207962573 Z" class="highcharts-3d-side" data-z-index="0"></path></g><g stroke-linejoin="round" data-z-index="238101630" stroke="#2f7fe0" stroke-width="1" opacity="1" filter="none" class="highcharts-point highcharts-color-0"><path fill="#2f7fe0" d="M 222.76298715292978 201.02254121541066 L 229.44640498669875 201.63263822545468 L 231.22607834034176 56.80777937457693 L 224.29463270197124 56.412552464850926 Z" class="highcharts-3d-front" data-z-index="0"></path><path fill="rgb(72,152,249)" d="M 231.22607834034176 56.80777937457693 L 235.91960655778627 52.27751323329313 L 229.1105604985375 51.896977802810326 L 224.29463270197124 56.412552464850926 Z" class="highcharts-3d-top" data-z-index="0"></path><path fill="rgb(22,102,199)" d="M 231.22607834034176 56.80777937457693 L 229.44640498669875 201.63263822545468 L 234.00889508598266 194.63518593615026 L 235.91960655778627 52.27751323329313 Z" class="highcharts-3d-side" data-z-index="0"></path></g><g stroke-linejoin="round" data-z-index="248100280" stroke="#8b77e1" stroke-width="1" opacity="1" filter="none" class="highcharts-point highcharts-color-1"><path fill="#8b77e1" d="M 231.1205663309513 201.78546434763712 L 237.83048644886063 202.39798062349928 L 238.27715980194364 171.41745904921078 L 231.51387277432977 170.84957344517608 Z" class="highcharts-3d-front" data-z-index="0"></path><path fill="rgb(164,144,250)" d="M 238.27715980194364 171.41745904921078 L 242.72220519635303 164.90520866556565 L 236.07552439769603 164.35790078051542 L 231.51387277432977 170.84957344517608 Z" class="highcharts-3d-top" data-z-index="0"></path><path fill="rgb(114,94,200)" d="M 238.27715980194364 171.41745904921078 L 237.83048644886063 202.39798062349928 L 242.24960808016087 195.37301116503568 L 242.72220519635303 164.90520866556565 Z" class="highcharts-3d-side" data-z-index="0"></path></g><g stroke-linejoin="round" data-z-index="271101530" stroke="#2f7fe0" stroke-width="1" opacity="1" filter="none" class="highcharts-point highcharts-color-0"><path fill="#2f7fe0" d="M 250.46911853915475 203.55170044786445 L 257.24059540266654 204.1698359424219 L 259.8917102902561 67.16778917710616 L 252.88079316198406 66.75367053312488 Z" class="highcharts-3d-front" data-z-index="0"></path><path fill="rgb(72,152,249)" d="M 259.8917102902561 67.16778917710616 L 264.06600303109946 62.4213572324341 L 257.1803801322586 62.02270207282814 L 252.88079316198406 66.75367053312488 Z" class="highcharts-3d-top" data-z-index="0"></path><path fill="rgb(22,102,199)" d="M 259.8917102902561 67.16778917710616 L 257.24059540266654 204.1698359424219 L 261.32553062159616 197.08095766496575 L 264.06600303109946 62.4213572324341 Z" class="highcharts-3d-side" data-z-index="0"></path></g><g stroke-linejoin="round" data-z-index="281100250" stroke="#8b77e1" stroke-width="1" opacity="1" filter="none" class="highcharts-point highcharts-color-1"><path fill="#8b77e1" d="M 258.9368371014876 204.32467767377887 L 265.7353422793846 204.94528045292083 L 266.3524476172632 176.25769374807692 L 259.503519532478 175.67863140751592 Z" class="highcharts-3d-front" data-z-index="0"></path><path fill="rgb(164,144,250)" d="M 266.3524476172632 176.25769374807692 L 270.3069195444169 169.617940069768 L 263.5776313120152 169.05998295107676 L 259.503519532478 175.67863140751592 Z" class="highcharts-3d-top" data-z-index="0"></path><path fill="rgb(114,94,200)" d="M 266.3524476172632 176.25769374807692 L 265.7353422793846 204.94528045292083 L 269.6730241896045 197.82834340170797 L 270.3069195444169 169.617940069768 Z" class="highcharts-3d-side" data-z-index="0"></path></g><g stroke-linejoin="round" data-z-index="304101590" stroke="#2f7fe0" stroke-width="1" opacity="1" filter="none" class="highcharts-point highcharts-color-0"><path fill="#2f7fe0" d="M 278.54121587991176 206.11426694890315 L 285.40250367385374 206.7406008505463 L 289.1971880103163 63.63189331529611 L 282.0806329373565 63.220273564188105 Z" class="highcharts-3d-front" data-z-index="0"></path><path fill="rgb(72,152,249)" d="M 289.1971880103163 63.63189331529611 L 292.8476247203625 58.9147640703213 L 285.86022146133723 58.51863603911158 L 282.0806329373565 63.220273564188105 Z" class="highcharts-3d-top" data-z-index="0"></path><path fill="rgb(22,102,199)" d="M 289.1971880103163 63.63189331529611 L 285.40250367385374 206.7406008505463 L 288.9969308906357 199.55849295244724 L 292.8476247203625 58.9147640703213 Z" class="highcharts-3d-side" data-z-index="0"></path></g><g stroke-linejoin="round" data-z-index="314100250" stroke="#8b77e1" stroke-width="1" opacity="1" filter="none" class="highcharts-point highcharts-color-1"><path fill="#8b77e1" d="M 287.12126544890987 206.8974983311499 L 294.01012160131063 207.52634881539876 L 294.8386400010877 178.66614088480355 L 287.89802184312714 178.07932634306277 Z" class="highcharts-3d-front" data-z-index="0"></path><path fill="rgb(164,144,250)" d="M 294.8386400010877 178.66614088480355 L 298.291237151697 171.93825221593477 L 291.4735337933487 171.372964180924 L 287.89802184312714 178.07932634306277 Z" class="highcharts-3d-top" data-z-index="0"></path><path fill="rgb(114,94,200)" d="M 294.8386400010877 178.66614088480355 L 294.01012160131063 207.52634881539876 L 297.4532940036793 200.3156262313064 L 298.291237151697 171.93825221593477 Z" class="highcharts-3d-side" data-z-index="0"></path></g><g stroke-linejoin="round" data-z-index="337101520" stroke="#2f7fe0" stroke-width="1" opacity="1" filter="none" class="highcharts-point highcharts-color-0"><path fill="#2f7fe0" d="M 306.9865783626641 208.7109070261792 L 313.93947576898415 209.34560352791607 L 318.59615914378105 71.5178637125178 L 311.39235004146695 71.09087924254354 Z" class="highcharts-3d-front" data-z-index="0"></path><path fill="rgb(72,152,249)" d="M 318.59615914378105 71.5178637125178 L 321.7039157191798 66.62511274355762 L 314.63249173731305 66.21428215806594 L 311.39235004146695 71.09087924254354 Z" class="highcharts-3d-top" data-z-index="0"></path><path fill="rgb(22,102,199)" d="M 318.59615914378105 71.5178637125178 L 313.93947576898415 209.34560352791607 L 317.03005212815134 202.06841461918344 L 321.7039157191798 66.62511274355762 Z" class="highcharts-3d-side" data-z-index="0"></path></g><g stroke-linejoin="round" data-z-index="347100220" stroke="#8b77e1" stroke-width="1" opacity="1" filter="none" class="highcharts-point highcharts-color-1"><path fill="#8b77e1" d="M 315.6812090957709 209.50459797078895 L 322.6622293882509 210.1418616752934 L 323.6175642461242 183.61245464471045 L 316.5879890054267 183.01403303642942 Z" class="highcharts-3d-front" data-z-index="0"></path><path fill="rgb(164,144,250)" d="M 323.6175642461242 183.61245464471045 L 326.55438273230254 176.75219578035484 L 319.6509335071459 176.1758562292631 L 316.5879890054267 183.01403303642942 Z" class="highcharts-3d-top" data-z-index="0"></path><path fill="rgb(114,94,200)" d="M 323.6175642461242 183.61245464471045 L 322.6622293882509 210.1418616752934 L 325.59742860423796 202.83548738508148 L 326.55438273230254 176.75219578035484 Z" class="highcharts-3d-side" data-z-index="0"></path></g></g><g class="highcharts-markers highcharts-series-0 highcharts-column-series highcharts-color-0" data-z-index="10" opacity="1" transform="translate(68,10) scale(1 1)" clip-path="none"></g><g class="highcharts-markers highcharts-series-1 highcharts-column-series highcharts-color-1" data-z-index="20" opacity="1" transform="translate(68,10) scale(1 1)" clip-path="none"></g></g><text x="220" text-anchor="middle" class="highcharts-title" data-z-index="4" style="font-size: 1.2em; color: rgb(51, 51, 51); font-weight: bold; fill: rgb(51, 51, 51);" y="25"></text><text x="220" text-anchor="middle" class="highcharts-subtitle" data-z-index="4" style="color: rgb(102, 102, 102); font-size: 0.8em; fill: rgb(102, 102, 102);" y="24"></text><text x="10" text-anchor="start" class="highcharts-caption" data-z-index="4" style="color: rgb(102, 102, 102); font-size: 0.8em; fill: rgb(102, 102, 102);" y="279"></text><g class="highcharts-axis-labels highcharts-xaxis-labels" data-z-index="7"><text x="115.57826298254585" text-anchor="end" transform="translate(0,0) rotate(-45 115.57826298254585 214.18378776254366)" style="color: rgb(102, 102, 102); cursor: default; font-size: 0.8em; fill: rgb(102, 102, 102);" y="214.18378776254366" z="63.4453692580011" opacity="1">2024</text><text x="140.9757941042306" text-anchor="end" transform="translate(0,0) rotate(-45 140.9757941042306 216.62238540853525)" style="color: rgb(102, 102, 102); cursor: default; font-size: 0.8em; fill: rgb(102, 102, 102);" y="216.62238540853525" z="56.3229829092156" opacity="1">2023</text><text x="166.69406147039365" text-anchor="end" transform="translate(0,0) rotate(-45 166.69406147039365 219.0917792231395)" style="color: rgb(102, 102, 102); cursor: default; font-size: 0.8em; fill: rgb(102, 102, 102);" y="219.0917792231395" z="49.200596560430085" opacity="1">2022</text><text x="192.7391793819169" text-anchor="end" transform="translate(0,0) rotate(-45 192.7391793819169 221.59255628388243)" style="color: rgb(102, 102, 102); cursor: default; font-size: 0.8em; fill: rgb(102, 102, 102);" y="221.59255628388243" z="42.07821021164243" opacity="1">2021</text><text x="219.11741854544394" text-anchor="end" transform="translate(0,0) rotate(-45 219.11741854544394 224.12531868591992)" style="color: rgb(102, 102, 102); cursor: default; font-size: 0.8em; fill: rgb(102, 102, 102);" y="224.12531868591992" z="34.95582386285691" opacity="1">2020</text><text x="245.83521110675397" text-anchor="end" transform="translate(0,0) rotate(-45 245.83521110675397 226.69068402532776)" style="color: rgb(102, 102, 102); cursor: default; font-size: 0.8em; fill: rgb(102, 102, 102);" y="226.69068402532776" z="27.83343751407139" opacity="1">2019</text><text x="272.8991558796901" text-anchor="end" transform="translate(0,0) rotate(-45 272.8991558796901 229.28928590116823)" style="color: rgb(102, 102, 102); cursor: default; font-size: 0.8em; fill: rgb(102, 102, 102);" y="229.28928590116823" z="20.711051165285877" opacity="1">2018</text><text x="300.3160237796894" text-anchor="end" transform="translate(0,0) rotate(-45 300.3160237796894 231.9217744372022)" style="color: rgb(102, 102, 102); cursor: default; font-size: 0.8em; fill: rgb(102, 102, 102);" y="231.9217744372022" z="13.588664816500378" opacity="1">2017</text><text x="328.0927634712649" text-anchor="end" transform="translate(0,0) rotate(-45 328.0927634712649 234.58881682414363)" style="color: rgb(102, 102, 102); cursor: default; font-size: 0.8em; fill: rgb(102, 102, 102);" y="234.58881682414363" z="6.4662784677148615" opacity="1">2016</text><text x="356.23650723934253" text-anchor="end" transform="translate(0,0) rotate(-45 356.23650723934253 237.29109788340875)" style="color: rgb(102, 102, 102); cursor: default; font-size: 0.8em; fill: rgb(102, 102, 102);" y="237.29109788340875" z="-0.6561078810706391" opacity="1">2015</text><text x="384.7545770948726" text-anchor="end" transform="translate(0,0) rotate(-45 384.7545770948726 240.02932065335904)" style="color: rgb(102, 102, 102); cursor: default; font-size: 0.8em; fill: rgb(102, 102, 102);" y="240.02932065335904" z="-7.7784942298561575" opacity="1">2014</text></g><g class="highcharts-axis-labels highcharts-yaxis-labels" data-z-index="7"><text x="88.74225071009204" text-anchor="end" transform="translate(0,0)" style="color: rgb(102, 102, 102); cursor: default; font-size: 0.8em; fill: rgb(102, 102, 102);" y="197.84010128218884" z="68.73901185107269" opacity="1">0</text><text x="87.0664542493424" text-anchor="end" transform="translate(0,0)" style="color: rgb(102, 102, 102); cursor: default; font-size: 0.8em; fill: rgb(102, 102, 102);" y="156.47031080084875" z="56.86378993710119" opacity="1">50000</text><text x="85.35524021770573" text-anchor="end" transform="translate(0,0)" style="color: rgb(102, 102, 102); cursor: default; font-size: 0.8em; fill: rgb(102, 102, 102);" y="114.22617935909342" z="44.98856802312969" opacity="1">100000</text><text x="83.60747380999703" text-anchor="end" transform="translate(0,0)" style="color: rgb(102, 102, 102); cursor: default; font-size: 0.8em; fill: rgb(102, 102, 102);" y="71.0796924254182" z="33.113346109158186" opacity="1">150000</text><text x="81.85601669932223" text-anchor="end" transform="translate(0,0)" style="color: rgb(102, 102, 102); cursor: default; font-size: 0.8em; fill: rgb(102, 102, 102);" y="27.842094421865212" z="21.462184986016346" opacity="1">200000</text></g><g class="highcharts-axis-labels highcharts-zaxis-labels" data-z-index="7"></g><g stroke-linejoin="round" class="highcharts-3d-frame highcharts-3d-frame-top" data-z-index="1000"><path fill="none" d="M 110.12980245631456 16.44405331165872 L 409.1639953857226 30.56660858455055 L 403.5134319348978 38.84034628159979 L 93.67785230227545 23.597325759147296 Z" visibility="hidden"></path><path fill="none" d="M 94.47055236876372 23.636324325406093 L 403.5134319348978 38.84034628159979 L 409.0574166994839 30.72266454281194 L 110.58631720247021 16.61562692738012 Z" visibility="hidden"></path><path fill="none" d="M 110.12980245631456 16.44405331165872 L 93.67785230227545 23.597325759147296 L 94.47055236876372 23.636324325406093 L 110.58631720247021 16.61562692738012 Z" visibility="hidden"></path><path fill="none" d="M 403.5134319348978 38.84034628159979 L 409.1639953857226 30.56660858455055 L 409.0574166994839 30.72266454281194 L 403.5134319348978 38.84034628159979 Z" visibility="hidden"></path><path fill="none" d="M 93.67785230227545 23.597325759147296 L 403.5134319348978 38.84034628159979 L 403.5134319348978 38.84034628159979 L 94.47055236876372 23.636324325406093 Z" visibility="hidden"></path><path fill="none" d="M 409.1639953857226 30.56660858455055 L 110.12980245631456 16.44405331165872 L 110.58631720247021 16.61562692738012 L 409.0574166994839 30.72266454281194 Z" visibility="hidden"></path></g><g stroke-linejoin="round" class="highcharts-3d-frame highcharts-3d-frame-right" data-z-index="1000"><path fill="none" d="M 402.30668534220933 207.11137038084513 L 402.2306452926511 206.59157198415738 L 396.67392542819005 221 L 396.6429520344807 221.82492832882778 Z" visibility="hidden"></path><path fill="none" d="M 403.5134319348978 38.84034628159979 L 403.5134319348978 38.84034628159979 L 409.0574166994839 30.72266454281194 L 409.1639953857226 30.56660858455055 Z" visibility="hidden"></path><path fill="none" d="M 403.5134319348978 38.84034628159979 L 396.67392542819005 221 L 402.2306452926511 206.59157198415738 L 409.0574166994839 30.72266454281194 Z" visibility="hidden"></path><path fill="none" d="M 396.6429520344807 221.82492832882778 L 403.5134319348978 38.84034628159979 L 409.1639953857226 30.56660858455055 L 402.30668534220933 207.11137038084513 Z" visibility="hidden"></path><path fill="none" d="M 403.5134319348978 38.84034628159979 L 396.6429520344807 221.82492832882778 L 396.67392542819005 221 L 403.5134319348978 38.84034628159979 Z" visibility="hidden"></path><path fill="none" d="M 402.30668534220933 207.11137038084513 L 409.1639953857226 30.56660858455055 L 409.0574166994839 30.72266454281194 L 402.2306452926511 206.59157198415738 Z" visibility="hidden"></path></g><g stroke-linejoin="round" class="highcharts-3d-frame highcharts-3d-frame-front" data-z-index="1000"><path fill="none" d="M 100.11117277039699 194.67807401593257 L 396.6429520344807 221.82492832882778 L 396.67392542819005 221 L 100.84329655641542 193.97390522146546 Z" visibility="hidden"></path><path fill="none" d="M 403.5134319348978 38.84034628159979 L 93.67785230227545 23.597325759147296 L 94.47055236876372 23.636324325406093 L 403.5134319348978 38.84034628159979 Z" visibility="hidden"></path><path fill="none" d="M 93.67785230227545 23.597325759147296 L 100.11117277039699 194.67807401593257 L 100.84329655641542 193.97390522146546 L 94.47055236876372 23.636324325406093 Z" visibility="hidden"></path><path fill="none" d="M 396.6429520344807 221.82492832882778 L 403.5134319348978 38.84034628159979 L 403.5134319348978 38.84034628159979 L 396.67392542819005 221 Z" visibility="hidden"></path><path fill="none" d="M 403.5134319348978 38.84034628159979 L 94.47055236876372 23.636324325406093 L 100.84329655641542 193.97390522146546 L 396.67392542819005 221 Z" visibility="hidden"></path><path fill="none" d="M 396.6429520344807 221.82492832882778 L 100.11117277039699 194.67807401593257 L 93.67785230227545 23.597325759147296 L 403.5134319348978 38.84034628159979 Z" visibility="hidden"></path></g></svg>