<svg xmlns:xlink="http://www.w3.org/1999/xlink" version="1.1" class="highcharts-root" style="font-family: Helvetica, Arial, sans-serif; font-size: 1rem;" xmlns="http://www.w3.org/2000/svg" width="400" height="240" viewBox="0 0 400 240" role="img" aria-label=""><desc>Created with Highcharts 11.3.0</desc><defs><filter id="highcharts-drop-shadow-4"><feDropShadow dx="1" dy="1" flood-color="#000000" flood-opacity="0.75" stdDeviation="2.5"></feDropShadow></filter><clipPath id="highcharts-j0twgft-116-"><rect x="0" y="0" width="337" height="169" fill="none"></rect></clipPath></defs><rect fill="transparent" class="highcharts-background" filter="none" x="0" y="0" width="400" height="240" rx="0" ry="0"></rect><rect fill="none" class="highcharts-plot-background" x="53" y="10" width="337" height="169" filter="none"></rect><g class="highcharts-pane-group" data-z-index="0"></g><g class="highcharts-grid highcharts-xaxis-grid" data-z-index="1"><path fill="none" stroke="#e6e6e6" stroke-width="0" stroke-dasharray="none" data-z-index="1" class="highcharts-grid-line" d="M 83.5 10 L 83.5 179" opacity="1"></path><path fill="none" stroke="#e6e6e6" stroke-width="0" stroke-dasharray="none" data-z-index="1" class="highcharts-grid-line" d="M 113.5 10 L 113.5 179" opacity="1"></path><path fill="none" stroke="#e6e6e6" stroke-width="0" stroke-dasharray="none" data-z-index="1" class="highcharts-grid-line" d="M 144.5 10 L 144.5 179" opacity="1"></path><path fill="none" stroke="#e6e6e6" stroke-width="0" stroke-dasharray="none" data-z-index="1" class="highcharts-grid-line" d="M 175.5 10 L 175.5 179" opacity="1"></path><path fill="none" stroke="#e6e6e6" stroke-width="0" stroke-dasharray="none" data-z-index="1" class="highcharts-grid-line" d="M 205.5 10 L 205.5 179" opacity="1"></path><path fill="none" stroke="#e6e6e6" stroke-width="0" stroke-dasharray="none" data-z-index="1" class="highcharts-grid-line" d="M 236.5 10 L 236.5 179" opacity="1"></path><path fill="none" stroke="#e6e6e6" stroke-width="0" stroke-dasharray="none" data-z-index="1" class="highcharts-grid-line" d="M 266.5 10 L 266.5 179" opacity="1"></path><path fill="none" stroke="#e6e6e6" stroke-width="0" stroke-dasharray="none" data-z-index="1" class="highcharts-grid-line" d="M 297.5 10 L 297.5 179" opacity="1"></path><path fill="none" stroke="#e6e6e6" stroke-width="0" stroke-dasharray="none" data-z-index="1" class="highcharts-grid-line" d="M 328.5 10 L 328.5 179" opacity="1"></path><path fill="none" stroke="#e6e6e6" stroke-width="0" stroke-dasharray="none" data-z-index="1" class="highcharts-grid-line" d="M 358.5 10 L 358.5 179" opacity="1"></path><path fill="none" stroke="#e6e6e6" stroke-width="0" stroke-dasharray="none" data-z-index="1" class="highcharts-grid-line" d="M 389.5 10 L 389.5 179" opacity="1"></path><path fill="none" stroke="#e6e6e6" stroke-width="0" stroke-dasharray="none" data-z-index="1" class="highcharts-grid-line" d="M 52.5 10 L 52.5 179" opacity="1"></path></g><g class="highcharts-grid highcharts-yaxis-grid" data-z-index="1"><path fill="none" stroke="transparent" stroke-width="1" stroke-dasharray="4,3" data-z-index="1" class="highcharts-grid-line" d="M 53 179.5 L 390 179.5" opacity="1"></path><path fill="none" stroke="transparent" stroke-width="1" stroke-dasharray="4,3" data-z-index="1" class="highcharts-grid-line" d="M 53 95.5 L 390 95.5" opacity="1"></path><path fill="none" stroke="transparent" stroke-width="1" stroke-dasharray="4,3" data-z-index="1" class="highcharts-grid-line" d="M 53 9.5 L 390 9.5" opacity="1"></path></g><rect fill="none" class="highcharts-plot-border" data-z-index="1" stroke="#cccccc" stroke-width="0" x="53" y="10" width="337" height="169"></rect><g class="highcharts-axis highcharts-xaxis" data-z-index="2"><path fill="none" class="highcharts-axis-line" stroke="#333333" stroke-width="1" data-z-index="7" d="M 53 179.5 L 390 179.5"></path></g><g class="highcharts-axis highcharts-yaxis" data-z-index="2"><path fill="none" class="highcharts-axis-line" stroke="#333333" stroke-width="0" data-z-index="7" d="M 53 10 L 53 179"></path></g><g class="highcharts-series-group" data-z-index="3" filter="none"><g class="highcharts-series highcharts-series-0 highcharts-column-series highcharts-color-0" data-z-index="0.1" opacity="1" transform="translate(53,10) scale(1 1)" clip-path="url(#highcharts-j0twgft-116-)"><path fill="#2caffe" d="M 15.5 133 L 15.5 133 A 7.5 7.5 0 0 1 23 140.5 L 23 170 A 0 0 0 0 1 23 170 L 8 170 A 0 0 0 0 1 8 170 L 8 140.5 A 7.5 7.5 0 0 1 15.5 133 Z" stroke="#ffffff" stroke-width="0" opacity="1" filter="none" class="highcharts-point highcharts-color-0"></path><path fill="#2caffe" d="M 46.5 129 L 46.5 129 A 7.5 7.5 0 0 1 54 136.5 L 54 170 A 0 0 0 0 1 54 170 L 39 170 A 0 0 0 0 1 39 170 L 39 136.5 A 7.5 7.5 0 0 1 46.5 129 Z" stroke="#ffffff" stroke-width="0" opacity="1" filter="none" class="highcharts-point highcharts-color-0"></path><path fill="#2caffe" d="M 76.5 115 L 76.5 115 A 7.5 7.5 0 0 1 84 122.5 L 84 170 A 0 0 0 0 1 84 170 L 69 170 A 0 0 0 0 1 69 170 L 69 122.5 A 7.5 7.5 0 0 1 76.5 115 Z" stroke="#ffffff" stroke-width="0" opacity="1" filter="none" class="highcharts-point highcharts-color-0"></path><path fill="#2caffe" d="M 107.5 101 L 107.5 101 A 7.5 7.5 0 0 1 115 108.5 L 115 170 A 0 0 0 0 1 115 170 L 100 170 A 0 0 0 0 1 100 170 L 100 108.5 A 7.5 7.5 0 0 1 107.5 101 Z" stroke="#ffffff" stroke-width="0" opacity="1" filter="none" class="highcharts-point highcharts-color-0"></path><path fill="#2caffe" d="M 138.5 75 L 138.5 75 A 7.5 7.5 0 0 1 146 82.5 L 146 170 A 0 0 0 0 1 146 170 L 131 170 A 0 0 0 0 1 131 170 L 131 82.5 A 7.5 7.5 0 0 1 138.5 75 Z" stroke="#ffffff" stroke-width="0" opacity="1" filter="none" class="highcharts-point highcharts-color-0"></path><path fill="#2caffe" d="M 168.5 50 L 168.5 50 A 7.5 7.5 0 0 1 176 57.5 L 176 170 A 0 0 0 0 1 176 170 L 161 170 A 0 0 0 0 1 161 170 L 161 57.5 A 7.5 7.5 0 0 1 168.5 50 Z" stroke="#ffffff" stroke-width="0" opacity="1" filter="none" class="highcharts-point highcharts-color-0"></path><path fill="#2caffe" d="M 199.5 25 L 199.5 25 A 7.5 7.5 0 0 1 207 32.5 L 207 170 A 0 0 0 0 1 207 170 L 192 170 A 0 0 0 0 1 192 170 L 192 32.5 A 7.5 7.5 0 0 1 199.5 25 Z" stroke="#ffffff" stroke-width="0" opacity="1" filter="none" class="highcharts-point highcharts-color-0"></path><path fill="#2caffe" d="M 229.5 30 L 229.5 30 A 7.5 7.5 0 0 1 237 37.5 L 237 170 A 0 0 0 0 1 237 170 L 222 170 A 0 0 0 0 1 222 170 L 222 37.5 A 7.5 7.5 0 0 1 229.5 30 Z" stroke="#ffffff" stroke-width="0" opacity="1" filter="none" class="highcharts-point highcharts-color-0"></path><path fill="#2caffe" d="M 260.5 39 L 260.5 39 A 7.5 7.5 0 0 1 268 46.5 L 268 170 A 0 0 0 0 1 268 170 L 253 170 A 0 0 0 0 1 253 170 L 253 46.5 A 7.5 7.5 0 0 1 260.5 39 Z" stroke="#ffffff" stroke-width="0" opacity="1" filter="none" class="highcharts-point highcharts-color-0"></path><path fill="#2caffe" d="M 291.5 34 L 291.5 34 A 7.5 7.5 0 0 1 299 41.5 L 299 170 A 0 0 0 0 1 299 170 L 284 170 A 0 0 0 0 1 284 170 L 284 41.5 A 7.5 7.5 0 0 1 291.5 34 Z" stroke="#ffffff" stroke-width="0" opacity="1" filter="none" class="highcharts-point highcharts-color-0"></path><path fill="#2caffe" d="M 321.5 39 L 321.5 39 A 7.5 7.5 0 0 1 329 46.5 L 329 170 A 0 0 0 0 1 329 170 L 314 170 A 0 0 0 0 1 314 170 L 314 46.5 A 7.5 7.5 0 0 1 321.5 39 Z" stroke="#ffffff" stroke-width="0" opacity="1" filter="none" class="highcharts-point highcharts-color-0"></path></g><g class="highcharts-markers highcharts-series-0 highcharts-column-series highcharts-color-0" data-z-index="0.1" opacity="1" transform="translate(53,10) scale(1 1)" clip-path="none"></g><g class="highcharts-series highcharts-series-1 highcharts-line-series highcharts-color-1" data-z-index="0.1" opacity="1" transform="translate(53,10) scale(1 1)" clip-path="url(#highcharts-j0twgft-116-)"><path fill="none" d="M 15.318181818182 147.94598 L 45.954545454546 136.939855 L 76.590909090909 143.86801 L 107.22727272727 143.775905 L 137.86363636363 141.54595 L 168.5 143.41171 L 199.13636363636 136.787755 L 229.77272727273 137.832175 L 260.40909090909 140.50153 L 291.04545454545 140.064665 L 321.68181818182 142.76275" class="highcharts-graph" data-z-index="1" stroke="#544fc5" stroke-width="2" stroke-linejoin="round" stroke-linecap="round" filter="none"></path></g><g class="highcharts-markers highcharts-series-1 highcharts-line-series highcharts-color-1" data-z-index="0.1" opacity="1" transform="translate(53,10) scale(1 1)" clip-path="none"></g></g><text x="200" text-anchor="middle" class="highcharts-title" data-z-index="4" style="font-size: 1.2em; color: rgb(51, 51, 51); font-weight: bold; fill: rgb(51, 51, 51);" y="25"></text><text x="200" text-anchor="middle" class="highcharts-subtitle" data-z-index="4" style="color: rgb(102, 102, 102); font-size: 0.8em; fill: rgb(102, 102, 102);" y="24"></text><text x="10" text-anchor="start" class="highcharts-caption" data-z-index="4" style="color: rgb(102, 102, 102); font-size: 0.8em; fill: rgb(102, 102, 102);" y="237"></text><g class="highcharts-axis-labels highcharts-xaxis-labels" data-z-index="7"><text x="71.14660894292837" text-anchor="end" transform="translate(0,0) rotate(-45 71.14660894292837 202)" style="color: rgb(204, 204, 204); cursor: default; font-size: 0.8em; fill: rgb(204, 204, 204);" y="202" opacity="1">2024</text><text x="101.78297257929437" text-anchor="end" transform="translate(0,0) rotate(-45 101.78297257929437 202)" style="color: rgb(204, 204, 204); cursor: default; font-size: 0.8em; fill: rgb(204, 204, 204);" y="202" opacity="1">2023</text><text x="132.41933621565437" text-anchor="end" transform="translate(0,0) rotate(-45 132.41933621565437 202)" style="color: rgb(204, 204, 204); cursor: default; font-size: 0.8em; fill: rgb(204, 204, 204);" y="202" opacity="1">2022</text><text x="163.05569985201438" text-anchor="end" transform="translate(0,0) rotate(-45 163.05569985201438 202)" style="color: rgb(204, 204, 204); cursor: default; font-size: 0.8em; fill: rgb(204, 204, 204);" y="202" opacity="1">2021</text><text x="193.69206348838438" text-anchor="end" transform="translate(0,0) rotate(-45 193.69206348838438 202)" style="color: rgb(204, 204, 204); cursor: default; font-size: 0.8em; fill: rgb(204, 204, 204);" y="202" opacity="1">2020</text><text x="224.32842712474437" text-anchor="end" transform="translate(0,0) rotate(-45 224.32842712474437 202)" style="color: rgb(204, 204, 204); cursor: default; font-size: 0.8em; fill: rgb(204, 204, 204);" y="202" opacity="1">2019</text><text x="254.96479076110438" text-anchor="end" transform="translate(0,0) rotate(-45 254.96479076110438 202)" style="color: rgb(204, 204, 204); cursor: default; font-size: 0.8em; fill: rgb(204, 204, 204);" y="202" opacity="1">2018</text><text x="285.6011543974744" text-anchor="end" transform="translate(0,0) rotate(-45 285.6011543974744 202)" style="color: rgb(204, 204, 204); cursor: default; font-size: 0.8em; fill: rgb(204, 204, 204);" y="202" opacity="1">2017</text><text x="316.2375180338344" text-anchor="end" transform="translate(0,0) rotate(-45 316.2375180338344 202)" style="color: rgb(204, 204, 204); cursor: default; font-size: 0.8em; fill: rgb(204, 204, 204);" y="202" opacity="1">2016</text><text x="346.8738816701944" text-anchor="end" transform="translate(0,0) rotate(-45 346.8738816701944 202)" style="color: rgb(204, 204, 204); cursor: default; font-size: 0.8em; fill: rgb(204, 204, 204);" y="202" opacity="1">2015</text><text x="377.5102453065644" text-anchor="end" transform="translate(0,0) rotate(-45 377.5102453065644 202)" style="color: rgb(204, 204, 204); cursor: default; font-size: 0.8em; fill: rgb(204, 204, 204);" y="202" opacity="1">2014</text></g><g class="highcharts-axis-labels highcharts-yaxis-labels" data-z-index="7"><text x="38" text-anchor="end" transform="translate(0,0)" style="color: rgb(204, 204, 204); cursor: default; font-size: 0.8em; fill: rgb(204, 204, 204);" y="184" opacity="1">0</text><text x="38" text-anchor="end" transform="translate(0,0)" style="color: rgb(204, 204, 204); cursor: default; font-size: 0.8em; fill: rgb(204, 204, 204);" y="99" opacity="1">100k</text><text x="38" text-anchor="end" transform="translate(0,0)" style="color: rgb(204, 204, 204); cursor: default; font-size: 0.8em; fill: rgb(204, 204, 204);" y="15" opacity="1">200k</text></g></svg>