<svg xmlns:xlink="http://www.w3.org/1999/xlink" version="1.1" class="highcharts-root" style="font-family: Helvetica, Arial, sans-serif; font-size: 1rem;" xmlns="http://www.w3.org/2000/svg" width="152" height="155" viewBox="0 0 152 155" role="img" aria-label=""><desc>Created with Highcharts 11.3.0</desc><defs><filter id="highcharts-drop-shadow-9"><feDropShadow dx="1" dy="1" flood-color="#000000" flood-opacity="0.75" stdDeviation="2.5"></feDropShadow></filter></defs><rect fill="transparent" class="highcharts-background" filter="none" x="0" y="0" width="152" height="155" rx="0" ry="0"></rect><rect fill="none" class="highcharts-plot-background" x="10" y="10" width="132" height="130" filter="none"></rect><g class="highcharts-pane-group" data-z-index="0"></g><rect fill="none" class="highcharts-plot-border" data-z-index="1" stroke="#cccccc" stroke-width="0" x="10" y="10" width="132" height="130"></rect><g class="highcharts-series-group" data-z-index="3" filter="none"><g class="highcharts-series highcharts-series-0 highcharts-pie-series" data-z-index="0.1" opacity="1" transform="translate(10,10) scale(1 1)" filter="none" clip-path="none"><path fill="#adb1f0ff" d="M 65.98942663366425 13.086611667086068 A 3 3 0 0 1 69.16189348902319 10.090962223290845 A 55 55 0 1 1 11.931609006754215 75.08013369958444 A 3 3 0 0 1 14.502029564705737 71.55431468923781 L 29.317400465580988 69.66871410534446 A 3 3 0 0 1 32.63178496219951 72.02653721196333 A 34.1 34.1 0 1 0 68.75048982936829 31.011107612948877 A 3 3 0 0 1 65.99246846895623 28.02149349586925 Z" transform="translate(0,0)" stroke="#ffffff" stroke-width="0" opacity="1" stroke-linejoin="round" class="highcharts-point highcharts-color-0"></path><path fill="transparent" d="M 14.495501000091963 71.50281345022844 A 3 3 0 0 1 11.126619283574335 68.72989125179323 A 55 55 0 0 1 62.75065948196264 10.096067661798209 A 3 3 0 0 1 65.92789334359267 13.086660667704088 L 65.94863759526058 28.021528399575793 A 3 3 0 0 1 63.195381150413795 31.01553129577357 A 34.1 34.1 0 0 0 31.9339730401462 66.52177763504196 A 3 3 0 0 1 29.312750093552005 69.63202917756695 Z" transform="translate(0,0)" stroke="#ffffff" stroke-width="0" opacity="1" stroke-linejoin="round" class="highcharts-point highcharts-color-1"></path></g><g class="highcharts-markers highcharts-series-0 highcharts-pie-series" data-z-index="0.1" opacity="1" transform="translate(10,10) scale(1 1)" clip-path="none"></g></g><text x="76" text-anchor="middle" class="highcharts-title" data-z-index="4" style="font-size: 1.2em; color: rgb(51, 51, 51); font-weight: bold; fill: rgb(51, 51, 51);" y="25"></text><text x="76" text-anchor="middle" class="highcharts-subtitle" data-z-index="4" style="color: rgb(102, 102, 102); font-size: 0.8em; fill: rgb(102, 102, 102);" y="24"></text><text x="10" text-anchor="start" class="highcharts-caption" data-z-index="4" style="color: rgb(102, 102, 102); font-size: 0.8em; fill: rgb(102, 102, 102);" y="152"></text></svg>