<svg width="40" height="40" viewBox="0 0 40 40" fill="none" xmlns="http://www.w3.org/2000/svg">
<g clip-path="url(#clip0_206_41116)">
<path d="M22.7431 19.6975C22.7431 19.0296 22.2019 18.4883 21.5339 18.4883H16.697C16.0292 18.4883 15.4878 19.0296 15.4878 19.6975V36.6265H22.7431V19.6975Z" fill="#ADB1F0"/>
<path d="M33.0214 22.116C33.0214 21.4481 32.4802 20.9067 31.8122 20.9067H26.9754C26.3075 20.9067 25.7661 21.4481 25.7661 22.116V36.6266H33.0214V22.116Z" fill="#ADB1F0"/>
<path d="M12.4648 25.7435C12.4648 25.0757 11.9235 24.5343 11.2556 24.5343H6.41869C5.75084 24.5343 5.20947 25.0757 5.20947 25.7435V36.6265H12.4648V25.7435Z" fill="#ADB1F0"/>
<path d="M34.7747 3.38461L29.3382 4.16117C28.4626 4.28621 28.1056 5.35709 28.7309 5.9825L29.9874 7.23875L25.6019 11.6242L18.3973 6.16037C17.7302 5.65492 16.8008 5.67149 16.1502 6.20402L4.66265 15.6463C3.88791 16.2829 3.7769 17.4259 4.41223 18.1993C4.77124 18.6364 5.29084 18.8619 5.81516 18.8619C6.22013 18.8619 6.62763 18.7273 6.96525 18.4498L17.3464 9.91668L24.6701 15.4704C25.3906 16.0172 26.4061 15.9498 27.0484 15.3074L32.5523 9.80362L33.391 10.6423C34.0163 11.2677 35.0872 10.9108 35.2122 10.0353L35.9889 4.59867C36.0901 3.89055 35.4828 3.2834 34.7747 3.38461Z" fill="#E1E6EC"/>
</g>
<defs>
<clipPath id="clip0_206_41116">
<rect width="32" height="33.253" fill="white" transform="translate(4 3.37354)"/>
</clipPath>
</defs>
</svg>
