<svg xmlns:xlink="http://www.w3.org/1999/xlink" version="1.1" class="highcharts-root" style="font-family: Helvetica, Arial, sans-serif; font-size: 1rem;" xmlns="http://www.w3.org/2000/svg" width="200" height="200" viewBox="0 0 200 200" role="img" aria-label=""><desc>Created with Highcharts 11.3.0</desc><defs><filter id="highcharts-drop-shadow-5"><feDropShadow dx="1" dy="1" flood-color="#000000" flood-opacity="0.75" stdDeviation="2.5"></feDropShadow></filter></defs><rect fill="transparent" class="highcharts-background" filter="none" x="0" y="0" width="200" height="200" rx="0" ry="0"></rect><rect fill="none" class="highcharts-plot-background" x="10" y="10" width="180" height="175" filter="none"></rect><g class="highcharts-pane-group" data-z-index="0"></g><rect fill="none" class="highcharts-plot-border" data-z-index="1" stroke="#cccccc" stroke-width="0" x="10" y="10" width="180" height="175"></rect><g class="highcharts-series-group" data-z-index="3" filter="none"><g class="highcharts-series highcharts-series-0 highcharts-pie-series" data-z-index="0.1" opacity="1" transform="translate(10,10) scale(1 1)" filter="none" clip-path="none"><path fill="#2caffe" d="M 89.98483865372427 13.060428734888745 A 3 3 0 0 1 93.10503343411085 10.062226482335802 A 77.5 77.5 0 0 1 128.74450997049567 20.379861836061735 A 3 3 0 0 1 129.78041985008727 24.581257191908378 L 117.64877768152346 43.7692817607841 A 3 3 0 0 1 113.6593564222882 44.79033506707023 A 48.825 48.825 0 0 0 92.81641091218552 38.75629830866635 A 3 3 0 0 1 89.9894623361415 35.76190461606032 Z" transform="translate(0,0)" stroke="#ffffff" stroke-width="0" opacity="1" stroke-linejoin="round" class="highcharts-point highcharts-color-0"></path><path fill="#544fc5" d="M 129.84331869220063 24.621069064497163 A 3 3 0 0 1 134.0838845404328 23.759423254681856 A 77.5 77.5 0 0 1 167.37536566258876 91.89349389218619 A 3 3 0 0 1 164.08964633944993 94.70932072356574 L 141.4948853697846 92.51072906399281 A 3 3 0 0 1 138.78771988479878 89.4076198369727 A 48.825 48.825 0 0 0 118.47685736701092 47.83957615583368 A 3 3 0 0 1 117.69249456808652 43.79695239921478 Z" transform="translate(0,0)" stroke="#ffffff" stroke-width="0" opacity="1" stroke-linejoin="round" class="highcharts-point highcharts-color-1"></path><path fill="#00e272" d="M 164.08239997510782 94.78340675289685 A 3 3 0 0 1 166.7602342516966 98.18252955178063 A 77.5 77.5 0 0 1 29.731877202221597 136.22374548853878 A 3 3 0 0 1 30.27423081140217 131.93064814776324 L 48.48850966438701 118.38084835486728 A 3 3 0 0 1 52.57844325100348 118.86092657243458 A 48.825 48.825 0 0 0 138.23271178145518 95.08196143534609 A 3 3 0 0 1 141.4898488941152 92.5622214354158 Z" transform="translate(0,0)" stroke="#ffffff" stroke-width="0" opacity="1" stroke-linejoin="round" class="highcharts-point highcharts-color-2"></path><path fill="#fe6a35" d="M 30.229830033541617 131.8709001732067 A 3 3 0 0 1 25.962771504429043 131.1518426484614 A 77.5 77.5 0 0 1 86.77163900807835 10.067269935085989 A 3 3 0 0 1 89.89660492676956 13.060498997784578 L 89.92813682198712 35.761953451220776 A 3 3 0 0 1 87.10596086113178 38.76084569401415 A 48.825 48.825 0 0 0 49.17773217107466 114.2847545126605 A 3 3 0 0 1 48.45764957692239 118.33932143102737 Z" transform="translate(0,0)" stroke="#ffffff" stroke-width="0" opacity="1" stroke-linejoin="round" class="highcharts-point highcharts-color-3"></path></g><g class="highcharts-markers highcharts-series-0 highcharts-pie-series" data-z-index="0.1" opacity="1" transform="translate(10,10) scale(1 1)" clip-path="none"></g></g><text x="100" text-anchor="middle" class="highcharts-title" data-z-index="4" style="font-size: 1.2em; color: rgb(51, 51, 51); font-weight: bold; fill: rgb(51, 51, 51);" y="25"></text><text x="100" text-anchor="middle" class="highcharts-subtitle" data-z-index="4" style="color: rgb(102, 102, 102); font-size: 0.8em; fill: rgb(102, 102, 102);" y="24"></text><text x="10" text-anchor="start" class="highcharts-caption" data-z-index="4" style="color: rgb(102, 102, 102); font-size: 0.8em; fill: rgb(102, 102, 102);" y="197"></text></svg>