<svg xmlns:xlink="http://www.w3.org/1999/xlink" version="1.1" class="highcharts-root" style="font-family: Helvetica, Arial, sans-serif; font-size: 1rem;" xmlns="http://www.w3.org/2000/svg" width="200" height="200" viewBox="0 0 200 200" role="img" aria-label=""><desc>Created with Highcharts 11.3.0</desc><defs><filter id="highcharts-drop-shadow-1"><feDropShadow dx="1" dy="1" flood-color="#000000" flood-opacity="0.75" stdDeviation="2.5"></feDropShadow></filter><clipPath id="highcharts-p9rjlfv-22-"><rect x="0" y="0" width="180" height="175" fill="none"></rect></clipPath></defs><rect fill="transparent" class="highcharts-background" filter="none" x="0" y="0" width="200" height="200" rx="0" ry="0"></rect><rect fill="none" class="highcharts-plot-background" x="10" y="10" width="180" height="175" filter="none"></rect><g class="highcharts-pane-group" data-z-index="0"></g><rect fill="none" class="highcharts-plot-border" data-z-index="1" stroke="#cccccc" stroke-width="0" x="10" y="10" width="180" height="175"></rect><g class="highcharts-series-group" data-z-index="3" filter="none"><g class="highcharts-series highcharts-series-0 highcharts-packedbubble-series highcharts-color-0" data-z-index="0.1" opacity="1" transform="translate(10,10) scale(1 1)" clip-path="url(#highcharts-p9rjlfv-22-)"><path fill="#ff4500" stroke="#ff4500" stroke-width="1" opacity="1" fill-opacity="0.5" class="highcharts-point highcharts-color-0" d="M 138.01326352348835 113.49051258773295 A 30 30 0 1 1 138.04326351848837 113.4904975877342 Z"></path><path fill="#ff4500" stroke="#ff4500" stroke-width="1" opacity="1" fill-opacity="0.5" class="highcharts-point highcharts-color-0" d="M 106.29239185311955 148.99735632610788 A 20.5 20.5 0 1 1 106.31289184970291 148.99734607610873 Z"></path><path fill="#ff4500" stroke="#ff4500" stroke-width="1" opacity="1" fill-opacity="0.5" class="highcharts-point highcharts-color-0" d="M 60.68891677120907 152.45369563214987 A 20.5 20.5 0 1 1 60.70941676779242 152.45368538215072 Z"></path><path fill="#ff4500" stroke="#ff4500" stroke-width="1" opacity="1" fill-opacity="0.5" class="highcharts-point highcharts-color-0" d="M 79.34646255356769 112.85686989157453 A 24.5 24.5 0 1 1 79.37096254948437 112.85685764157556 Z"></path><path fill="#ff4500" stroke="#ff4500" stroke-width="1" opacity="1" fill-opacity="0.5" class="highcharts-point highcharts-color-0" d="M 56.47931037225434 67.24449600509291 A 16.5 16.5 0 1 1 56.49581036950435 67.24448775509362 Z"></path><path fill="#ff4500" stroke="#ff4500" stroke-width="1" opacity="1" fill-opacity="0.5" class="highcharts-point highcharts-color-0" d="M 99.04880165991929 64.49369354810545 A 22.5 22.5 0 1 1 99.07130165616931 64.49368229810639 Z"></path></g><g class="highcharts-markers highcharts-series-0 highcharts-packedbubble-series highcharts-color-0" data-z-index="0.1" opacity="1" transform="translate(10,10) scale(1 1)" clip-path="none"></g></g><text x="100" text-anchor="middle" class="highcharts-title" data-z-index="4" style="font-size: 1.2em; color: rgb(51, 51, 51); font-weight: bold; fill: rgb(51, 51, 51);" y="25"></text><text x="100" text-anchor="middle" class="highcharts-subtitle" data-z-index="4" style="color: rgb(102, 102, 102); font-size: 0.8em; fill: rgb(102, 102, 102);" y="24"></text><text x="10" text-anchor="start" class="highcharts-caption" data-z-index="4" style="color: rgb(102, 102, 102); font-size: 0.8em; fill: rgb(102, 102, 102);" y="197"></text></svg>