<svg xmlns:xlink="http://www.w3.org/1999/xlink" version="1.1" class="highcharts-root" style="font-family: Helvetica, Arial, sans-serif; font-size: 1rem;" xmlns="http://www.w3.org/2000/svg" width="200" height="200" viewBox="0 0 200 200" role="img" aria-label=""><desc>Created with Highcharts 11.3.0</desc><defs><filter id="highcharts-drop-shadow-3"><feDropShadow dx="1" dy="1" flood-color="#000000" flood-opacity="0.75" stdDeviation="2.5"></feDropShadow></filter><clipPath id="highcharts-xhzi9r5-94-"><rect x="0" y="0" width="180" height="175" fill="none"></rect></clipPath></defs><rect fill="transparent" class="highcharts-background" filter="none" x="0" y="0" width="200" height="200" rx="0" ry="0"></rect><rect fill="none" class="highcharts-plot-background" x="10" y="10" width="180" height="175" filter="none"></rect><g class="highcharts-pane-group" data-z-index="0"></g><rect fill="none" class="highcharts-plot-border" data-z-index="1" stroke="#cccccc" stroke-width="0" x="10" y="10" width="180" height="175"></rect><g class="highcharts-series-group" data-z-index="3" filter="none"><g class="highcharts-series highcharts-series-0 highcharts-area-series highcharts-color-0" data-z-index="0.1" opacity="1" transform="translate(10,10) scale(1 1)" clip-path="url(#highcharts-xhzi9r5-94-)"><path fill="#ff4500" d="M 1.7647058823529 109.666666666667 L 19.411764705882 106.166666666667 L 37.058823529412 92.166666666667 L 54.705882352941 74.66666666667 L 72.352941176471 84 L 90 74.66666666667 L 107.64705882353 81.666666666667 L 125.29411764706 61.83333333333 L 142.94117647059 44.33333333332999 L 160.58823529412 51.33333333333 L 178.23529411765 47.83333333333 L 178.23529411765 175 L 160.58823529412 175 L 142.94117647059 175 L 125.29411764706 175 L 107.64705882353 175 L 90 175 L 72.352941176471 175 L 54.705882352941 175 L 37.058823529412 175 L 19.411764705882 175 L 1.7647058823529 175 Z" class="highcharts-area" data-z-index="0" fill-opacity="0.75" style="pointer-events: none;"></path><path fill="none" d="M 1.7647058823529 109.666666666667 L 19.411764705882 106.166666666667 L 37.058823529412 92.166666666667 L 54.705882352941 74.66666666667 L 72.352941176471 84 L 90 74.66666666667 L 107.64705882353 81.666666666667 L 125.29411764706 61.83333333333 L 142.94117647059 44.33333333332999 L 160.58823529412 51.33333333333 L 178.23529411765 47.83333333333" class="highcharts-graph" data-z-index="1" stroke="#ff4500" stroke-width="2" stroke-linejoin="round" stroke-linecap="round" filter="none"></path></g><g class="highcharts-markers highcharts-series-0 highcharts-area-series highcharts-color-0" data-z-index="0.1" opacity="1" transform="translate(10,10) scale(1 1)" clip-path="none"></g></g><text x="100" text-anchor="middle" class="highcharts-title" data-z-index="4" style="font-size: 1.2em; color: rgb(51, 51, 51); font-weight: bold; fill: rgb(51, 51, 51);" y="25"></text><text x="100" text-anchor="middle" class="highcharts-subtitle" data-z-index="4" style="color: rgb(102, 102, 102); font-size: 0.8em; fill: rgb(102, 102, 102);" y="24"></text><text x="10" text-anchor="start" class="highcharts-caption" data-z-index="4" style="color: rgb(102, 102, 102); font-size: 0.8em; fill: rgb(102, 102, 102);" y="197"></text></svg>